<svg
    xmlns="http://www.w3.org/2000/svg"
    viewBox="0 0 200 300"
    id="vector">
    <defs>
        <clipPath id="clip_path">
            <path d="M 0 0 L 200 0 L 200 300 L 0 300 Z M 0 0"/>
        </clipPath>
        <clipPath id="clip_path_1">
            <path d="M 0 0 L 200 0 L 200 300 L 0 300 Z M 0 0"/>
        </clipPath>
        <clipPath id="clip_path_2">
            <path d="M 0 0 L 200 0 L 200 300 L 0 300 Z M 0 0"/>
        </clipPath>
        <clipPath id="clip_path_3">
            <path d="M 0 0 L 200 0 L 200 300 L 0 300 Z M 0 0"/>
        </clipPath>
        <clipPath id="clip_path_4">
            <path d="M 0 0 L 200 0 L 200 300 L 0 300 Z M 0 0"/>
        </clipPath>
        <clipPath id="clip_path_5">
            <path d="M 0 0 L 200 0 L 200 300 L 0 300 Z M 0 0"/>
        </clipPath>
        <clipPath id="clip_path_6">
            <path d="M 0 0 L 200 0 L 200 300 L 0 300 Z M 0 0"/>
        </clipPath>
        <clipPath id="clip_path_7">
            <path d="M 0 0 L 200 0 L 200 300 L 0 300 Z M 0 0"/>
        </clipPath>
        <clipPath id="clip_path_8">
            <path d="M 0 0 L 200 0 L 200 300 L 0 300 Z M 0 0"/>
        </clipPath>
        <clipPath id="clip_path_9">
            <path d="M 0 0 L 200 0 L 200 300 L 0 300 Z M 0 0"/>
        </clipPath>
        <clipPath id="clip_path_10">
            <path d="M 0 0 L 200 0 L 200 300 L 0 300 Z M 0 0"/>
        </clipPath>
        <clipPath id="clip_path_11">
            <path d="M 0 0 L 200 0 L 200 300 L 0 300 Z M 0 0"/>
        </clipPath>
        <clipPath id="clip_path_12">
            <path d="M 0 0 L 200 0 L 200 300 L 0 300 Z M 0 0"/>
        </clipPath>
        <clipPath id="clip_path_13">
            <path d="M 0 0 L 200 0 L 200 300 L 0 300 Z M 0 0"/>
        </clipPath>
        <clipPath id="clip_path_14">
            <path d="M 0 0 L 200 0 L 200 300 L 0 300 Z M 0 0"/>
        </clipPath>
        <clipPath id="clip_path_15">
            <path d="M 0 0 L 200 0 L 200 300 L 0 300 Z M 0 0"/>
        </clipPath>
        <clipPath id="clip_path_16">
            <path d="M 0 0 L 200 0 L 200 300 L 0 300 Z M 0 0"/>
        </clipPath>
        <clipPath id="clip_path_17">
            <path d="M 0 0 L 200 0 L 200 300 L 0 300 Z M 0 0"/>
        </clipPath>
        <clipPath id="clip_path_18">
            <path d="M 0 0 L 200 0 L 200 300 L 0 300 Z M 0 0"/>
        </clipPath>
        <clipPath id="clip_path_19">
            <path d="M 0 0 L 200 0 L 200 300 L 0 300 Z M 0 0"/>
        </clipPath>
        <clipPath id="clip_path_20">
            <path d="M 0 0 L 200 0 L 200 300 L 0 300 Z M 0 0"/>
        </clipPath>
        <clipPath id="clip_path_21">
            <path d="M 0 0 L 200 0 L 200 300 L 0 300 Z M 0 0"/>
        </clipPath>
        <clipPath id="clip_path_22">
            <path d="M 0 0 L 200 0 L 200 300 L 0 300 Z M 0 0"/>
        </clipPath>
        <clipPath id="clip_path_23">
            <path d="M 0 0 L 200 0 L 200 300 L 0 300 Z M 0 0"/>
        </clipPath>
        <clipPath id="clip_path_24">
            <path d="M 0 0 L 200 0 L 200 300 L 0 300 Z M 0 0"/>
        </clipPath>
        <clipPath id="clip_path_25">
            <path d="M 0 0 L 200 0 L 200 300 L 0 300 Z M 0 0"/>
        </clipPath>
        <clipPath id="clip_path_26">
            <path d="M 0 0 L 200 0 L 200 300 L 0 300 Z M 0 0"/>
        </clipPath>
        <clipPath id="clip_path_27">
            <path d="M 0 0 L 200 0 L 200 300 L 0 300 Z M 0 0"/>
        </clipPath>
        <clipPath id="clip_path_28">
            <path d="M 0 0 L 200 0 L 200 300 L 0 300 Z M 0 0"/>
        </clipPath>
        <clipPath id="clip_path_29">
            <path d="M 0 0 L 200 0 L 200 300 L 0 300 Z M 0 0"/>
        </clipPath>
        <clipPath id="clip_path_30">
            <path d="M 0 0 L 200 0 L 200 300 L 0 300 Z M 0 0"/>
        </clipPath>
        <clipPath id="clip_path_31">
            <path d="M 0 0 L 200 0 L 200 300 L 0 300 Z M 0 0"/>
        </clipPath>
        <clipPath id="clip_path_32">
            <path d="M 0 0 L 200 0 L 200 300 L 0 300 Z M 0 0"/>
        </clipPath>
        <clipPath id="clip_path_33">
            <path d="M 0 0 L 200 0 L 200 300 L 0 300 Z M 0 0"/>
        </clipPath>
        <clipPath id="clip_path_34">
            <path d="M 0 0 L 200 0 L 200 300 L 0 300 Z M 0 0"/>
        </clipPath>
        <clipPath id="clip_path_35">
            <path d="M 0 0 L 200 0 L 200 300 L 0 300 Z M 0 0"/>
        </clipPath>
        <clipPath id="clip_path_36">
            <path d="M 0 0 L 200 0 L 200 300 L 0 300 Z M 0 0"/>
        </clipPath>
        <clipPath id="clip_path_37">
            <path d="M 0 0 L 200 0 L 200 300 L 0 300 Z M 0 0"/>
        </clipPath>
        <clipPath id="clip_path_38">
            <path d="M 0 0 L 200 0 L 200 300 L 0 300 Z M 0 0"/>
        </clipPath>
        <clipPath id="clip_path_39">
            <path d="M 0 0 L 200 0 L 200 300 L 0 300 Z M 0 0"/>
        </clipPath>
        <clipPath id="clip_path_40">
            <path d="M 0 0 L 200 0 L 200 300 L 0 300 Z M 0 0"/>
        </clipPath>
        <clipPath id="clip_path_41">
            <path d="M 0 0 L 200 0 L 200 300 L 0 300 Z M 0 0"/>
        </clipPath>
        <clipPath id="clip_path_42">
            <path d="M 0 0 L 200 0 L 200 300 L 0 300 Z M 0 0"/>
        </clipPath>
        <clipPath id="clip_path_43">
            <path d="M 0 0 L 200 0 L 200 300 L 0 300 Z M 0 0"/>
        </clipPath>
        <clipPath id="clip_path_44">
            <path d="M 0 0 L 200 0 L 200 300 L 0 300 Z M 0 0"/>
        </clipPath>
        <clipPath id="clip_path_45">
            <path d="M 0 0 L 200 0 L 200 300 L 0 300 Z M 0 0"/>
        </clipPath>
        <clipPath id="clip_path_46">
            <path d="M 0 0 L 200 0 L 200 300 L 0 300 Z M 0 0"/>
        </clipPath>
        <clipPath id="clip_path_47">
            <path d="M 0 0 L 200 0 L 200 300 L 0 300 Z M 0 0"/>
        </clipPath>
        <clipPath id="clip_path_48">
            <path d="M 0 0 L 200 0 L 200 300 L 0 300 Z M 0 0"/>
        </clipPath>
        <clipPath id="clip_path_49">
            <path d="M 0 0 L 200 0 L 200 300 L 0 300 Z M 0 0"/>
        </clipPath>
        <clipPath id="clip_path_50">
            <path d="M 0 0 L 200 0 L 200 300 L 0 300 Z M 0 0"/>
        </clipPath>
        <clipPath id="clip_path_51">
            <path d="M 0 0 L 200 0 L 200 300 L 0 300 Z M 0 0"/>
        </clipPath>
        <clipPath id="clip_path_52">
            <path d="M 0 0 L 200 0 L 200 300 L 0 300 Z M 0 0"/>
        </clipPath>
        <clipPath id="clip_path_53">
            <path d="M 0 0 L 200 0 L 200 300 L 0 300 Z M 0 0"/>
        </clipPath>
        <clipPath id="clip_path_54">
            <path d="M 0 0 L 200 0 L 200 300 L 0 300 Z M 0 0"/>
        </clipPath>
        <clipPath id="clip_path_55">
            <path d="M 0 0 L 200 0 L 200 300 L 0 300 Z M 0 0"/>
        </clipPath>
        <clipPath id="clip_path_56">
            <path d="M 0 0 L 200 0 L 200 300 L 0 300 Z M 0 0"/>
        </clipPath>
        <clipPath id="clip_path_57">
            <path d="M 0 0 L 200 0 L 200 300 L 0 300 Z M 0 0"/>
        </clipPath>
        <clipPath id="clip_path_58">
            <path d="M 0 0 L 200 0 L 200 300 L 0 300 Z M 0 0"/>
        </clipPath>
        <clipPath id="clip_path_59">
            <path d="M 0 0 L 200 0 L 200 300 L 0 300 Z M 0 0"/>
        </clipPath>
        <clipPath id="clip_path_60">
            <path d="M 0 0 L 200 0 L 200 300 L 0 300 Z M 0 0"/>
        </clipPath>
        <clipPath id="clip_path_61">
            <path d="M 0 0 L 200 0 L 200 300 L 0 300 Z M 0 0"/>
        </clipPath>
        <clipPath id="clip_path_62">
            <path d="M 0 0 L 200 0 L 200 300 L 0 300 Z M 0 0"/>
        </clipPath>
        <clipPath id="clip_path_63">
            <path d="M 0 0 L 200 0 L 200 300 L 0 300 Z M 0 0"/>
        </clipPath>
        <clipPath id="clip_path_64">
            <path d="M 0 0 L 200 0 L 200 300 L 0 300 Z M 0 0"/>
        </clipPath>
        <clipPath id="clip_path_65">
            <path d="M 0 0 L 200 0 L 200 300 L 0 300 Z M 0 0"/>
        </clipPath>
        <clipPath id="clip_path_66">
            <path d="M 0 0 L 200 0 L 200 300 L 0 300 Z M 0 0"/>
        </clipPath>
        <clipPath id="clip_path_67">
            <path d="M 0 0 L 200 0 L 200 300 L 0 300 Z M 0 0"/>
        </clipPath>
        <clipPath id="clip_path_68">
            <path d="M 0 0 L 200 0 L 200 300 L 0 300 Z M 0 0"/>
        </clipPath>
        <clipPath id="clip_path_69">
            <path d="M 0 0 L 200 0 L 200 300 L 0 300 Z M 0 0"/>
        </clipPath>
        <clipPath id="clip_path_70">
            <path d="M 0 0 L 200 0 L 200 300 L 0 300 Z M 0 0"/>
        </clipPath>
        <clipPath id="clip_path_71">
            <path d="M 0 0 L 200 0 L 200 300 L 0 300 Z M 0 0"/>
        </clipPath>
        <clipPath id="clip_path_72">
            <path d="M 0 0 L 200 0 L 200 300 L 0 300 Z M 0 0"/>
        </clipPath>
        <clipPath id="clip_path_73">
            <path d="M 0 0 L 200 0 L 200 300 L 0 300 Z M 0 0"/>
        </clipPath>
        <clipPath id="clip_path_74">
            <path d="M 0 0 L 200 0 L 200 300 L 0 300 Z M 0 0"/>
        </clipPath>
        <clipPath id="clip_path_75">
            <path d="M 0 0 L 200 0 L 200 300 L 0 300 Z M 0 0"/>
        </clipPath>
        <clipPath id="clip_path_76">
            <path d="M 0 0 L 200 0 L 200 300 L 0 300 Z M 0 0"/>
        </clipPath>
        <clipPath id="clip_path_77">
            <path d="M 0 0 L 200 0 L 200 300 L 0 300 Z M 0 0"/>
        </clipPath>
        <clipPath id="clip_path_78">
            <path d="M 0 0 L 200 0 L 200 300 L 0 300 Z M 0 0"/>
        </clipPath>
    </defs>
    <g id="group">
        <path
            id="path"
            clip-path="url(#clip_path)"
            d="M 0 0 L 200 0 L 200 300 L 0 300 Z"
            fill="#ffffff"/>
        <path
            id="path_1"
            clip-path="url(#clip_path_1)"
            d="M 137.224 71.797 C 136.867 70.477 136.436 69.177 135.935 67.905 C 133.975 62.849 131.43 58.04 128.353 53.576 C 125.366 49.308 122.929 44.681 121.1 39.803 C 120.864 36.946 120.001 34.176 118.573 31.691 C 118.357 27.019 117.884 22.362 117.158 17.741 C 116.583 13.635 114.848 9.776 112.158 6.621 C 110.429 4.527 108.255 2.846 105.793 1.701 C 103.331 0.555 100.645 -0.026 97.93 0 C 97.368 0.026 96.81 0.102 96.262 0.227 C 96.15 0.248 96.051 0.312 95.984 0.404 C 94.752 0.611 93.542 0.933 92.37 1.365 C 89.465 2.352 86.833 4.011 84.689 6.207 C 82.545 8.402 80.949 11.072 80.03 14 C 78.494 18.582 77.743 23.391 77.81 28.224 C 77.835 29.867 77.861 31.484 77.936 33.076 C 77.81 34.113 77.683 35.098 77.536 36.084 C 77.511 36.109 77.511 36.16 77.485 36.21 C 77.111 38.425 76.528 40.6 75.742 42.705 C 74.006 46.808 71.97 50.778 69.651 54.582 C 66.61 59.773 63.933 65.169 61.64 70.731 C 61.921 70.372 62.175 69.992 62.398 69.594 C 62.067 70.375 61.789 71.176 61.564 71.994 C 61.311 72.979 61.084 73.994 60.881 75.001 L 61.462 75.001 C 61.953 72.513 62.594 70.057 63.382 67.647 Q 65.922 62.757 68.866 57.538 C 71.115 53.52 73.137 49.729 74.982 46.138 C 76.329 43.626 77.292 40.925 77.838 38.127 L 77.838 38.102 C 77.863 38.027 77.863 37.951 77.889 37.875 L 77.914 37.647 Q 78.142 37.078 79.279 40.603 L 80.214 43.509 C 80.189 43.383 80.138 43.256 80.114 43.13 C 79.23 40.092 78.63 36.979 78.32 33.83 C 78.345 33.451 78.345 33.072 78.345 32.693 C 78.157 27.24 78.624 21.785 79.735 16.443 L 79.811 16.143 Q 80.228 14.589 80.721 13.11 C 81.136 12.031 81.66 10.998 82.287 10.027 C 82.294 9.989 82.311 9.955 82.338 9.927 C 82.338 9.902 82.338 9.902 82.363 9.876 C 83.255 8.472 84.335 7.197 85.573 6.085 C 85.598 6.06 85.598 6.034 85.624 6.009 L 85.675 5.958 L 85.726 5.907 C 86.63 5.087 87.601 4.346 88.63 3.69 C 91.738 1.694 95.326 0.568 99.017 0.43 C 101.624 0.632 104.158 1.39 106.447 2.654 C 108.756 3.832 110.784 5.494 112.393 7.526 C 114.002 9.558 115.155 11.914 115.772 14.431 C 117.041 19.326 117.795 24.34 118.021 29.392 C 118.173 31.993 118.173 34.6 118.021 37.201 C 118.463 36.19 118.678 35.095 118.653 33.992 C 120.118 36.948 120.801 39.4 120.725 41.321 C 120.625 43.241 120.725 43.949 121.003 43.421 C 121.251 42.903 121.446 42.361 121.584 41.803 C 123.823 47.412 126.743 52.726 130.277 57.623 C 132.81 61.142 134.709 65.076 135.888 69.248 C 136.418 71.168 136.899 73.089 137.303 75.01 L 137.935 75.01 C 137.758 73.923 137.506 72.862 137.228 71.801 Z"
            fill="#000000"/>
        <path
            id="path_2"
            clip-path="url(#clip_path_2)"
            d="M 115.769 111.776 C 116.212 111.623 116.643 111.437 117.058 111.22 C 115.697 112.17 114.586 113.436 113.823 114.91 C 113.368 115.997 112.61 118.195 111.523 121.51 C 110.001 125.597 107.898 129.444 105.281 132.933 C 102.198 137.255 100.555 139.733 100.353 140.413 C 100.164 139.616 99.928 138.832 99.646 138.063 C 98.763 135.721 97.442 133.568 95.754 131.72 C 92.193 127.804 88.98 123.584 86.154 119.109 C 85.99 118.828 85.786 118.573 85.548 118.351 C 82.85 116.177 80.022 114.169 77.082 112.336 C 75.827 111.542 74.666 110.61 73.62 109.556 C 72.253 108.249 71.408 106.487 71.245 104.603 C 71.119 101.823 70.945 100.534 70.765 100.711 C 70.671 100.781 70.555 100.817 70.437 100.811 C 70.206 100.109 69.807 99.475 69.274 98.963 C 68.741 98.452 68.09 98.08 67.379 97.879 L 67.354 97.879 C 67.654 98.208 67.961 98.511 68.289 98.839 L 68.289 98.89 C 68.896 99.547 69.477 100.229 70.058 100.912 C 70.216 101.299 70.31 101.708 70.336 102.125 C 70.436 104.23 70.88 106.304 71.65 108.266 C 71.776 108.519 71.903 108.746 72.029 108.973 Q 71.385 119.322 70.741 129.291 C 70.589 131.439 70.441 133.562 70.311 135.685 L 70.235 136.67 C 70.007 140.284 69.835 143.797 69.729 147.183 C 69.704 148.118 69.678 149.083 69.653 150.014 L 70.26 150.014 C 70.412 146.602 70.614 143.19 70.892 139.779 C 70.992 138.338 71.092 136.898 71.221 135.457 L 72.813 117.338 C 72.806 117.294 72.815 117.25 72.838 117.212 C 73.038 114.963 73.268 112.688 73.495 110.439 C 74.672 111.891 76.081 113.138 77.665 114.129 C 79.765 115.468 81.835 116.729 83.882 117.945 C 85.103 118.749 86.075 119.878 86.687 121.205 C 87.747 123.474 89.249 125.508 91.105 127.19 C 93.463 129.444 95.542 131.972 97.297 134.721 C 99.521 138.031 100.38 140.357 99.849 141.696 C 102.1 137.832 104.634 134.141 107.431 130.652 C 109.466 128.141 110.933 125.218 111.731 122.085 C 112.661 118.687 114.259 115.508 116.431 112.734 C 117.114 111.85 117.593 111.193 117.897 110.788 C 118.276 110.535 118.63 110.257 119.009 109.954 C 119.846 109.265 120.557 108.436 121.109 107.503 C 122.094 105.784 123.131 104.091 124.167 102.403 Q 125.987 116.732 127.806 131.491 C 128.135 134.043 128.438 136.621 128.741 139.173 Q 129.006 143.798 129.423 150.015 L 130.181 150.015 C 130.03 148.17 129.828 146.073 129.6 143.748 Q 128.955 136.356 128.159 128.964 C 128.184 129.697 128.235 130.404 128.285 131.137 L 128.285 131.237 C 128.281 131.423 128.289 131.608 128.31 131.793 C 128.28 131.609 128.263 131.423 128.259 131.237 L 128.259 131.137 Q 126.477 116.012 125.327 100.457 C 125.627 99.927 125.934 99.421 126.262 98.915 C 126.672 98.231 127.293 97.699 128.031 97.399 C 130.858 96.338 133.596 95.054 136.219 93.558 Q 137.394 101.67 138.619 110.844 Q 140.704 126.007 142.132 141.221 C 142.41 144.329 142.688 147.261 142.941 150.016 L 143.775 150.016 Q 142.183 136.066 140.666 121.99 Q 139.074 107.244 137.052 92.725 C 137.962 92.093 138.872 91.411 139.752 90.725 C 139.83 90.684 139.895 90.622 139.94 90.546 C 139.985 90.47 140.007 90.383 140.005 90.295 C 139.795 87.344 139.321 84.418 138.59 81.551 C 138.535 79.356 138.316 77.168 137.933 75.006 L 137.305 75.006 C 137.884 77.854 138.315 80.731 138.594 83.624 L 138.594 83.524 C 138.829 85.487 139.209 87.43 139.731 89.337 C 139.77 89.406 139.784 89.487 139.77 89.566 C 139.756 89.644 139.715 89.715 139.655 89.767 C 138.817 90.618 137.921 91.412 136.976 92.142 C 136.951 92.016 136.925 91.914 136.9 91.813 C 136.906 91.924 136.924 92.034 136.951 92.142 C 134.682 93.81 132.167 95.115 129.496 96.009 C 128.439 96.318 127.492 96.923 126.767 97.752 L 126.539 97.98 C 124.77 100.124 123.268 102.474 122.066 104.98 C 120.693 107.823 118.501 110.191 115.773 111.78 Z"
            fill="#000000"/>
        <path
            id="path_3"
            clip-path="url(#clip_path_3)"
            d="M 61.46 75.006 L 60.879 75.006 C 59.97 79.322 59.462 83.713 59.363 88.122 C 59.333 89.023 59.427 89.925 59.641 90.801 C 59.515 91.534 59.413 92.267 59.341 92.974 C 59.72 93.252 60.074 93.505 60.428 93.783 C 60.302 94.794 60.049 96.942 59.72 100.227 Q 58.697 109.704 57.22 124.918 C 56.384 133.257 55.977 141.633 56 150.013 L 56.758 150.013 C 56.707 141.296 57.112 132.583 57.971 123.908 Q 59.449 108.783 61.155 94.163 C 62.191 94.972 63.328 95.781 64.516 96.563 L 68.231 98.888 C 65.67 96.572 62.932 94.46 60.043 92.57 L 60.043 92.444 C 60.351 91.438 60.342 90.362 60.018 89.361 C 60.018 87.314 60.118 85.242 60.296 83.169 C 60.524 80.428 60.912 77.702 61.458 75.006 Z"
            fill="#000000"/>
        <path
            id="path_4"
            clip-path="url(#clip_path_4)"
            d="M 70.254 150.013 L 69.647 150.013 C 69.571 153.475 69.547 156.836 69.622 160.046 C 69.322 161.031 69.092 161.512 68.94 161.512 C 65.354 161.516 61.822 160.639 58.654 158.96 C 58.046 158.374 57.57 157.665 57.256 156.881 C 56.943 156.097 56.799 155.255 56.835 154.411 L 56.759 150.011 L 55.999 150.011 C 55.999 151.805 56.024 153.574 56.075 155.369 C 56.089 155.84 56.219 156.3 56.454 156.708 C 56.458 157.583 56.63 158.449 56.959 159.26 C 57.667 159.588 58.374 159.892 59.082 160.144 C 59.343 164.016 60.134 167.834 61.432 171.491 C 62.668 175.534 65.222 179.049 68.685 181.473 Q 68.95 181.132 68.985 194.058 Q 68.985 206.946 68.328 218.95 C 68.202 221.073 68.128 223.095 68.05 225.016 L 68.631 225.016 C 68.757 218.216 68.985 211.416 69.314 204.672 C 69.667 197.065 69.714 189.509 69.44 181.953 L 69.667 182.104 L 69.44 181.852 C 69.364 179.552 69.263 177.227 69.14 174.902 C 69.214 170.665 69.02 166.428 68.559 162.216 C 68.535 162.177 68.518 162.134 68.508 162.09 L 69.721 162.09 C 69.746 163.708 69.772 165.325 69.847 166.967 C 69.847 165.325 69.872 163.707 69.898 162.09 L 69.949 162.09 C 69.924 162.065 69.924 162.039 69.898 162.039 C 69.949 158.021 70.075 154.003 70.252 150.01 Z M 68.207 162.093 C 68.126 163.313 68.126 164.537 68.207 165.757 C 68.27 168.681 68.489 171.6 68.864 174.501 C 68.33 174.548 67.798 174.624 67.272 174.728 C 67.236 174.686 67.218 174.631 67.221 174.576 C 66.285 171.037 65.535 167.453 64.972 163.836 C 64.82 163.811 64.744 163.887 64.772 164.013 C 65.036 167.803 65.688 171.556 66.718 175.213 C 67.552 175.643 68.159 175.592 68.588 175.061 C 68.664 174.909 68.765 174.732 68.866 174.531 C 68.917 174.783 68.966 175.036 68.992 175.289 Q 68.802 178.17 68.692 181.127 L 65.533 177.943 C 62.677 175.087 60.782 169.25 59.897 160.404 C 60.49 160.611 61.099 160.771 61.717 160.884 C 63.795 161.664 65.993 162.074 68.212 162.097 Z M 57.365 158.403 L 57.365 158.327 C 57.369 158.15 57.361 157.973 57.34 157.797 C 57.682 158.197 58.062 158.561 58.477 158.884 C 58.098 158.732 57.744 158.584 57.365 158.404 Z"
            fill="#000000"/>
        <path
            id="path_5"
            clip-path="url(#clip_path_5)"
            d="M 68.636 225.021 L 68.055 225.021 C 67.878 230.328 67.827 234.852 67.955 238.621 Q 68.485 253.898 68.183 269.2 Q 68.297 269.314 68.334 268.214 L 68.334 270.314 C 68.334 272.462 68.259 277.162 68.107 284.466 C 71.2 285.827 74.496 286.672 77.862 286.966 C 76.864 289.111 76.347 291.448 76.346 293.814 C 76.428 294.709 76.751 295.565 77.281 296.291 C 77.913 297.327 79.632 297.858 82.436 297.934 C 85.24 298.01 87.061 298.263 87.92 298.692 C 89.176 299.227 90.523 299.519 91.888 299.552 C 92.015 299.56 92.142 299.552 92.267 299.527 C 92.232 299.683 92.182 299.836 92.116 299.982 L 92.167 300.007 C 93.462 298.387 94.102 296.34 93.961 294.271 C 94.449 291.311 94.382 288.285 93.761 285.35 Q 94.823 285.198 95.884 284.971 C 96.01 284.946 96.794 284.895 98.259 284.771 Q 100.079 284.657 108.039 285.984 C 107.988 286.384 107.939 286.894 107.862 287.526 C 107.751 288.347 107.734 289.178 107.811 290.003 C 107.887 291.039 108.039 292.884 108.266 295.588 C 108.291 295.841 108.317 296.093 108.366 296.371 C 108.871 299.429 110.489 300.339 113.193 299.071 C 115.672 297.843 118.478 297.436 121.204 297.909 C 122.493 298.137 123.352 297.985 123.832 297.403 C 124.078 297.296 124.314 297.169 124.539 297.024 C 124.937 296.754 125.224 296.35 125.348 295.886 C 125.781 294.349 125.834 292.729 125.503 291.166 C 125.173 289.604 124.467 288.145 123.448 286.915 C 123.69 286.868 123.935 286.834 124.181 286.815 C 124.181 286.84 124.181 286.84 124.206 286.866 C 124.206 286.841 124.231 286.841 124.257 286.815 C 127.951 286.297 131.594 285.469 135.149 284.338 C 135.395 284.162 135.657 284.01 135.932 283.883 C 135.78 281.883 135.654 279.183 135.532 275.72 Q 134.888 255.52 134.066 234.098 C 133.94 230.939 133.814 227.932 133.687 225.026 L 133.004 225.026 C 133.13 226.871 133.257 228.867 133.404 231.041 Q 134.275 244.953 134.642 271.172 C 134.718 277.111 134.87 281.306 135.148 283.783 C 128.651 285.718 121.882 286.58 115.107 286.335 C 115.269 286.368 115.429 286.41 115.587 286.461 C 115.411 286.44 115.233 286.432 115.056 286.436 C 114.526 286.36 114.02 286.31 113.565 286.259 C 111.947 286.133 110.355 285.981 108.765 285.779 L 108.765 285.721 C 108.31 285.696 108.083 285.671 108.058 285.671 C 106.036 285.342 104.014 284.938 101.968 284.432 C 100.644 284.114 99.273 284.046 97.924 284.232 C 97.949 284.08 97.824 283.932 97.595 283.802 C 97.453 283.902 97.288 283.963 97.115 283.979 Q 89.95 285.154 83.342 286.203 L 84.024 286.203 C 83.779 286.207 83.534 286.224 83.291 286.254 Q 73.549 286.444 68.861 283.98 C 68.848 283.952 68.842 283.922 68.842 283.892 C 68.842 283.861 68.848 283.831 68.861 283.803 C 69.249 278.983 69.231 274.139 68.81 269.322 C 68.861 269.297 68.886 269.222 68.886 269.122 C 68.861 266.822 68.835 264.548 68.786 262.248 Q 68.486 248.905 68.508 235.46 C 68.533 231.973 68.559 228.485 68.634 225.023 Z M 77.001 291.435 C 77.389 289.835 78.067 288.318 79.001 286.962 C 82.547 287.128 86.098 286.77 89.539 285.9 C 90.878 285.774 91.889 285.622 92.546 285.5 C 93.365 288.148 93.715 290.919 93.582 293.688 L 93.582 293.814 C 93.415 295.303 93.119 296.776 92.698 298.214 C 92.016 298.896 91.106 298.947 89.918 298.414 C 88.388 297.817 86.76 297.508 85.118 297.504 C 83.118 297.428 81.504 297.378 80.241 297.352 C 78.978 297.326 77.967 296.341 77.183 294.446 C 76.828 293.483 76.767 292.436 77.007 291.438 Z M 109.526 286.355 C 110.189 286.337 110.851 286.404 111.497 286.555 C 114.741 287.126 118.041 287.312 121.328 287.111 L 121.353 287.111 L 122.338 287.035 C 122.516 287.166 122.677 287.319 122.818 287.49 C 123.34 288.016 123.798 288.601 124.183 289.234 C 125.081 290.452 125.584 291.916 125.624 293.429 C 125.548 294.945 124.613 296.184 122.869 297.144 C 118.952 296.715 116.046 297.069 114.15 298.256 C 112.305 299.343 110.764 299.14 109.576 297.624 C 108.863 295.407 108.571 293.075 108.717 290.75 L 108.692 290.75 C 108.717 290.396 108.742 290.067 108.792 289.739 L 109.424 286.757 C 109.417 286.713 109.426 286.669 109.449 286.631 C 109.474 286.58 109.474 286.531 109.5 286.505 C 109.496 286.453 109.504 286.401 109.525 286.353 Z M 108.035 286.81 C 108.035 286.532 108.035 286.254 108.06 285.976 L 108.186 285.976 C 108.111 286.249 108.06 286.528 108.034 286.81 Z"
            fill="#000000"/>
        <path
            id="path_6"
            clip-path="url(#clip_path_6)"
            d="M 143.997 156.129 C 143.993 156.094 144.002 156.058 144.022 156.029 C 144.222 155.877 144.322 156.206 144.3 156.989 C 144.351 156.029 144.275 155.599 144.048 155.725 C 144.165 154.574 144.157 153.413 144.023 152.263 C 143.947 151.505 143.846 150.747 143.77 150.014 L 142.936 150.014 C 143.088 151.859 143.236 153.653 143.366 155.346 C 141.149 156.928 138.613 158.007 135.936 158.505 L 132.246 158.581 Q 131.601 158.467 131.033 158.353 C 130.957 158.328 130.907 158.328 130.833 158.302 C 130.735 158.126 130.659 157.94 130.605 157.746 C 130.58 157.67 130.554 157.569 130.529 157.493 C 130.504 157.468 130.504 157.468 130.504 157.442 L 130.504 157.242 C 130.479 156.459 130.428 155.675 130.378 154.892 L 130.606 157.242 C 130.629 156.07 130.587 154.897 130.48 153.729 Q 130.366 152.061 130.18 150.014 L 129.422 150.014 C 129.599 152.614 129.776 155.448 130.003 158.505 C 130.533 166.314 130.963 175.538 131.317 186.127 Q 131.695 198.258 131.999 209.099 C 132.05 210.009 132.099 210.969 132.176 211.98 Q 132.404 215.88 133.01 225.02 L 133.693 225.02 C 133.213 214.785 132.657 206.167 132.025 199.12 C 132 196.163 131.925 193.207 131.825 190.22 C 131.699 186.606 131.597 182.992 131.471 179.379 C 131.827 179.439 132.192 179.377 132.508 179.202 C 132.894 179.057 133.222 178.791 133.443 178.444 C 133.554 178.309 133.654 178.165 133.743 178.015 C 136.204 175.253 137.842 171.856 138.469 168.21 C 139.513 164.882 140.125 161.434 140.289 157.95 C 141.587 157.431 142.831 156.788 144.004 156.029 L 144.004 156.129 Z M 140.181 157.999 C 139.498 161.436 138.816 164.999 138.081 168.663 C 138.031 168.853 137.998 169.048 137.981 169.244 C 137.184 171.58 136.142 173.826 134.873 175.944 C 133.91 177.143 132.757 178.176 131.461 179.002 C 131.385 176.652 131.284 174.302 131.208 171.951 C 131.177 171.862 131.159 171.768 131.157 171.673 C 131.306 171.777 131.467 171.862 131.637 171.926 C 132.117 172.077 132.421 171.926 132.547 171.496 C 133.229 168.235 134.165 165.033 135.347 161.918 C 134.11 163.103 133.33 164.688 133.147 166.391 C 132.909 168.084 132.511 169.751 131.959 171.369 C 131.697 171.161 131.418 170.975 131.125 170.813 C 130.948 167.048 130.771 163.282 130.594 159.542 L 130.594 159.517 C 130.671 159.513 130.748 159.521 130.822 159.542 C 130.847 160.199 130.898 160.881 130.974 161.564 C 130.974 161.387 130.949 160.704 130.874 159.542 C 130.931 159.512 130.99 159.487 131.051 159.466 C 134.161 159.616 137.268 159.117 140.174 158.001 Z"
            fill="#000000"/>
        <path
            id="path_7"
            clip-path="url(#clip_path_7)"
            d="M 68.865 174.5 C 68.49 171.599 68.271 168.68 68.208 165.755 C 68.127 164.535 68.127 163.311 68.208 162.091 C 65.989 162.068 63.791 161.657 61.713 160.878 C 61.095 160.765 60.486 160.605 59.893 160.398 C 60.777 169.243 62.673 175.081 65.529 177.936 L 68.688 181.12 Q 68.802 178.164 68.988 175.282 L 68.588 175.054 C 68.159 175.585 67.552 175.635 66.718 175.206 C 65.688 171.549 65.036 167.796 64.772 164.006 C 64.747 163.88 64.823 163.806 64.972 163.829 C 65.535 167.446 66.285 171.03 67.221 174.569 C 67.218 174.624 67.236 174.679 67.272 174.721 C 67.798 174.617 68.33 174.541 68.864 174.494 Z"
            fill="#fde7b5"/>
        <path
            id="path_8"
            clip-path="url(#clip_path_8)"
            d="M 130.831 159.54 L 130.603 159.54 C 130.78 163.28 130.957 167.046 131.134 170.811 C 131.427 170.973 131.706 171.159 131.968 171.367 C 132.52 169.749 132.918 168.082 133.156 166.389 C 133.339 164.686 134.119 163.101 135.356 161.916 C 134.174 165.031 133.238 168.233 132.556 171.494 C 132.43 171.924 132.126 172.075 131.646 171.924 L 131.217 171.949 C 131.293 174.299 131.394 176.649 131.469 179 C 132.765 178.174 133.918 177.141 134.881 175.942 C 136.15 173.824 137.192 171.578 137.989 169.242 C 138.006 169.046 138.039 168.851 138.089 168.661 C 138.822 164.997 139.504 161.433 140.189 157.997 C 137.281 159.115 134.172 159.614 131.06 159.464 C 130.999 159.485 130.94 159.51 130.883 159.54 C 130.959 160.702 130.983 161.385 130.983 161.562 C 130.907 160.879 130.857 160.197 130.831 159.54 Z"
            fill="#fde7b5"/>
        <path
            id="path_9"
            clip-path="url(#clip_path_9)"
            d="M 82.486 145.11 C 82.612 146.652 82.815 148.168 83.093 149.71 C 83.433 151.745 83.88 153.762 84.432 155.75 C 84.508 155.978 84.558 156.205 84.632 156.433 C 87.179 165.695 90.267 174.8 93.881 183.701 C 96.078 189.208 99.613 194.082 104.167 197.879 Q 110.194 202.92 115.337 198.132 C 110.864 200.732 106.846 200.052 103.237 196.032 C 97.63 189.767 93.395 182.398 90.805 174.4 Q 86.066 159.729 82.49 145.11 Z"
            fill="#000000"/>
        <path
            id="path_10"
            clip-path="url(#clip_path_10)"
            d="M 128 195.35 L 127.949 197.599 C 128 197.299 128.049 196.993 128.126 196.689 C 128.588 194.776 128.562 192.777 128.05 190.877 C 128.05 192.368 128.025 193.859 127.999 195.35 Z"
            fill="#75ccf0"/>
        <path
            id="path_11"
            clip-path="url(#clip_path_11)"
            d="M 98.659 243.745 C 98.659 244.579 98.71 245.488 98.785 246.525 C 99.215 253.019 99.796 259.464 100.579 265.832 C 101.009 269.496 101.514 273.111 102.07 276.724 C 102.125 275.815 102.116 274.903 102.045 273.995 C 101.817 270.558 101.514 267.146 101.185 263.735 Q 100.2 253.689 98.658 243.745 Z"
            fill="#000000"/>
        <path
            id="path_12"
            clip-path="url(#clip_path_12)"
            d="M 69.724 162.092 L 69.345 162.092 C 69.396 163.735 69.445 165.352 69.522 166.992 L 69.522 167.017 L 69.85 166.966 C 69.774 165.324 69.75 163.706 69.724 162.089 Z"
            fill="#75ccf0"/>
        <path
            id="path_13"
            clip-path="url(#clip_path_13)"
            d="M 106.216 225.196 L 106.166 225.196 L 106.166 225.247 L 106.216 225.196 Z"
            fill="#47baeb"/>
        <path
            id="path_14"
            clip-path="url(#clip_path_14)"
            d="M 83.269 191.863 Q 83.799 194.516 84.558 197.094 C 86.991 205.575 91.175 213.453 96.84 220.217 C 99.519 223.477 102.602 225.117 106.09 225.195 L 106.216 225.195 L 108.116 225.044 L 108.192 225.044 C 108.202 225.034 108.214 225.027 108.227 225.023 C 108.24 225.019 108.254 225.017 108.268 225.019 C 107.439 225.046 106.61 224.995 105.791 224.867 C 103.653 224.468 101.662 223.499 100.029 222.062 C 95.732 218.369 92.32 213.757 90.047 208.567 C 87.544 202.917 85.441 197.099 83.754 191.154 C 82.667 187.389 81.783 183.573 81.075 179.706 C 81.707 183.648 82.44 187.692 83.275 191.862 Z"
            fill="#000000"/>
        <path
            id="path_15"
            clip-path="url(#clip_path_15)"
            d="M 127.392 176.194 C 127.211 177.568 127.16 178.956 127.24 180.339 C 127.366 183.371 127.44 186.404 127.44 189.439 C 127.415 189.725 127.415 190.012 127.44 190.298 C 127.415 190.44 127.415 190.586 127.44 190.728 L 127.086 201.645 C 127.061 201.873 127.061 202.125 127.035 202.353 L 127.035 202.403 C 126.858 205.003 126.656 207.584 126.403 210.161 C 125.94 214.958 125.121 219.714 123.952 224.389 C 122.541 229.964 120.613 235.395 118.192 240.612 C 119.269 239.406 120.109 238.009 120.669 236.493 C 120.745 236.317 120.821 236.114 120.897 235.937 C 120.973 235.737 121.023 235.537 121.097 235.356 C 121.171 235.175 121.223 235.003 121.297 234.826 C 121.752 233.537 122.181 232.274 122.586 231.01 C 122.939 229.873 123.293 228.761 123.622 227.624 C 125.572 220.799 126.842 213.799 127.413 206.724 C 127.666 203.666 127.842 200.634 127.943 197.601 L 127.994 195.352 C 128.019 193.861 128.045 192.37 128.045 190.879 C 128.02 185.979 127.817 181.073 127.388 176.196 Z"
            fill="#000000"/>
        <path
            id="path_16"
            clip-path="url(#clip_path_16)"
            d="M 126.407 210.159 C 126.66 207.581 126.862 205.004 127.039 202.401 Q 125.712 209.718 124.79 217.109 Q 124.335 220.748 123.956 224.387 C 125.125 219.712 125.944 214.956 126.407 210.159 Z"
            fill="#eb4ce0"/>
        <path
            id="path_17"
            clip-path="url(#clip_path_17)"
            d="M 106.166 225.196 L 106.09 225.196 C 106.115 225.221 106.141 225.221 106.166 225.247 L 106.166 225.196 Z"
            fill="#75ccf0"/>
        <path
            id="path_18"
            clip-path="url(#clip_path_18)"
            d="M 124.159 102.401 C 123.123 104.094 122.087 105.787 121.101 107.501 C 120.549 108.434 119.838 109.263 119.001 109.952 C 118.622 110.252 118.268 110.533 117.889 110.786 C 117.589 111.186 117.106 111.847 116.423 112.732 C 114.251 115.506 112.653 118.685 111.723 122.083 C 110.925 125.216 109.458 128.138 107.423 130.65 C 104.626 134.138 102.091 137.83 99.841 141.694 C 100.371 140.355 99.512 138.029 97.289 134.719 C 95.534 131.97 93.455 129.442 91.097 127.188 C 89.239 125.506 87.736 123.469 86.675 121.199 C 86.063 119.872 85.091 118.742 83.87 117.939 C 81.823 116.726 79.751 115.462 77.653 114.123 C 76.069 113.132 74.66 111.885 73.483 110.433 C 73.256 112.682 73.028 114.957 72.826 117.206 Q 75.745 109.056 77.526 120.769 Q 79.307 132.482 80.18 136.463 C 81.14 140.835 82.101 145.232 83.086 149.705 C 82.808 148.163 82.606 146.647 82.479 145.105 Q 86.042 159.737 90.794 174.395 C 93.184 181.704 96.933 188.497 101.843 194.415 L 121.328 194.415 C 121.589 193.334 121.775 192.236 121.884 191.129 C 122.112 188.855 123.784 182.284 126.837 171.443 C 126.711 182.487 126.913 188.501 127.444 189.437 C 127.444 186.404 127.368 183.371 127.244 180.337 C 127.164 178.954 127.215 177.566 127.396 176.192 C 127.825 181.069 128.028 185.972 128.053 190.875 C 128.391 192.022 128.519 193.22 128.432 194.413 L 131.565 194.413 C 131.489 191.713 131.389 188.929 131.313 186.124 C 130.959 175.535 130.529 166.311 129.999 158.502 Q 129.165 146.751 128.735 139.17 C 128.435 136.618 128.128 134.04 127.8 131.487 Q 125.98 116.74 124.161 102.399 Z M 124.892 118.448 C 125.266 119.059 125.468 119.759 125.477 120.475 C 125.486 121.192 125.302 121.897 124.943 122.517 Q 128.089 143.366 127.268 151.428 C 126.089 162.803 124.258 174.102 121.784 185.267 Q 119.396 195.995 109.684 192.318 C 106.746 191.23 104.112 189.453 102.001 187.138 C 100.889 185.9 101.016 184.863 102.401 184.004 C 103.892 183.069 105.434 182.159 107.026 181.249 C 109.949 179.64 112.468 177.386 114.39 174.658 C 116.312 171.93 117.587 168.8 118.119 165.506 Q 120.052 155.195 121.91 135.837 Q 123.768 116.479 124.892 118.45 Z M 112.104 142.658 C 114.252 140.004 115.237 136.441 115.086 131.993 Q 119.446 136.315 118.169 144.073 C 116.823 152.227 114.837 160.263 112.23 168.106 Q 108.63 179.023 100.63 172.68 Q 98.697 171.126 92.139 155.773 C 87.767 145.513 85.644 138.108 85.821 133.559 Q 86.086 126.698 90.243 130.83 C 92.8 133.267 94.793 136.234 96.081 139.523 C 98.381 145.664 101.081 148.368 104.193 147.686 C 107.333 146.98 110.132 145.201 112.103 142.657 Z M 109.324 177.204 C 113.407 167.612 116.293 157.554 117.916 147.257 C 118.649 142.784 119.357 138.387 119.989 134.015 C 119.605 144.207 117.837 154.3 114.732 164.015 C 113.286 168.55 111.478 172.962 109.324 177.207 Z"
            fill="#eb4ce0"/>
        <path
            id="path_19"
            clip-path="url(#clip_path_19)"
            d="M 69.519 166.995 C 69.443 165.353 69.393 163.735 69.342 162.095 L 68.558 162.095 L 68.558 162.221 C 69.019 166.433 69.213 170.67 69.139 174.907 C 69.265 177.232 69.367 179.557 69.439 181.857 L 69.666 182.11 L 69.439 181.958 C 69.59 186.102 69.639 190.247 69.615 194.417 L 70.196 194.417 Q 70.044 180.694 69.514 167.022 L 69.514 166.997 Z"
            fill="#eb4ce0"/>
        <path
            id="path_20"
            clip-path="url(#clip_path_20)"
            d="M 83.32 185.469 C 83.396 187.369 83.547 189.26 83.749 191.155 C 84.049 192.242 84.381 193.329 84.71 194.415 L 87.01 194.415 C 85.671 191.458 84.432 188.476 83.32 185.469 Z"
            fill="#eb4ce0"/>
        <path
            id="path_21"
            clip-path="url(#clip_path_21)"
            d="M 93.883 183.7 C 90.269 174.799 87.181 165.694 84.634 156.432 C 87.679 169.219 91.52 181.804 96.134 194.112 C 96.165 194.216 96.208 194.317 96.26 194.412 L 100.582 194.412 C 97.717 191.276 95.447 187.645 93.882 183.697 Z"
            fill="#eb4ce0"/>
        <path
            id="path_22"
            clip-path="url(#clip_path_22)"
            d="M 100.58 194.415 L 96.258 194.415 Q 98.95 202.034 91.482 201.162 C 91.061 201.109 90.662 200.946 90.324 200.689 C 89.987 200.431 89.724 200.089 89.562 199.697 C 88.677 197.953 87.818 196.184 87.01 194.415 L 84.71 194.415 C 86.222 199.228 88.002 203.953 90.042 208.567 C 92.315 213.757 95.727 218.369 100.024 222.062 C 101.657 223.499 103.648 224.468 105.786 224.867 C 102.148 220.852 99.599 215.97 98.386 210.69 C 97.577 207.253 98.739 204.852 101.848 203.513 C 103.766 202.661 105.883 202.355 107.964 202.628 C 115.217 203.563 119.664 200.809 121.333 194.415 L 101.843 194.415 C 102.298 194.945 102.753 195.502 103.233 196.032 C 106.847 200.05 110.865 200.732 115.333 198.132 Q 110.178 202.908 104.163 197.879 C 102.882 196.816 101.682 195.659 100.574 194.417 Z"
            fill="#eb4ce0"/>
        <path
            id="path_23"
            clip-path="url(#clip_path_23)"
            d="M 70.204 194.415 L 69.623 194.415 C 69.572 197.827 69.472 201.263 69.323 204.675 Q 68.602 220.028 68.514 235.456 Q 68.476 248.913 68.792 262.244 C 68.843 264.544 68.868 266.818 68.892 269.118 C 68.892 269.218 68.867 269.295 68.816 269.318 C 69.237 274.135 69.255 278.979 68.867 283.799 C 68.854 283.827 68.848 283.857 68.848 283.887 C 68.848 283.918 68.854 283.948 68.867 283.976 Q 73.567 286.44 83.297 286.25 L 83.348 286.199 Q 89.948 285.138 97.121 283.975 C 97.294 283.959 97.459 283.898 97.601 283.798 C 97.829 283.924 97.955 284.076 97.93 284.228 C 99.279 284.042 100.65 284.11 101.974 284.428 C 104.021 284.933 106.043 285.338 108.064 285.666 C 108.089 285.666 108.317 285.691 108.771 285.717 L 108.771 285.767 C 110.363 285.967 111.955 286.121 113.571 286.247 C 114.026 286.298 114.531 286.347 115.062 286.424 L 115.112 286.324 C 121.887 286.569 128.656 285.707 135.153 283.772 C 134.875 281.295 134.723 277.1 134.647 271.161 Q 134.306 244.967 133.409 231.03 Q 132.461 217.042 132.171 211.975 C 132.095 210.964 132.045 210.004 131.994 209.094 C 131.868 204.368 131.716 199.494 131.564 194.411 L 128.431 194.411 C 128.402 195.177 128.302 195.938 128.131 196.685 C 128.055 196.985 128.005 197.291 127.954 197.595 C 127.854 200.628 127.676 203.66 127.424 206.718 C 126.853 213.793 125.583 220.793 123.633 227.618 C 123.304 230.954 123.001 234.29 122.748 237.601 C 122.731 237.787 122.739 237.974 122.773 238.157 Q 133.198 196.8 131.542 227.543 Q 129.886 258.286 127.903 268.913 C 126.982 274.18 124.468 279.041 120.703 282.838 C 120.342 283.198 119.875 283.434 119.371 283.511 C 118.866 283.589 118.35 283.503 117.898 283.267 Q 109.748 280.083 108.067 270.96 Q 106.247 261.066 105.367 250.92 C 105.291 250.187 105.267 249.454 105.241 248.747 Q 103.341 256.404 101.197 263.733 C 101.526 267.145 101.829 270.556 102.057 273.993 C 102.128 274.901 102.137 275.813 102.082 276.722 C 101.526 273.108 101.021 269.494 100.591 265.83 C 100.313 266.715 100.06 267.574 99.782 268.458 Q 96.143 280.172 94.753 279.275 C 92.21 277.637 90.281 275.201 89.269 272.35 C 82.884 255.534 79.435 237.746 79.072 219.763 C 79.047 219.283 79.047 218.777 79.047 218.272 C 79.022 218.752 79.022 219.257 79.022 219.738 C 78.922 223.655 78.822 227.547 78.744 231.464 C 79.144 235.432 79.477 239.45 79.755 243.464 C 80.438 253.656 80.362 263.884 79.528 274.064 Q 79.755 259.431 78.972 244.597 C 78.846 242.297 78.719 240.023 78.572 237.748 Q 78.231 250.748 77.839 263.748 C 77.731 267.224 77.308 270.684 76.575 274.084 Q 75.741 277.984 73.088 274.69 C 72.01 273.311 71.375 271.637 71.268 269.89 C 70.1 255.618 69.678 241.295 70.004 226.979 Q 70.383 210.641 70.204 194.404 Z"
            fill="#eb4ce0"/>
        <path
            id="path_24"
            clip-path="url(#clip_path_24)"
            d="M 119.989 134.016 C 119.357 138.388 118.65 142.785 117.916 147.258 C 116.293 157.555 113.407 167.613 109.324 177.205 C 111.478 172.96 113.286 168.548 114.732 164.013 C 117.837 154.298 119.605 144.205 119.989 134.013 Z"
            fill="#000000"/>
        <path
            id="path_25"
            clip-path="url(#clip_path_25)"
            d="M 124.942 122.518 C 125.301 121.898 125.485 121.193 125.476 120.476 C 125.467 119.76 125.265 119.06 124.891 118.449 Q 123.753 116.478 121.909 135.836 Q 120.065 155.194 118.118 165.505 C 117.587 168.8 116.311 171.93 114.389 174.658 C 112.467 177.386 109.948 179.64 107.024 181.249 C 105.432 182.159 103.89 183.069 102.399 184.004 C 101.009 184.863 100.883 185.904 101.999 187.138 C 104.11 189.453 106.744 191.23 109.682 192.318 Q 119.382 195.995 121.782 185.267 C 124.256 174.102 126.087 162.803 127.266 151.428 Q 128.066 143.353 124.941 122.517 Z"
            fill="#f759f3"/>
        <path
            id="path_26"
            clip-path="url(#clip_path_26)"
            d="M 118.17 144.074 Q 119.459 136.303 115.087 131.994 C 115.239 136.442 114.253 140.005 112.105 142.659 C 110.134 145.203 107.335 146.982 104.195 147.688 C 101.087 148.37 98.383 145.666 96.083 139.525 C 94.795 136.236 92.802 133.269 90.245 130.832 Q 86.075 126.7 85.823 133.561 C 85.646 138.11 87.769 145.514 92.141 155.775 Q 98.699 171.128 100.632 172.682 Q 108.632 179.013 112.232 168.108 C 114.839 160.265 116.825 152.229 118.171 144.075 Z"
            fill="#f759f3"/>
        <path
            id="path_27"
            clip-path="url(#clip_path_27)"
            d="M 72.832 117.21 C 72.809 117.248 72.8 117.292 72.807 117.336 L 71.215 135.455 C 71.089 136.896 70.987 138.336 70.886 139.777 Q 70.015 150.846 69.901 162.041 C 69.926 162.041 69.926 162.066 69.952 162.092 L 69.901 162.092 C 69.876 163.71 69.85 165.327 69.85 166.969 L 69.522 167.02 Q 70.697 196.93 70.002 226.99 C 69.676 241.306 70.098 255.629 71.266 269.901 C 71.373 271.648 72.008 273.322 73.086 274.701 Q 75.739 278.001 76.573 274.095 C 77.306 270.695 77.729 267.235 77.837 263.759 Q 78.216 250.759 78.57 237.759 C 78.17 231.315 77.66 224.921 77.054 218.528 C 76.978 217.795 76.902 217.037 76.826 216.304 C 76.851 216.43 76.851 216.532 76.877 216.633 C 76.902 216.709 76.902 216.81 76.928 216.886 C 77.004 217.467 77.08 218.023 77.18 218.605 L 77.18 218.705 C 77.58 221.586 77.964 224.492 78.292 227.398 C 78.443 228.737 78.592 230.098 78.747 231.466 C 78.823 227.549 78.924 223.657 79.025 219.74 C 79.025 219.26 79.025 218.755 79.05 218.274 C 79.05 218.78 79.05 219.285 79.075 219.765 C 79.434 237.749 82.879 255.538 89.26 272.355 C 90.272 275.206 92.201 277.642 94.744 279.28 Q 96.144 280.189 99.773 268.463 C 100.051 267.579 100.303 266.72 100.582 265.835 C 99.799 259.467 99.217 253.022 98.787 246.528 C 98.711 245.491 98.661 244.582 98.661 243.748 Q 100.216 253.68 101.188 263.738 Q 103.349 256.422 105.232 248.752 C 105.257 249.459 105.283 250.193 105.358 250.925 Q 106.23 261.084 108.058 270.965 Q 109.726 280.101 117.889 283.272 C 118.341 283.508 118.857 283.594 119.362 283.516 C 119.866 283.439 120.333 283.203 120.694 282.843 C 124.459 279.046 126.973 274.185 127.894 268.918 Q 129.865 258.303 131.533 227.548 Q 133.164 196.805 122.764 238.162 C 122.73 237.979 122.722 237.792 122.739 237.606 C 122.992 234.295 123.295 230.959 123.624 227.623 C 123.295 228.761 122.941 229.873 122.587 231.01 C 122.187 232.274 121.753 233.537 121.299 234.826 C 121.223 235.003 121.173 235.18 121.099 235.356 C 121.025 235.532 120.973 235.735 120.899 235.937 C 120.823 236.114 120.747 236.316 120.671 236.493 C 120.111 238.009 119.27 239.406 118.194 240.612 C 120.615 235.395 122.544 229.963 123.956 224.388 Q 124.335 220.749 124.79 217.11 Q 125.699 209.718 127.039 202.402 L 127.039 202.351 C 127.064 202.124 127.064 201.871 127.09 201.644 L 127.444 190.727 C 127.419 190.585 127.419 190.439 127.444 190.297 C 127.419 190.011 127.419 189.724 127.444 189.438 C 126.913 188.503 126.711 182.488 126.837 171.444 C 123.779 182.285 122.111 188.856 121.884 191.13 Q 120.557 204.246 107.959 202.63 C 105.878 202.357 103.761 202.663 101.843 203.515 C 98.734 204.854 97.572 207.255 98.381 210.692 C 99.594 215.973 102.143 220.855 105.781 224.87 C 106.6 224.998 107.429 225.049 108.258 225.022 C 108.244 225.02 108.23 225.022 108.217 225.026 C 108.204 225.03 108.192 225.037 108.182 225.047 L 108.106 225.047 L 106.206 225.198 L 106.155 225.249 C 107.436 226.635 108.831 227.912 110.325 229.065 C 110.202 229.414 109.961 229.709 109.643 229.899 C 109.264 230.127 107.293 229.545 103.679 228.105 C 102.151 225.748 100.287 223.628 98.145 221.812 C 90.819 215.454 85.995 206.687 84.545 197.096 Q 83.787 194.518 83.256 191.865 C 82.422 187.695 81.689 183.651 81.056 179.709 C 81.764 183.576 82.648 187.392 83.735 191.157 C 83.535 189.257 83.382 187.366 83.306 185.471 C 85.087 190.34 87.172 195.092 89.548 199.699 C 89.71 200.091 89.973 200.433 90.31 200.691 C 90.648 200.948 91.047 201.111 91.468 201.164 C 96.548 201.771 98.115 199.421 96.118 194.113 C 91.504 181.805 87.663 169.22 84.618 156.433 C 84.542 156.205 84.492 155.978 84.418 155.75 C 83.866 153.762 83.419 151.745 83.079 149.71 C 82.094 145.237 81.133 140.84 80.173 136.468 Q 79.302 132.488 77.519 120.774 Q 75.736 109.06 72.819 117.211 Z"
            fill="#f759f3"/>
        <path
            id="path_28"
            clip-path="url(#clip_path_28)"
            d="M 109.653 229.897 C 109.971 229.708 110.212 229.412 110.335 229.063 C 108.841 227.91 107.446 226.634 106.166 225.247 C 106.141 225.222 106.115 225.222 106.09 225.196 C 102.602 225.12 99.519 223.478 96.84 220.217 C 91.175 213.453 86.991 205.575 84.558 197.094 C 86.008 206.685 90.832 215.452 98.158 221.81 C 100.3 223.626 102.164 225.746 103.692 228.103 C 107.306 229.544 109.277 230.125 109.656 229.898 Z"
            fill="#eb4ce0"/>
        <path
            id="path_29"
            clip-path="url(#clip_path_29)"
            d="M 76.876 216.629 C 76.851 216.529 76.851 216.429 76.825 216.3 C 76.901 217.033 76.977 217.791 77.053 218.524 C 77.659 224.918 78.165 231.312 78.569 237.755 C 78.721 240.03 78.847 242.304 78.969 244.604 Q 79.769 259.426 79.525 274.071 C 80.359 263.891 80.435 253.663 79.752 243.471 C 79.474 239.453 79.146 235.434 78.741 231.471 C 78.589 230.107 78.441 228.742 78.286 227.403 C 77.957 224.497 77.578 221.59 77.174 218.71 L 77.174 218.61 C 77.074 218.029 76.997 217.473 76.921 216.891 C 76.896 216.815 76.896 216.714 76.87 216.638 Z"
            fill="#000000"/>
        <path
            id="path_30"
            clip-path="url(#clip_path_30)"
            d="M 76.976 73.061 C 76.972 73.247 76.98 73.432 77.001 73.617 C 77.026 74.375 77.077 75.133 77.152 75.917 L 77.152 75.942 C 77.329 78.292 77.607 80.693 77.961 83.094 C 79.486 93.541 82.949 103.612 88.171 112.788 C 86.493 109.352 85.049 105.805 83.849 102.174 C 81.163 94.275 79.126 86.169 77.759 77.938 C 77.459 76.118 77.178 74.299 76.95 72.479 C 76.946 72.673 76.955 72.867 76.975 73.06 Z"
            fill="#000000"/>
        <path
            id="path_31"
            clip-path="url(#clip_path_31)"
            d="M 78.72 66.035 C 79.054 68.374 79.578 70.682 80.287 72.935 C 81.349 76.411 82.719 79.786 84.381 83.018 C 87.697 89.515 92.167 95.356 97.573 100.253 C 95.653 98.053 93.808 95.78 92.039 93.379 C 88.461 88.578 85.418 83.4 82.966 77.938 C 81.236 74.091 79.816 70.111 78.72 66.038 Z"
            fill="#000000"/>
        <path
            id="path_32"
            clip-path="url(#clip_path_32)"
            d="M 85.24 38.463 L 85.089 38.291 L 85.064 38.291 C 84.836 39.277 85.292 42.031 86.429 46.58 C 87.571 51.301 89.277 55.867 91.509 60.18 C 92.065 61.267 92.495 62.151 92.823 62.78 C 92.854 62.818 92.879 62.861 92.899 62.906 L 93.884 64.498 C 93.966 64.603 94.042 64.713 94.112 64.826 C 93.743 63.719 93.249 62.658 92.64 61.663 C 91.452 59.666 90.462 57.559 89.684 55.37 C 87.815 50.126 86.436 44.72 85.565 39.221 C 85.54 39.121 85.54 39.021 85.514 38.892 C 85.433 38.741 85.34 38.598 85.236 38.462 Z"
            fill="#d1eefa"/>
        <path
            id="path_33"
            clip-path="url(#clip_path_33)"
            d="M 104.046 7.834 C 103.678 6.453 102.874 5.227 101.754 4.34 C 100.634 3.452 99.257 2.949 97.829 2.906 C 97.729 2.931 97.629 2.957 97.551 2.982 C 94.444 4.455 91.733 6.647 89.641 9.376 C 87.286 12.362 86.011 16.061 86.027 19.864 C 86.01 20.202 86.116 20.534 86.327 20.799 C 86.412 20.675 86.505 20.557 86.605 20.445 L 86.905 20.117 C 86.949 20.053 87 19.993 87.057 19.94 C 90.405 16.331 94.913 14.005 99.794 13.369 C 100.652 13.295 101.516 13.416 102.321 13.723 C 101.443 13.722 100.565 13.773 99.693 13.875 C 101.221 14.159 102.706 14.634 104.115 15.29 C 104.899 12.863 104.872 10.245 104.039 7.834 Z"
            fill="#f7c7ff"/>
        <path
            id="path_34"
            clip-path="url(#clip_path_34)"
            d="M 78.392 52.666 C 78.367 52.59 78.367 52.54 78.341 52.466 C 78.265 52.238 78.215 52.011 78.141 51.784 C 78.192 52.011 78.241 52.264 78.318 52.517 C 78.545 53.452 78.798 54.463 79.051 55.499 C 79.43 57.015 79.86 58.481 80.34 59.921 L 86.076 71.647 C 86.126 71.737 86.186 71.822 86.253 71.9 L 86.253 71.925 C 89.027 75.989 92.392 79.618 96.235 82.691 C 96.044 82.454 95.833 82.234 95.603 82.034 C 93.927 80.505 92.38 78.84 90.978 77.056 C 87.31 72.392 84.221 67.301 81.778 61.893 C 81.778 61.868 81.778 61.868 81.753 61.842 C 80.708 59.483 79.788 57.07 78.998 54.614 C 78.77 53.982 78.568 53.325 78.392 52.668 Z"
            fill="#000000"/>
        <path
            id="path_35"
            clip-path="url(#clip_path_35)"
            d="M 110.664 11.094 C 111.543 13.752 112.179 16.484 112.564 19.256 C 112.905 21.055 112.998 22.891 112.842 24.715 C 112.766 24.915 112.362 24.315 111.629 22.87 C 110.05 19.572 107.405 16.901 104.123 15.288 C 102.713 14.633 101.225 14.159 99.696 13.877 C 100.568 13.775 101.446 13.724 102.324 13.725 C 101.519 13.418 100.655 13.297 99.797 13.371 C 94.916 14.007 90.408 16.333 87.06 19.942 C 87.003 19.995 86.952 20.055 86.908 20.119 L 86.608 20.447 C 86.508 20.559 86.415 20.677 86.33 20.801 C 85.062 22.467 84.15 24.376 83.651 26.409 C 83.525 24.018 83.525 21.622 83.651 19.231 L 83.651 19.055 L 83.777 17.008 C 83.853 15.896 83.977 14.784 84.131 13.672 L 84.207 13.065 C 84.156 13.065 84.131 13.116 84.107 13.191 C 83.244 17.354 82.862 21.602 82.97 25.852 C 83 28.13 83.263 30.4 83.753 32.625 C 84.133 37.277 84.842 41.897 85.876 46.449 C 87.172 51.934 89.159 57.233 91.789 62.218 C 92.562 63.683 93.485 65.063 94.544 66.337 C 95.198 67.104 95.9 67.83 96.644 68.51 C 96.973 68.788 97.276 69.066 97.604 69.319 C 97.983 69.597 98.337 69.849 98.716 70.102 L 98.54 69.925 C 99.933 70.826 101.57 71.278 103.229 71.219 C 104.887 71.161 106.488 70.594 107.814 69.597 Q 112.401 66.45 104.858 68.737 Q 98.186 70.708 93.89 64.492 L 92.905 62.9 C 92.885 62.855 92.86 62.812 92.829 62.774 C 92.5 62.142 92.071 61.258 91.515 60.174 C 89.283 55.861 87.577 51.295 86.435 46.574 C 85.298 42.025 84.843 39.274 85.07 38.285 L 85.095 38.285 L 85.247 38.462 C 85.351 38.598 85.444 38.741 85.525 38.892 C 85.904 39.473 86.485 40.51 87.294 41.95 C 89.074 45.275 91.789 48.008 95.103 49.81 C 93.468 48.767 92.009 47.471 90.782 45.969 C 90.099 44.984 90.099 44.705 90.833 45.186 C 91.66 45.8 92.54 46.342 93.461 46.804 C 94.931 47.561 96.521 48.057 98.161 48.269 C 99.323 48.118 100.233 47.991 100.916 47.89 C 102.706 47.53 104.385 46.75 105.816 45.616 C 109.653 42.815 112.248 38.623 113.044 33.94 C 113.602 31.668 113.832 29.327 113.727 26.99 C 113.551 21.562 112.519 16.196 110.669 11.09 Z M 112.459 35.077 C 112.333 35.355 112.231 35.658 112.105 35.961 C 111.565 37.388 110.887 38.759 110.083 40.055 C 108.915 42.077 107.316 43.817 105.398 45.149 C 103.48 46.482 101.292 47.374 98.989 47.763 C 94.629 47.316 90.616 45.173 87.819 41.799 C 85.568 38.084 84.21 33.896 83.851 29.567 Q 85.557 21.567 88.728 18.802 C 91.584 16.262 95.111 14.596 98.887 14.002 C 101.153 14.241 103.325 15.04 105.205 16.327 C 108.334 18.397 110.701 21.435 111.942 24.976 C 113.183 28.516 113.231 32.368 112.079 35.938 C 112.205 35.638 112.332 35.357 112.458 35.079 Z"
            fill="#000000"/>
        <path
            id="path_36"
            clip-path="url(#clip_path_36)"
            d="M 112.104 35.961 L 112.079 35.936 C 113.231 32.366 113.183 28.514 111.942 24.974 C 110.701 21.433 108.334 18.395 105.205 16.325 C 103.324 15.038 101.153 14.239 98.887 14 C 95.111 14.594 91.585 16.261 88.728 18.8 Q 85.544 21.567 83.851 29.565 C 84.21 33.894 85.568 38.082 87.819 41.797 C 90.616 45.171 94.629 47.314 98.989 47.761 C 101.292 47.372 103.48 46.48 105.398 45.147 C 107.316 43.815 108.915 42.075 110.083 40.053 C 110.887 38.757 111.565 37.386 112.105 35.959 Z"
            fill="#fde7b5"/>
        <path
            id="path_37"
            clip-path="url(#clip_path_37)"
            d="M 89.612 6.52 C 92.493 2.856 92.164 1.895 88.626 3.69 C 87.596 4.348 86.624 5.092 85.72 5.914 L 85.669 5.965 L 85.618 6.016 C 85.593 6.041 85.593 6.067 85.567 6.092 C 84.329 7.204 83.249 8.479 82.357 9.883 C 82.332 9.908 82.332 9.908 82.332 9.934 C 82.305 9.962 82.288 9.996 82.281 10.034 C 81.654 11.005 81.13 12.038 80.715 13.117 Q 80.222 14.596 79.805 16.15 L 79.729 16.45 C 78.618 21.792 78.152 27.247 78.34 32.7 C 78.34 33.079 78.34 33.458 78.315 33.837 C 78.624 36.986 79.225 40.099 80.109 43.137 C 80.134 43.263 80.185 43.389 80.209 43.516 L 79.274 40.61 Q 78.136 37.084 77.909 37.653 L 77.884 37.881 C 77.859 37.957 77.859 38.033 77.833 38.109 L 77.833 38.134 C 77.884 38.715 77.933 39.296 78.01 39.877 C 78.067 40.396 78.015 40.921 77.858 41.419 C 75.408 48.118 72.356 54.58 68.739 60.728 C 68.071 61.854 67.283 62.905 66.389 63.861 C 66.058 64.201 65.815 64.618 65.682 65.074 C 64.57 68.89 63.432 72.706 62.245 76.522 Q 58.568 88.539 67.577 96.411 C 68.235 96.97 68.813 97.616 69.296 98.332 C 71.077 100.987 73.28 103.334 75.816 105.281 C 75.933 105.395 76.078 105.477 76.237 105.517 C 76.395 105.556 76.562 105.553 76.719 105.507 C 76.876 105.462 77.018 105.375 77.13 105.256 C 79.33 103.234 80.061 100.505 79.303 97.094 C 77.525 89.245 76.568 81.233 76.447 73.187 C 76.529 73.418 76.595 73.654 76.647 73.894 C 76.799 74.577 76.976 75.233 77.153 75.916 C 77.077 75.132 77.027 74.374 77.001 73.616 C 76.98 73.431 76.972 73.246 76.976 73.06 C 76.956 72.867 76.947 72.673 76.951 72.479 C 77.179 74.299 77.456 76.118 77.76 77.938 C 78.795 81.01 80.213 83.94 81.981 86.657 C 82.309 87.137 82.638 87.188 82.966 86.857 C 83.468 86.359 83.855 85.757 84.099 85.093 C 84.343 84.43 84.44 83.721 84.381 83.016 C 82.719 79.784 81.349 76.409 80.287 72.933 C 79.578 70.68 79.054 68.372 78.72 66.033 C 79.816 70.106 81.236 74.086 82.966 77.933 C 82.258 75.733 81.576 73.533 80.944 71.333 C 81.475 72.117 81.955 72.9 82.435 73.708 C 82.916 74.592 83.683 75.287 84.609 75.679 C 87.06 76.791 87.742 75.879 86.656 72.979 C 86.53 72.625 86.378 72.271 86.256 71.918 L 86.256 71.893 C 86.189 71.815 86.129 71.73 86.079 71.64 L 80.339 59.919 C 79.859 58.478 79.429 57.013 79.05 55.497 C 78.797 54.461 78.544 53.45 78.317 52.515 C 78.241 52.262 78.191 52.01 78.14 51.782 C 78.216 52.01 78.266 52.237 78.34 52.464 C 78.365 52.54 78.365 52.59 78.391 52.664 C 78.567 53.321 78.77 53.978 78.997 54.61 C 79.787 57.066 80.707 59.479 81.752 61.838 C 81.021 59.758 80.637 57.572 80.615 55.368 C 81.697 57.878 83.026 60.274 84.583 62.52 C 86.82 65.837 90.204 68.214 94.083 69.192 Q 94.883 69.382 94.841 68.661 C 94.817 67.878 94.717 67.099 94.541 66.336 C 93.482 65.062 92.559 63.682 91.786 62.217 C 89.156 57.232 87.169 51.933 85.873 46.448 C 84.839 41.897 84.129 37.278 83.749 32.626 C 83.259 30.401 82.996 28.131 82.966 25.853 C 82.858 21.603 83.24 17.355 84.103 13.192 C 84.128 13.116 84.154 13.066 84.203 13.066 L 84.127 13.673 C 83.975 14.785 83.849 15.897 83.773 17.009 L 83.647 19.056 L 83.672 19.056 C 84.695 14.488 86.724 10.205 89.611 6.521 Z M 77.203 68.486 L 77.355 68.461 L 77.355 68.486 Q 77.241 68.524 77.203 68.486 Z"
            fill="#f7c7ff"/>
        <path
            id="path_38"
            clip-path="url(#clip_path_38)"
            d="M 77.356 68.461 L 77.204 68.486 Q 77.242 68.524 77.356 68.486 L 77.356 68.461 Z"
            fill="#f6b5fe"/>
        <path
            id="path_39"
            clip-path="url(#clip_path_39)"
            d="M 83.673 19.055 L 83.648 19.055 L 83.648 19.231 C 83.642 19.171 83.651 19.111 83.673 19.055 Z"
            fill="#e8f8fd"/>
        <path
            id="path_40"
            clip-path="url(#clip_path_40)"
            d="M 72.024 108.974 C 71.898 108.747 71.771 108.519 71.645 108.267 C 71.214 109.951 71.002 111.684 71.013 113.422 Q 71.013 121.422 70.735 129.292 Q 71.379 119.323 72.024 108.974 Z"
            fill="#eb4ce0"/>
        <path
            id="path_41"
            clip-path="url(#clip_path_41)"
            d="M 68.611 159.388 C 68.56 159.969 68.131 160.374 67.297 160.551 C 63.582 161.36 61.51 159.54 61.08 155.117 C 59.334 136.868 59.767 118.475 62.369 100.328 C 62.426 99.584 62.634 98.859 62.982 98.198 C 63.33 97.537 63.809 96.955 64.391 96.487 C 64.429 96.518 64.472 96.543 64.517 96.563 C 63.329 95.78 62.192 94.971 61.156 94.163 Q 59.45 108.795 57.972 123.908 C 56.961 134.041 56.582 144.228 56.835 154.408 C 56.799 155.253 56.943 156.095 57.257 156.88 C 57.571 157.665 58.048 158.374 58.657 158.961 C 61.825 160.64 65.357 161.517 68.943 161.513 C 69.095 161.513 69.322 161.033 69.625 160.047 C 69.55 155.978 69.575 151.682 69.725 147.184 C 69.397 151.278 69.043 155.347 68.613 159.391 Z"
            fill="#eb4ce0"/>
        <path
            id="path_42"
            clip-path="url(#clip_path_42)"
            d="M 104.043 7.834 C 104.876 10.245 104.903 12.863 104.119 15.29 C 107.401 16.903 110.046 19.574 111.625 22.872 C 112.358 24.312 112.762 24.919 112.838 24.717 C 112.994 22.893 112.901 21.057 112.56 19.258 C 112.175 16.486 111.539 13.754 110.66 11.096 C 112.51 16.202 113.542 21.568 113.718 26.996 C 113.823 29.333 113.593 31.674 113.035 33.946 C 112.239 38.629 109.644 42.821 105.807 45.622 C 105.064 46.205 104.259 46.705 103.407 47.113 L 105.907 47.113 L 106.741 46.128 C 107.196 45.547 107.676 44.991 108.207 44.435 C 108.414 44.201 108.704 44.057 109.016 44.035 C 112.579 40.32 113.565 40.396 112.024 44.263 C 111.645 45.223 111.215 46.183 110.786 47.118 L 111.443 47.118 C 112.097 45.442 112.654 43.729 113.111 41.988 C 113.136 41.912 113.162 41.888 113.237 41.912 C 112.924 43.674 112.493 45.413 111.948 47.118 L 123.931 47.118 Q 122.642 44.503 121.581 41.811 C 121.443 42.368 121.248 42.91 121 43.428 C 120.722 43.959 120.621 43.251 120.722 41.328 C 120.798 39.407 120.115 36.956 118.65 33.999 C 118.675 35.102 118.46 36.197 118.018 37.208 C 118.17 34.607 118.17 32 118.018 29.399 C 117.792 24.347 117.038 19.333 115.769 14.438 C 115.152 11.921 113.999 9.566 112.39 7.534 C 110.781 5.502 108.753 3.84 106.444 2.662 C 104.155 1.398 101.621 0.64 99.014 0.438 C 95.323 0.576 91.735 1.702 88.627 3.698 C 92.165 1.903 92.494 2.864 89.613 6.528 C 86.726 10.212 84.697 14.495 83.674 19.063 C 83.652 19.119 83.643 19.179 83.649 19.239 C 83.523 21.63 83.523 24.026 83.649 26.417 C 84.147 24.383 85.059 22.473 86.328 20.806 C 86.117 20.541 86.011 20.209 86.028 19.871 C 86.012 16.068 87.286 12.369 89.642 9.383 C 91.734 6.654 94.445 4.462 97.552 2.989 C 97.628 2.964 97.729 2.938 97.83 2.913 C 99.258 2.956 100.635 3.459 101.755 4.347 C 102.875 5.234 103.679 6.46 104.047 7.841 Z"
            fill="#f6b5fe"/>
        <path
            id="path_43"
            clip-path="url(#clip_path_43)"
            d="M 111.447 47.106 L 110.79 47.106 C 109.4 50.004 107.751 52.77 105.862 55.37 Q 101.995 60.677 95.045 57.417 C 94.317 57.086 93.658 56.623 93.099 56.052 C 90.445 53.474 90.041 51.099 91.886 48.952 C 92.114 48.674 92.467 48.652 92.947 48.927 Q 100.339 53.059 105.912 47.107 L 103.412 47.107 C 102.614 47.471 101.775 47.734 100.912 47.891 C 100.229 47.991 99.32 48.119 98.157 48.27 C 96.742 48.091 95.362 47.699 94.063 47.108 L 91.738 47.108 C 92.788 48.092 93.912 48.994 95.099 49.808 C 93.724 49.064 92.443 48.157 91.283 47.108 L 87.189 47.108 C 87.868 49.907 88.703 52.666 89.689 55.372 C 90.467 57.561 91.457 59.668 92.645 61.665 C 93.251 62.659 93.743 63.719 94.111 64.824 C 94.041 64.711 93.965 64.601 93.883 64.496 Q 98.167 70.712 104.851 68.741 Q 112.395 66.466 107.807 69.601 C 107.349 69.916 106.867 70.195 106.366 70.435 L 115.717 70.435 L 116.248 69.374 C 118.32 64.917 119.521 60.104 119.786 55.196 Q 119.9 53.149 120.165 51.254 C 120.552 56.712 119.777 62.191 117.891 67.327 C 117.505 68.409 117.014 69.45 116.425 70.436 L 116.855 70.436 C 117.739 68.336 119.079 64.876 120.873 60.024 C 120.848 60.252 120.797 60.504 120.773 60.782 Q 119.901 66.354 119.332 70.182 C 119.311 70.265 119.303 70.35 119.307 70.435 L 123.679 70.435 C 123.788 69.302 123.982 68.178 124.26 67.074 C 124.235 68.186 124.235 69.298 124.209 70.435 L 128.253 70.435 Q 127.836 65.356 127.04 60.427 C 126.95 60.087 126.955 59.729 127.054 59.392 C 127.154 59.054 127.344 58.751 127.605 58.515 C 127.865 58.278 128.186 58.118 128.531 58.052 C 131.339 61.557 133.318 65.653 134.318 70.031 C 134.343 70.157 134.394 70.309 134.418 70.431 L 136.209 70.431 C 136.083 70.031 135.981 69.622 135.88 69.243 C 134.701 65.071 132.802 61.137 130.269 57.618 C 127.86 54.3 125.738 50.783 123.926 47.105 L 111.953 47.105 C 110.92 50.309 109.385 53.329 107.404 56.051 C 104.472 60.019 102.173 61.788 100.504 61.409 C 99.623 61.238 98.76 60.984 97.926 60.651 C 100.032 60.513 102.069 59.839 103.843 58.694 C 105.616 57.549 107.068 55.969 108.06 54.106 C 109.366 51.862 110.498 49.522 111.446 47.106 Z M 111.624 49.706 C 111.643 49.659 111.674 49.618 111.714 49.587 C 111.754 49.556 111.802 49.536 111.852 49.529 C 113.752 50.944 114.152 53.093 113.04 55.948 C 112.147 58.248 111.118 60.493 109.957 62.67 Q 106.393 69.304 99.57 66.435 C 98.256 65.879 98.104 65.121 99.14 64.135 C 100.34 63.006 101.615 61.959 102.956 61.001 C 106.918 58.195 109.94 54.255 111.624 49.701 Z"
            fill="#f6b5fe"/>
        <path
            id="path_44"
            clip-path="url(#clip_path_44)"
            d="M 81.753 61.84 C 81.778 61.865 81.778 61.865 81.778 61.891 C 83.099 64.838 84.618 67.692 86.327 70.433 L 99.468 70.433 C 99.168 70.281 98.861 70.104 98.533 69.927 L 98.709 70.104 C 98.33 69.851 97.976 69.599 97.597 69.321 C 97.269 69.068 96.965 68.79 96.637 68.512 C 95.893 67.832 95.191 67.106 94.537 66.339 C 94.713 67.102 94.813 67.881 94.837 68.664 Q 94.875 69.385 94.079 69.195 C 90.2 68.217 86.816 65.84 84.579 62.523 C 83.022 60.277 81.693 57.881 80.611 55.371 C 80.633 57.575 81.017 59.761 81.748 61.841 Z"
            fill="#f6b5fe"/>
        <path
            id="path_45"
            clip-path="url(#clip_path_45)"
            d="M 95.602 82.032 C 95.832 82.232 96.043 82.452 96.234 82.689 C 92.391 79.616 89.026 75.987 86.252 71.923 C 86.378 72.276 86.53 72.63 86.652 72.984 C 87.739 75.89 87.052 76.8 84.605 75.684 C 83.679 75.292 82.912 74.597 82.431 73.713 C 81.951 72.904 81.471 72.121 80.94 71.338 C 81.572 73.538 82.254 75.738 82.962 77.938 C 85.414 83.4 88.457 88.578 92.035 93.379 C 92.119 93.511 92.212 93.638 92.313 93.758 L 94.487 93.758 L 94.259 93.303 C 92.781 90.314 92.185 86.965 92.54 83.649 C 92.565 83.422 92.717 83.349 92.995 83.473 C 95.334 84.426 97.788 85.065 100.295 85.373 C 100.402 85.399 100.515 85.382 100.609 85.326 C 100.704 85.27 100.773 85.179 100.801 85.073 C 99.866 83.355 100.22 82.243 101.913 81.763 C 102.899 81.485 103.859 81.207 104.845 80.954 C 107.223 80.37 109.449 79.285 111.375 77.773 C 113.301 76.261 114.883 74.356 116.015 72.185 C 116.331 71.623 116.61 71.04 116.849 70.441 L 116.419 70.441 C 115.107 72.545 113.336 74.325 111.239 75.647 C 110.401 76.177 109.492 76.586 108.539 76.86 C 106.587 77.39 104.542 77.485 102.549 77.138 C 104.576 77.273 106.609 76.981 108.516 76.28 C 110.423 75.579 112.161 74.485 113.618 73.069 C 114.435 72.293 115.141 71.409 115.718 70.441 L 106.367 70.441 C 105.292 70.965 104.112 71.237 102.917 71.237 C 101.722 71.237 100.542 70.965 99.467 70.441 L 86.327 70.441 C 87.759 72.728 89.311 74.939 90.977 77.062 C 92.379 78.846 93.926 80.511 95.602 82.04 Z"
            fill="#f6b5fe"/>
        <path
            id="path_46"
            clip-path="url(#clip_path_46)"
            d="M 136.209 70.432 L 134.419 70.432 C 135.412 74.768 135.921 79.201 135.935 83.649 C 135.96 85.266 135.473 86.849 134.545 88.173 C 134.295 88.546 133.956 88.852 133.56 89.064 C 133.163 89.275 132.72 89.386 132.271 89.386 C 129.771 91.105 128.581 90.422 128.682 87.339 C 128.834 82.714 128.758 78.115 128.482 73.539 L 128.254 70.431 L 124.209 70.431 C 123.981 78.252 123.196 86.047 121.859 93.757 L 126.859 93.757 C 127.087 89.208 127.112 84.609 126.959 79.984 C 126.955 79.956 126.96 79.928 126.972 79.903 C 126.985 79.878 127.005 79.858 127.03 79.845 C 127.055 79.833 127.083 79.828 127.111 79.832 C 127.587 84.461 127.595 89.126 127.136 93.757 L 134.515 93.757 C 135.349 93.252 136.158 92.721 136.941 92.14 C 136.914 92.032 136.896 91.922 136.89 91.811 C 136.915 91.911 136.941 92.011 136.966 92.14 C 137.911 91.41 138.807 90.616 139.645 89.765 C 139.705 89.713 139.746 89.642 139.76 89.564 C 139.774 89.485 139.76 89.404 139.721 89.335 C 139.199 87.428 138.819 85.485 138.584 83.522 L 138.584 83.622 C 138.14 79.17 137.346 74.759 136.209 70.432 Z"
            fill="#f6b5fe"/>
        <path
            id="path_47"
            clip-path="url(#clip_path_47)"
            d="M 123.527 72.024 Q 123.565 71.224 123.679 70.432 L 119.307 70.432 C 119.179 71.796 118.908 73.143 118.498 74.45 C 118.245 75.612 117.967 76.75 117.638 77.862 C 117.714 77.584 117.79 77.331 117.866 77.079 C 117.841 77.357 117.79 77.609 117.766 77.888 C 117.325 80.382 116.37 82.757 114.962 84.862 C 114.141 86.13 113.22 87.331 112.207 88.451 C 110.66 90.403 108.906 92.183 106.976 93.758 L 112.283 93.758 C 112.674 93.221 113.037 92.665 113.37 92.09 C 115.764 87.747 117.801 83.217 119.46 78.544 C 122.72 71.999 123.807 72.656 122.669 80.566 Q 121.608 87.996 120.85 93.758 L 121.406 93.758 C 122.503 86.557 123.212 79.302 123.529 72.025 Z"
            fill="#f6b5fe"/>
        <path
            id="path_48"
            clip-path="url(#clip_path_48)"
            d="M 77.861 41.421 C 78.018 40.923 78.07 40.398 78.013 39.879 C 77.937 39.298 77.887 38.717 77.836 38.135 C 77.29 40.933 76.327 43.634 74.98 46.146 C 74.803 46.475 74.651 46.778 74.5 47.106 L 75.637 47.106 C 76.42 45.206 77.178 43.315 77.861 41.42 Z"
            fill="#f6b5fe"/>
        <path
            id="path_49"
            clip-path="url(#clip_path_49)"
            d="M 75.637 47.106 L 74.5 47.106 C 72.781 50.417 70.911 53.879 68.864 57.543 Q 65.908 62.774 63.38 67.652 C 61.753 72.687 60.718 77.894 60.297 83.169 C 60.12 85.241 60.019 87.314 60.019 89.361 C 60.343 90.362 60.352 91.438 60.044 92.444 L 60.044 92.57 C 60.625 92.949 61.206 93.354 61.788 93.758 L 64.997 93.758 C 61.105 88.982 60.197 83.22 62.242 76.523 C 63.43 72.707 64.567 68.891 65.679 65.075 C 65.812 64.619 66.055 64.202 66.386 63.862 C 67.28 62.906 68.068 61.855 68.736 60.729 C 71.326 56.341 73.631 51.791 75.636 47.107 Z"
            fill="#f6b5fe"/>
        <path
            id="path_50"
            clip-path="url(#clip_path_50)"
            d="M 91.736 47.106 L 94.061 47.106 L 93.455 46.806 C 92.534 46.344 91.654 45.802 90.827 45.188 C 90.094 44.708 90.094 44.988 90.776 45.971 C 91.068 46.372 91.389 46.752 91.736 47.108 Z"
            fill="#f6b5fe"/>
        <path
            id="path_51"
            clip-path="url(#clip_path_51)"
            d="M 85.518 38.893 C 85.543 39.019 85.543 39.121 85.569 39.222 C 85.998 41.875 86.529 44.503 87.187 47.106 L 91.281 47.106 C 89.675 45.62 88.325 43.878 87.288 41.951 C 86.479 40.511 85.899 39.474 85.519 38.893 Z"
            fill="#f6b5fe"/>
        <path
            id="path_52"
            clip-path="url(#clip_path_52)"
            d="M 82.966 86.859 C 82.637 87.188 82.309 87.137 81.981 86.659 C 80.213 83.942 78.795 81.012 77.76 77.94 C 78.654 83.271 79.827 88.552 81.273 93.76 L 91.382 93.76 C 88.668 90.443 86.321 86.842 84.382 83.02 C 84.441 83.725 84.344 84.434 84.1 85.097 C 83.856 85.761 83.469 86.363 82.967 86.861 Z"
            fill="#f6b5fe"/>
        <path
            id="path_53"
            clip-path="url(#clip_path_53)"
            d="M 87.085 95.3 C 87.437 95.325 87.78 95.427 88.09 95.597 C 88.4 95.767 88.669 96.002 88.879 96.286 Q 94.3 102.996 103.057 100.254 C 106.752 99.143 109.989 96.863 112.281 93.759 L 106.974 93.759 C 105.434 94.98 103.813 96.095 102.122 97.095 C 102.055 97.143 101.976 97.169 101.894 97.171 C 103.437 96.114 104.921 94.975 106.34 93.757 L 105.304 93.757 C 103.695 94.581 102.011 95.251 100.275 95.757 C 97.621 96.54 95.701 95.857 94.488 93.757 L 92.314 93.757 C 94.007 96.007 95.751 98.18 97.571 100.252 C 95.354 98.238 93.284 96.068 91.379 93.757 L 81.272 93.757 Q 82.448 97.965 83.85 102.173 C 85.05 105.804 86.494 109.351 88.172 112.787 C 84.752 106.796 82.088 100.404 80.24 93.757 L 78.597 93.757 C 78.825 94.869 79.052 95.981 79.305 97.093 C 80.063 100.505 79.33 103.234 77.131 105.255 C 77.019 105.374 76.877 105.461 76.72 105.507 C 76.563 105.553 76.396 105.556 76.238 105.516 C 76.079 105.476 75.934 105.395 75.817 105.28 C 73.281 103.333 71.078 100.986 69.297 98.331 C 68.814 97.615 68.236 96.969 67.578 96.41 C 66.642 95.603 65.78 94.715 65 93.756 L 61.791 93.756 C 64.051 95.321 66.203 97.035 68.235 98.886 L 68.285 98.835 C 67.957 98.507 67.653 98.203 67.35 97.875 L 67.375 97.875 C 68.086 98.076 68.737 98.448 69.27 98.959 C 69.803 99.471 70.202 100.105 70.433 100.807 C 70.551 100.813 70.667 100.778 70.762 100.707 C 70.938 100.53 71.115 101.819 71.242 104.599 C 71.405 106.483 72.25 108.245 73.617 109.552 C 74.663 110.606 75.825 111.538 77.08 112.332 C 80.02 114.165 82.848 116.174 85.546 118.347 C 85.784 118.568 85.988 118.824 86.152 119.105 C 88.978 123.58 92.191 127.8 95.752 131.716 C 97.438 133.564 98.758 135.716 99.64 138.057 C 99.922 138.826 100.158 139.61 100.347 140.407 C 100.547 139.725 102.192 137.248 105.275 132.927 C 107.892 129.438 109.995 125.591 111.517 121.504 C 112.604 118.194 113.362 115.995 113.817 114.904 C 114.58 113.43 115.691 112.164 117.052 111.214 C 116.637 111.431 116.206 111.617 115.763 111.77 C 118.491 110.181 120.683 107.813 122.056 104.97 C 123.258 102.464 124.76 100.114 126.529 97.97 L 126.757 97.742 C 127.482 96.913 128.429 96.308 129.486 95.999 C 131.229 95.409 132.913 94.656 134.515 93.749 L 127.14 93.749 C 127.014 94.987 126.84 96.2 126.66 97.439 C 126.661 97.499 126.653 97.559 126.635 97.616 L 126.863 93.749 L 121.863 93.749 C 121.663 94.937 121.434 96.149 121.206 97.338 C 120.874 98.972 120.444 100.583 119.917 102.165 C 120.473 99.385 120.978 96.58 121.408 93.749 L 120.852 93.749 C 120.552 95.999 120.271 98.071 120.043 99.941 Q 119.095 107.485 112.512 115.66 C 111.984 116.315 111.62 117.086 111.45 117.909 C 109.875 124.812 106.764 131.273 102.35 136.809 C 102.15 137.087 101.92 137.062 101.642 136.784 C 99.696 134.535 97.75 132.284 95.804 129.984 C 93.353 127.078 90.826 124.196 88.248 121.392 C 86.302 119.244 86.1 117.348 87.641 115.655 C 87.784 115.504 87.972 115.402 88.176 115.366 C 88.381 115.33 88.592 115.361 88.778 115.455 C 89.374 115.675 89.993 115.827 90.623 115.91 C 86.779 110.532 84.791 104.044 84.962 97.436 C 84.987 95.92 85.695 95.212 87.085 95.288 Z"
            fill="#f6b5fe"/>
        <path
            id="path_54"
            clip-path="url(#clip_path_54)"
            d="M 77.153 75.916 C 76.977 75.233 76.8 74.577 76.648 73.894 C 76.596 73.654 76.53 73.418 76.448 73.187 C 76.546 80.095 77.265 86.979 78.596 93.758 L 80.239 93.758 C 79.246 90.257 78.486 86.695 77.965 83.094 C 77.611 80.694 77.333 78.294 77.156 75.942 L 77.156 75.917 Z"
            fill="#f6b5fe"/>
        <path
            id="path_55"
            clip-path="url(#clip_path_55)"
            d="M 105.306 93.757 L 106.342 93.757 C 107.05 93.125 107.732 92.493 108.364 91.857 C 107.386 92.555 106.365 93.189 105.306 93.757 Z"
            fill="#f6b5fe"/>
        <path
            id="path_56"
            clip-path="url(#clip_path_56)"
            d="M 113.242 41.9 C 113.166 41.875 113.142 41.9 113.116 41.976 C 111.985 46.229 110.285 50.309 108.062 54.107 C 107.07 55.97 105.618 57.55 103.845 58.695 C 102.071 59.84 100.034 60.514 97.928 60.652 C 98.762 60.985 99.625 61.239 100.506 61.41 C 102.174 61.789 104.474 60.02 107.406 56.052 C 110.423 51.851 112.421 47.006 113.244 41.9 Z"
            fill="#000000"/>
        <path
            id="path_57"
            clip-path="url(#clip_path_57)"
            d="M 117.886 67.324 C 119.772 62.188 120.547 56.709 120.16 51.251 Q 119.895 53.151 119.781 55.193 C 119.516 60.101 118.315 64.914 116.243 69.371 C 115.612 70.758 114.72 72.011 113.615 73.061 C 112.158 74.477 110.42 75.571 108.513 76.272 C 106.606 76.973 104.573 77.265 102.546 77.13 C 104.539 77.477 106.584 77.382 108.536 76.852 C 109.489 76.578 110.398 76.17 111.236 75.639 C 114.322 73.693 116.665 70.763 117.883 67.324 Z"
            fill="#000000"/>
        <path
            id="path_58"
            clip-path="url(#clip_path_58)"
            d="M 124.259 67.071 C 123.863 68.696 123.617 70.354 123.526 72.024 C 123.092 82.151 121.884 92.23 119.912 102.173 C 120.439 100.591 120.869 98.98 121.201 97.346 C 123.14 87.369 124.164 77.235 124.259 67.071 Z"
            fill="#000000"/>
        <path
            id="path_59"
            clip-path="url(#clip_path_59)"
            d="M 126.66 97.448 C 127.569 91.62 127.722 85.7 127.115 79.833 C 127.087 79.829 127.059 79.834 127.034 79.846 C 127.009 79.859 126.989 79.879 126.976 79.904 C 126.964 79.929 126.959 79.957 126.963 79.985 Q 127.228 88.894 126.634 97.625 C 126.652 97.568 126.66 97.509 126.659 97.449 Z"
            fill="#000000"/>
        <path
            id="path_60"
            clip-path="url(#clip_path_60)"
            d="M 112.029 44.252 C 113.571 40.385 112.585 40.31 109.021 44.024 C 108.709 44.046 108.419 44.19 108.212 44.424 C 107.681 44.98 107.201 45.536 106.746 46.117 Q 100.908 53.357 92.946 48.922 C 92.466 48.644 92.112 48.669 91.885 48.947 C 90.04 51.095 90.444 53.47 93.098 56.047 C 93.657 56.618 94.316 57.081 95.044 57.412 Q 101.982 60.672 105.861 55.365 C 108.365 51.928 110.437 48.195 112.029 44.252 Z"
            fill="#f7c7ff"/>
        <path
            id="path_61"
            clip-path="url(#clip_path_61)"
            d="M 111.852 49.532 C 111.802 49.539 111.754 49.559 111.714 49.59 C 111.674 49.621 111.643 49.662 111.624 49.709 C 109.94 54.263 106.918 58.203 102.956 61.009 C 101.615 61.967 100.34 63.014 99.14 64.143 C 98.104 65.128 98.256 65.887 99.57 66.443 Q 106.393 69.324 109.957 62.678 C 111.118 60.501 112.147 58.256 113.04 55.956 C 114.152 53.101 113.748 50.956 111.852 49.537 Z"
            fill="#f7c7ff"/>
        <path
            id="path_62"
            clip-path="url(#clip_path_62)"
            d="M 118.523 74.273 C 118.498 74.349 118.472 74.45 118.447 74.526 C 118.301 74.731 118.14 74.925 117.967 75.107 C 117.967 75.461 117.967 75.815 117.942 76.194 C 118.142 75.562 118.342 74.905 118.523 74.274 Z"
            fill="#f6b5fe"/>
        <path
            id="path_63"
            clip-path="url(#clip_path_63)"
            d="M 101.894 97.17 C 101.976 97.168 102.055 97.142 102.122 97.094 C 105.991 94.865 109.411 91.934 112.205 88.451 L 114.605 83.751 C 112.894 86.72 110.795 89.448 108.363 91.863 C 106.382 93.836 104.215 95.613 101.893 97.17 Z"
            fill="#000000"/>
        <path
            id="path_64"
            clip-path="url(#clip_path_64)"
            d="M 117.635 77.864 L 117.761 77.889 C 117.786 77.611 117.837 77.358 117.861 77.08 C 117.785 77.332 117.709 77.585 117.633 77.863 Z"
            fill="#e8f8fd"/>
        <path
            id="path_65"
            clip-path="url(#clip_path_65)"
            d="M 118.569 74.021 L 118.518 74.274 C 118.341 74.906 118.139 75.563 117.937 76.194 C 117.464 77.666 116.908 79.109 116.269 80.516 L 117.633 77.862 C 117.962 76.75 118.24 75.613 118.493 74.45 C 118.518 74.298 118.544 74.15 118.569 74.02 Z"
            fill="#000000"/>
        <path
            id="path_66"
            clip-path="url(#clip_path_66)"
            d="M 104.852 80.942 C 103.866 81.194 102.906 81.472 101.92 81.751 C 100.227 82.231 99.873 83.343 100.808 85.061 C 100.78 85.167 100.711 85.258 100.616 85.314 C 100.522 85.37 100.409 85.387 100.302 85.361 C 97.795 85.053 95.341 84.414 93.002 83.461 C 92.724 83.335 92.572 83.41 92.547 83.637 C 92.191 86.953 92.788 90.302 94.266 93.291 C 95.454 95.742 97.45 96.576 100.281 95.742 C 103.179 94.917 105.915 93.6 108.368 91.85 C 110.8 89.435 112.899 86.707 114.61 83.738 L 112.21 88.438 C 113.223 87.318 114.144 86.117 114.965 84.849 C 116.371 82.743 117.325 80.368 117.765 77.874 L 117.639 77.849 L 116.275 80.503 C 116.914 79.096 117.47 77.653 117.943 76.181 C 117.968 75.802 117.968 75.448 117.968 75.094 C 118.141 74.912 118.302 74.718 118.448 74.513 C 118.473 74.437 118.499 74.336 118.524 74.26 L 118.575 74.007 C 118.55 74.133 118.524 74.285 118.499 74.437 C 118.917 73.044 119.196 71.614 119.333 70.166 Q 119.902 66.337 120.774 60.766 C 120.799 60.488 120.85 60.235 120.874 60.008 C 118.423 66.655 116.805 70.723 116.022 72.164 C 114.89 74.335 113.308 76.241 111.382 77.753 C 109.456 79.265 107.23 80.349 104.852 80.934 Z"
            fill="#f7c7ff"/>
        <path
            id="path_67"
            clip-path="url(#clip_path_67)"
            d="M 87.089 95.299 C 85.699 95.223 84.989 95.931 84.966 97.447 C 84.796 104.055 86.783 110.542 90.627 115.92 C 89.997 115.837 89.378 115.685 88.782 115.465 C 88.596 115.371 88.385 115.34 88.18 115.376 C 87.976 115.412 87.788 115.514 87.645 115.665 C 86.103 117.358 86.306 119.254 88.252 121.402 C 90.83 124.202 93.352 127.088 95.808 129.994 C 97.754 132.294 99.7 134.543 101.646 136.794 C 101.924 137.072 102.152 137.094 102.354 136.819 C 106.768 131.283 109.879 124.822 111.454 117.919 C 111.624 117.096 111.988 116.325 112.515 115.67 Q 119.115 107.482 120.046 99.951 C 120.678 94.922 121.537 88.451 122.674 80.567 C 123.812 72.657 122.725 72 119.465 78.545 C 117.806 83.218 115.769 87.748 113.375 92.091 C 111.095 96.017 107.408 98.935 103.064 100.253 Q 94.308 102.983 88.886 96.285 C 88.676 96.001 88.406 95.766 88.097 95.596 C 87.787 95.426 87.444 95.325 87.092 95.3 Z"
            fill="#f7c7ff"/>
        <path
            id="path_68"
            clip-path="url(#clip_path_68)"
            d="M 134.318 70.028 C 133.318 65.65 131.339 61.554 128.531 58.049 C 128.186 58.115 127.865 58.275 127.605 58.512 C 127.344 58.748 127.154 59.051 127.054 59.389 C 126.955 59.726 126.95 60.084 127.04 60.424 Q 128.063 66.868 128.481 73.54 C 128.759 78.114 128.835 82.714 128.681 87.34 C 128.581 90.423 129.768 91.105 132.27 89.387 C 132.719 89.387 133.162 89.276 133.559 89.065 C 133.955 88.853 134.294 88.547 134.544 88.174 C 135.472 86.85 135.959 85.267 135.934 83.65 C 135.911 79.063 135.368 74.494 134.316 70.029 Z"
            fill="#f7c7ff"/>
        <path
            id="path_69"
            clip-path="url(#clip_path_69)"
            d="M 68.283 98.888 L 68.233 98.888 L 64.518 96.563 C 64.473 96.543 64.43 96.518 64.392 96.487 C 63.81 96.955 63.331 97.537 62.983 98.198 C 62.635 98.859 62.427 99.584 62.37 100.328 C 59.768 118.475 59.335 136.868 61.081 155.117 C 61.511 159.539 63.581 161.359 67.298 160.551 C 68.132 160.374 68.562 159.969 68.612 159.388 C 69.042 155.345 69.396 151.276 69.724 147.182 C 69.824 143.796 70.002 140.282 70.23 136.669 L 70.306 135.684 C 70.432 133.561 70.584 131.439 70.736 129.29 Q 71.001 121.405 71.014 113.42 C 71.003 111.682 71.215 109.949 71.646 108.265 C 70.876 106.303 70.432 104.229 70.332 102.124 C 70.306 101.707 70.212 101.298 70.054 100.911 C 69.473 100.228 68.892 99.546 68.285 98.889 Z"
            fill="#f759f3"/>
        <path
            id="path_70"
            clip-path="url(#clip_path_70)"
            d="M 130.603 157.746 C 130.657 157.94 130.733 158.126 130.831 158.302 C 130.907 158.327 130.957 158.327 131.031 158.353 C 130.871 158.163 130.727 157.961 130.601 157.747 Z"
            fill="#eb4ce0"/>
        <path
            id="path_71"
            clip-path="url(#clip_path_71)"
            d="M 135.329 113.623 C 135.304 108.543 133.864 104.576 131.008 101.669 C 130.298 101.884 129.654 102.278 129.141 102.813 C 128.627 103.349 128.26 104.008 128.076 104.727 C 127.056 108.088 126.704 111.617 127.04 115.114 C 127.47 119.739 127.823 124.338 128.101 128.963 L 128.152 128.963 Q 128.952 136.355 129.593 143.747 C 129.993 147.816 130.3 151.126 130.477 153.729 C 130.584 154.897 130.626 156.07 130.603 157.242 L 130.503 157.242 L 130.503 157.442 C 130.503 157.467 130.503 157.467 130.528 157.493 C 130.553 157.569 130.579 157.67 130.604 157.746 C 130.73 157.96 130.874 158.162 131.034 158.352 Q 131.603 158.466 132.247 158.58 L 135.937 158.504 C 138.868 151.907 139.552 144.527 137.883 137.504 C 136.215 129.652 135.36 121.649 135.331 113.622 Z"
            fill="#f759f3"/>
        <path
            id="path_72"
            clip-path="url(#clip_path_72)"
            d="M 128.024 97.397 C 127.286 97.697 126.665 98.229 126.255 98.913 C 125.926 99.419 125.623 99.924 125.32 100.455 Q 126.496 115.997 128.252 131.135 C 128.201 130.402 128.152 129.694 128.1 128.962 C 127.822 124.337 127.468 119.738 127.039 115.113 C 126.703 111.616 127.055 108.087 128.075 104.726 C 128.259 104.007 128.626 103.348 129.14 102.812 C 129.653 102.277 130.297 101.883 131.007 101.668 C 133.863 104.574 135.307 108.542 135.328 113.622 C 135.357 121.649 136.212 129.652 137.88 137.504 C 139.549 144.527 138.865 151.907 135.934 158.504 C 138.611 158.006 141.147 156.927 143.364 155.345 C 143.035 151.124 142.606 146.424 142.126 141.218 Q 140.686 126.018 138.613 110.841 Q 137.399 101.668 136.213 93.555 C 133.59 95.051 130.852 96.336 128.025 97.396 Z"
            fill="#eb4ce0"/>
        <path
            id="path_73"
            clip-path="url(#clip_path_73)"
            d="M 128.278 131.137 C 128.227 130.404 128.178 129.696 128.152 128.964 L 128.106 128.964 C 128.157 129.697 128.206 130.404 128.258 131.137 L 128.258 131.237 L 128.283 131.237 L 128.283 131.137 Z"
            fill="#75ccf0"/>
        <path
            id="path_74"
            clip-path="url(#clip_path_74)"
            d="M 77.179 294.441 C 77.963 296.341 78.973 297.322 80.237 297.347 C 81.501 297.372 83.118 297.423 85.114 297.499 C 86.756 297.503 88.384 297.812 89.914 298.409 C 91.102 298.94 92.014 298.889 92.694 298.209 C 93.115 296.771 93.411 295.298 93.578 293.809 C 93.558 293.838 93.549 293.874 93.553 293.909 C 92.603 293.102 91.478 292.526 90.268 292.228 C 89.058 291.93 87.794 291.917 86.578 292.19 C 83.382 292.91 80.042 292.646 77 291.432 C 76.76 292.43 76.821 293.477 77.176 294.44 Z"
            fill="#f7c7ff"/>
        <path
            id="path_75"
            clip-path="url(#clip_path_75)"
            d="M 77.002 291.433 C 80.044 292.647 83.384 292.911 86.58 292.191 C 87.796 291.918 89.06 291.931 90.27 292.229 C 91.48 292.528 92.605 293.103 93.555 293.91 C 93.551 293.875 93.56 293.839 93.58 293.81 L 93.58 293.684 C 93.713 290.915 93.362 288.144 92.543 285.496 C 91.886 285.622 90.875 285.774 89.536 285.896 C 86.095 286.766 82.544 287.124 78.998 286.958 C 78.064 288.314 77.386 289.831 76.998 291.431 Z"
            fill="#fae3ff"/>
        <path
            id="path_76"
            clip-path="url(#clip_path_76)"
            d="M 121.353 287.111 C 121.833 287.237 122.339 287.364 122.819 287.49 C 122.678 287.319 122.517 287.166 122.339 287.035 L 121.353 287.111 Z"
            fill="#f7c7ff"/>
        <path
            id="path_77"
            clip-path="url(#clip_path_77)"
            d="M 122.819 287.49 C 122.339 287.364 121.834 287.237 121.353 287.111 L 121.328 287.111 C 118.041 287.312 114.741 287.126 111.497 286.555 C 110.851 286.404 110.189 286.337 109.526 286.355 C 109.505 286.403 109.497 286.455 109.501 286.507 C 109.476 286.532 109.476 286.583 109.45 286.633 C 109.427 286.671 109.418 286.715 109.425 286.759 L 108.793 289.741 C 108.742 290.07 108.717 290.398 108.693 290.752 L 108.718 290.752 C 110.818 291.991 113.697 292.395 117.336 291.966 C 120.184 291.539 123.095 292.054 125.625 293.431 C 125.585 291.918 125.082 290.454 124.184 289.236 C 123.799 288.603 123.341 288.018 122.819 287.492 Z"
            fill="#fae3ff"/>
        <path
            id="path_78"
            clip-path="url(#clip_path_78)"
            d="M 117.335 291.964 C 113.696 292.393 110.815 291.989 108.717 290.751 C 108.571 293.076 108.863 295.408 109.576 297.625 C 110.764 299.141 112.305 299.344 114.15 298.257 C 116.05 297.069 118.95 296.715 122.869 297.145 C 124.613 296.185 125.548 294.945 125.624 293.43 C 123.094 292.053 120.183 291.538 117.335 291.965 Z"
            fill="#f7c7ff"/>
    </g>
</svg>
