<svg
    xmlns="http://www.w3.org/2000/svg"
    viewBox="0 0 200 300"
    id="vector">
    <defs>
        <clipPath id="clip_path">
            <path d="M 0 0 L 200 0 L 200 300 L 0 300 Z M 0 0"/>
        </clipPath>
        <clipPath id="clip_path_1">
            <path d="M 0 0 L 200 0 L 200 300 L 0 300 Z M 0 0"/>
        </clipPath>
        <clipPath id="clip_path_2">
            <path d="M 0 0 L 200 0 L 200 300 L 0 300 Z M 0 0"/>
        </clipPath>
        <clipPath id="clip_path_3">
            <path d="M 0 0 L 200 0 L 200 300 L 0 300 Z M 0 0"/>
        </clipPath>
        <clipPath id="clip_path_4">
            <path d="M 0 0 L 200 0 L 200 300 L 0 300 Z M 0 0"/>
        </clipPath>
        <clipPath id="clip_path_5">
            <path d="M 0 0 L 200 0 L 200 300 L 0 300 Z M 0 0"/>
        </clipPath>
        <clipPath id="clip_path_6">
            <path d="M 0 0 L 200 0 L 200 300 L 0 300 Z M 0 0"/>
        </clipPath>
        <clipPath id="clip_path_7">
            <path d="M 0 0 L 200 0 L 200 300 L 0 300 Z M 0 0"/>
        </clipPath>
        <clipPath id="clip_path_8">
            <path d="M 0 0 L 200 0 L 200 300 L 0 300 Z M 0 0"/>
        </clipPath>
        <clipPath id="clip_path_9">
            <path d="M 0 0 L 200 0 L 200 300 L 0 300 Z M 0 0"/>
        </clipPath>
        <clipPath id="clip_path_10">
            <path d="M 0 0 L 200 0 L 200 300 L 0 300 Z M 0 0"/>
        </clipPath>
        <clipPath id="clip_path_11">
            <path d="M 0 0 L 200 0 L 200 300 L 0 300 Z M 0 0"/>
        </clipPath>
        <clipPath id="clip_path_12">
            <path d="M 0 0 L 200 0 L 200 300 L 0 300 Z M 0 0"/>
        </clipPath>
        <clipPath id="clip_path_13">
            <path d="M 0 0 L 200 0 L 200 300 L 0 300 Z M 0 0"/>
        </clipPath>
        <clipPath id="clip_path_14">
            <path d="M 0 0 L 200 0 L 200 300 L 0 300 Z M 0 0"/>
        </clipPath>
        <clipPath id="clip_path_15">
            <path d="M 0 0 L 200 0 L 200 300 L 0 300 Z M 0 0"/>
        </clipPath>
        <clipPath id="clip_path_16">
            <path d="M 0 0 L 200 0 L 200 300 L 0 300 Z M 0 0"/>
        </clipPath>
        <clipPath id="clip_path_17">
            <path d="M 0 0 L 200 0 L 200 300 L 0 300 Z M 0 0"/>
        </clipPath>
        <clipPath id="clip_path_18">
            <path d="M 0 0 L 200 0 L 200 300 L 0 300 Z M 0 0"/>
        </clipPath>
        <clipPath id="clip_path_19">
            <path d="M 0 0 L 200 0 L 200 300 L 0 300 Z M 0 0"/>
        </clipPath>
        <clipPath id="clip_path_20">
            <path d="M 0 0 L 200 0 L 200 300 L 0 300 Z M 0 0"/>
        </clipPath>
        <clipPath id="clip_path_21">
            <path d="M 0 0 L 200 0 L 200 300 L 0 300 Z M 0 0"/>
        </clipPath>
        <clipPath id="clip_path_22">
            <path d="M 0 0 L 200 0 L 200 300 L 0 300 Z M 0 0"/>
        </clipPath>
        <clipPath id="clip_path_23">
            <path d="M 0 0 L 200 0 L 200 300 L 0 300 Z M 0 0"/>
        </clipPath>
        <clipPath id="clip_path_24">
            <path d="M 0 0 L 200 0 L 200 300 L 0 300 Z M 0 0"/>
        </clipPath>
        <clipPath id="clip_path_25">
            <path d="M 0 0 L 200 0 L 200 300 L 0 300 Z M 0 0"/>
        </clipPath>
        <clipPath id="clip_path_26">
            <path d="M 0 0 L 200 0 L 200 300 L 0 300 Z M 0 0"/>
        </clipPath>
        <clipPath id="clip_path_27">
            <path d="M 0 0 L 200 0 L 200 300 L 0 300 Z M 0 0"/>
        </clipPath>
        <clipPath id="clip_path_28">
            <path d="M 0 0 L 200 0 L 200 300 L 0 300 Z M 0 0"/>
        </clipPath>
        <clipPath id="clip_path_29">
            <path d="M 0 0 L 200 0 L 200 300 L 0 300 Z M 0 0"/>
        </clipPath>
        <clipPath id="clip_path_30">
            <path d="M 0 0 L 200 0 L 200 300 L 0 300 Z M 0 0"/>
        </clipPath>
        <clipPath id="clip_path_31">
            <path d="M 0 0 L 200 0 L 200 300 L 0 300 Z M 0 0"/>
        </clipPath>
        <clipPath id="clip_path_32">
            <path d="M 0 0 L 200 0 L 200 300 L 0 300 Z M 0 0"/>
        </clipPath>
        <clipPath id="clip_path_33">
            <path d="M 0 0 L 200 0 L 200 300 L 0 300 Z M 0 0"/>
        </clipPath>
        <clipPath id="clip_path_34">
            <path d="M 0 0 L 200 0 L 200 300 L 0 300 Z M 0 0"/>
        </clipPath>
        <clipPath id="clip_path_35">
            <path d="M 0 0 L 200 0 L 200 300 L 0 300 Z M 0 0"/>
        </clipPath>
        <clipPath id="clip_path_36">
            <path d="M 0 0 L 200 0 L 200 300 L 0 300 Z M 0 0"/>
        </clipPath>
        <clipPath id="clip_path_37">
            <path d="M 0 0 L 200 0 L 200 300 L 0 300 Z M 0 0"/>
        </clipPath>
        <clipPath id="clip_path_38">
            <path d="M 0 0 L 200 0 L 200 300 L 0 300 Z M 0 0"/>
        </clipPath>
        <clipPath id="clip_path_39">
            <path d="M 0 0 L 200 0 L 200 300 L 0 300 Z M 0 0"/>
        </clipPath>
        <clipPath id="clip_path_40">
            <path d="M 0 0 L 200 0 L 200 300 L 0 300 Z M 0 0"/>
        </clipPath>
        <clipPath id="clip_path_41">
            <path d="M 0 0 L 200 0 L 200 300 L 0 300 Z M 0 0"/>
        </clipPath>
        <clipPath id="clip_path_42">
            <path d="M 0 0 L 200 0 L 200 300 L 0 300 Z M 0 0"/>
        </clipPath>
        <clipPath id="clip_path_43">
            <path d="M 0 0 L 200 0 L 200 300 L 0 300 Z M 0 0"/>
        </clipPath>
        <clipPath id="clip_path_44">
            <path d="M 0 0 L 200 0 L 200 300 L 0 300 Z M 0 0"/>
        </clipPath>
        <clipPath id="clip_path_45">
            <path d="M 0 0 L 200 0 L 200 300 L 0 300 Z M 0 0"/>
        </clipPath>
        <clipPath id="clip_path_46">
            <path d="M 0 0 L 200 0 L 200 300 L 0 300 Z M 0 0"/>
        </clipPath>
        <clipPath id="clip_path_47">
            <path d="M 0 0 L 200 0 L 200 300 L 0 300 Z M 0 0"/>
        </clipPath>
        <clipPath id="clip_path_48">
            <path d="M 0 0 L 200 0 L 200 300 L 0 300 Z M 0 0"/>
        </clipPath>
        <clipPath id="clip_path_49">
            <path d="M 0 0 L 200 0 L 200 300 L 0 300 Z M 0 0"/>
        </clipPath>
        <clipPath id="clip_path_50">
            <path d="M 0 0 L 200 0 L 200 300 L 0 300 Z M 0 0"/>
        </clipPath>
        <clipPath id="clip_path_51">
            <path d="M 0 0 L 200 0 L 200 300 L 0 300 Z M 0 0"/>
        </clipPath>
        <clipPath id="clip_path_52">
            <path d="M 0 0 L 200 0 L 200 300 L 0 300 Z M 0 0"/>
        </clipPath>
        <clipPath id="clip_path_53">
            <path d="M 0 0 L 200 0 L 200 300 L 0 300 Z M 0 0"/>
        </clipPath>
        <clipPath id="clip_path_54">
            <path d="M 0 0 L 200 0 L 200 300 L 0 300 Z M 0 0"/>
        </clipPath>
        <clipPath id="clip_path_55">
            <path d="M 0 0 L 200 0 L 200 300 L 0 300 Z M 0 0"/>
        </clipPath>
        <clipPath id="clip_path_56">
            <path d="M 0 0 L 200 0 L 200 300 L 0 300 Z M 0 0"/>
        </clipPath>
        <clipPath id="clip_path_57">
            <path d="M 0 0 L 200 0 L 200 300 L 0 300 Z M 0 0"/>
        </clipPath>
        <clipPath id="clip_path_58">
            <path d="M 0 0 L 200 0 L 200 300 L 0 300 Z M 0 0"/>
        </clipPath>
        <clipPath id="clip_path_59">
            <path d="M 0 0 L 200 0 L 200 300 L 0 300 Z M 0 0"/>
        </clipPath>
        <clipPath id="clip_path_60">
            <path d="M 0 0 L 200 0 L 200 300 L 0 300 Z M 0 0"/>
        </clipPath>
        <clipPath id="clip_path_61">
            <path d="M 0 0 L 200 0 L 200 300 L 0 300 Z M 0 0"/>
        </clipPath>
        <clipPath id="clip_path_62">
            <path d="M 0 0 L 200 0 L 200 300 L 0 300 Z M 0 0"/>
        </clipPath>
        <clipPath id="clip_path_63">
            <path d="M 0 0 L 200 0 L 200 300 L 0 300 Z M 0 0"/>
        </clipPath>
        <clipPath id="clip_path_64">
            <path d="M 0 0 L 200 0 L 200 300 L 0 300 Z M 0 0"/>
        </clipPath>
        <clipPath id="clip_path_65">
            <path d="M 0 0 L 200 0 L 200 300 L 0 300 Z M 0 0"/>
        </clipPath>
        <clipPath id="clip_path_66">
            <path d="M 0 0 L 200 0 L 200 300 L 0 300 Z M 0 0"/>
        </clipPath>
    </defs>
    <g id="group">
        <path
            id="path"
            clip-path="url(#clip_path)"
            d="M 0 0 L 200 0 L 200 300 L 0 300 Z"
            fill="#ffffff"/>
        <path
            id="path_1"
            clip-path="url(#clip_path_1)"
            d="M 91.806 94.527 Q 87.183 89.579 79.583 91.935 C 73.289 92.213 67.04 93.124 60.929 94.655 C 59.359 95.057 57.749 95.286 56.129 95.34 C 55.448 95.353 54.769 95.41 54.095 95.511 C 53.978 95.537 53.863 95.573 53.752 95.618 L 53.409 95.725 C 52.852 95.917 52.253 96.11 51.632 96.325 C 51.439 96.389 51.246 96.432 51.054 96.496 C 49.876 96.881 48.87 97.203 48.013 97.46 C 46.529 98.311 45.203 99.412 44.094 100.715 C 42.231 104.249 40.56 107.739 39.126 111.23 C 39.019 111.68 38.933 112.108 38.847 112.558 Q 35.313 131.672 33.236 151.128 Q 30.698 175.093 26.536 198.8 C 24.285 211.644 23.766 224.731 24.994 237.713 C 24.992 238.104 25.111 238.486 25.333 238.808 C 25.555 239.13 25.87 239.376 26.236 239.513 C 30.213 240.984 34.283 242.186 38.421 243.113 C 38.794 243.217 39.186 243.236 39.568 243.17 C 39.949 243.103 40.311 242.952 40.627 242.727 Q 47.566 237.651 45.296 228.164 Q 48.38 233.753 51.742 239.151 C 55.318 244.869 60.287 247.31 66.648 246.518 C 67.427 246.481 68.173 246.188 68.77 245.685 C 69.366 245.182 69.78 244.496 69.948 243.734 C 71.248 238.685 71.152 233.377 69.669 228.379 Q 65.59 214.212 62.069 199.767 C 60.061 191.502 59.069 183.023 59.114 174.518 C 59.243 174.454 59.371 174.411 59.521 174.347 C 59.62 174.286 59.728 174.242 59.842 174.218 C 60.056 174.175 60.27 174.132 60.485 174.111 C 65.646 176.103 68.002 174.432 67.552 169.057 C 67.236 165.147 66.386 161.3 65.025 157.621 Q 62.487 150.682 59.992 143.701 C 59.5 142.507 59.261 141.224 59.291 139.933 C 59.32 138.642 59.617 137.371 60.163 136.201 C 60.443 136.263 60.711 136.372 60.955 136.522 C 62.091 137.324 63.414 137.821 64.796 137.968 C 66.179 138.114 67.576 137.904 68.855 137.358 C 72.817 135.794 73.502 132.989 70.868 128.941 C 67.377 123.566 68.768 119.947 75.023 118.126 Q 89.768 113.821 93.123 100.136 C 93.42 99.169 93.456 98.14 93.226 97.154 C 92.997 96.169 92.511 95.262 91.817 94.525 Z"
            fill="#f759f3"/>
        <path
            id="path_2"
            clip-path="url(#clip_path_2)"
            d="M 45.463 98.188 C 44.992 99.023 44.542 99.88 44.092 100.715 C 45.201 99.412 46.527 98.311 48.011 97.46 C 46.876 97.803 46.019 98.038 45.463 98.188 Z"
            fill="#eb4ce0"/>
        <path
            id="path_3"
            clip-path="url(#clip_path_3)"
            d="M 65.443 181.582 C 65.25 181.581 65.061 181.643 64.906 181.759 C 64.751 181.875 64.639 182.039 64.586 182.225 C 63.404 186.37 63.294 190.747 64.265 194.946 Q 69.983 221.063 77.479 246.366 C 77.672 246.967 77.815 247.583 77.907 248.208 C 78.055 249.182 78.284 250.142 78.593 251.078 C 78.614 251.099 78.614 251.121 78.636 251.142 C 78.68 251.233 78.751 251.308 78.839 251.358 C 78.927 251.408 79.027 251.43 79.128 251.421 C 80.45 251.337 81.741 250.979 82.919 250.372 L 83.368 250.179 L 83.754 249.986 C 83.894 248.608 83.844 247.217 83.604 245.853 C 80.764 228.294 76.982 210.901 72.275 193.749 C 71.119 189.16 68.76 184.96 65.443 181.585 Z"
            fill="#f759f3"/>
        <path
            id="path_4"
            clip-path="url(#clip_path_4)"
            d="M 115.107 92.385 C 114.141 91.31 113.103 90.301 112.002 89.365 C 109.668 87.373 107.547 86.365 105.641 86.365 Q 95.908 86.365 70.347 91.312 C 68.27 91.697 66.364 92.104 64.629 92.554 C 62.423 93.132 60.517 93.604 58.929 93.989 C 58.158 94.182 56.423 94.738 53.746 95.617 C 53.857 95.572 53.972 95.536 54.089 95.51 C 54.763 95.409 55.442 95.352 56.123 95.339 C 57.743 95.285 59.353 95.056 60.923 94.654 C 67.034 93.123 73.283 92.212 79.577 91.934 Q 87.19 89.589 91.805 94.526 C 92.499 95.263 92.985 96.17 93.215 97.155 C 93.444 98.141 93.408 99.17 93.111 100.137 Q 89.77 113.822 75.011 118.127 C 68.758 119.947 67.365 123.567 70.856 128.942 C 73.49 132.99 72.805 135.795 68.843 137.359 C 67.564 137.905 66.167 138.115 64.784 137.969 C 63.402 137.822 62.079 137.325 60.943 136.523 C 60.699 136.373 60.431 136.264 60.151 136.202 C 59.159 138.276 58.998 140.652 59.701 142.841 L 64.969 142.841 C 64.965 142.676 64.972 142.512 64.99 142.348 C 65.033 141.727 65.397 141.427 66.082 141.406 C 66.51 141.855 66.918 142.348 67.324 142.841 L 79.746 142.841 L 79.746 142.82 C 81.031 139.65 81.995 137.273 82.616 135.71 C 83.059 134.572 83.574 133.463 84.158 132.39 C 84.536 129.996 85.095 127.633 85.828 125.323 C 86.66 123.286 87.739 121.358 89.04 119.583 C 90.924 116.906 92.295 114.872 93.173 113.483 C 94.522 111.32 96.214 107.383 98.248 101.704 C 99.531 97.753 101.355 93.998 103.666 90.546 Q 103.537 90.996 101.417 95.429 C 100.271 97.697 99.269 100.035 98.417 102.429 C 98.032 103.693 97.41 105.706 96.532 108.429 C 95.846 110.515 94.85 112.486 93.577 114.275 C 90.729 117.99 88.282 121.996 86.277 126.225 C 85.896 127.17 85.658 128.165 85.57 129.18 C 85.491 130.179 85.356 131.173 85.163 132.157 C 84.242 135.883 83.771 137.875 83.707 138.157 L 83.643 138.264 C 83.455 137.93 83.352 137.555 83.343 137.172 C 83.536 136.037 83.707 134.988 83.879 134.024 C 83.472 134.924 83.044 135.951 82.615 137.108 C 81.523 139.978 80.773 141.884 80.366 142.848 L 81.715 142.848 C 84.501 138.928 86.354 134.423 87.133 129.677 C 87.733 126.184 89.149 122.882 91.266 120.04 C 92.241 118.718 93.307 117.465 94.457 116.292 C 96.126 114.567 97.277 112.407 97.777 110.06 C 99.282 103.148 102.158 96.608 106.236 90.828 C 106.278 90.777 106.331 90.736 106.39 90.707 C 106.449 90.677 106.513 90.66 106.579 90.657 C 107.05 90.678 107.521 90.721 108.014 90.786 C 108.448 90.84 108.85 91.045 109.149 91.364 C 109.407 91.645 109.598 91.982 109.706 92.349 Q 114.717 93.666 112.876 99.973 C 111.7 103.946 110.023 107.753 107.886 111.302 Q 101.718 121.55 95.508 131.84 C 93.302 135.502 91.118 139.164 88.908 142.848 L 98.202 142.848 C 98.673 142.055 99.145 141.284 99.594 140.492 C 102.121 136.102 103.385 133.292 103.385 132.118 C 104.124 130.71 105.007 129.383 106.019 128.156 C 108.119 125.372 109.51 123.488 110.195 122.524 C 111.052 121.346 112.079 119.74 113.3 117.684 C 114.478 115.671 115.313 114.279 115.827 113.508 C 115.72 111.731 115.591 109.675 115.441 107.297 Q 114.927 99.62 114.927 95.732 C 114.927 94.811 115.034 94.318 115.227 94.211 C 115.291 93.504 115.334 92.883 115.377 92.348 L 115.12 92.391 Z M 96.046 104.57 C 96.28 102.307 96.776 100.079 97.524 97.931 C 98.466 94.719 99.109 93.048 99.43 92.898 Q 96.668 103.564 96.218 105.148 L 96.111 105.148 C 96.064 104.959 96.042 104.765 96.047 104.57 Z M 71.568 122.795 C 71.532 122.722 71.517 122.64 71.525 122.559 C 71.525 122.538 73.174 122.045 76.472 121.103 C 80.877 119.495 85.098 117.42 89.062 114.915 L 89.169 115.022 C 87.863 116.371 85.421 117.871 81.845 119.562 C 79.06 120.979 76.09 121.995 73.021 122.582 L 72.978 122.625 L 73.021 122.689 C 75.891 123.61 77.497 124.145 77.821 124.274 C 78.183 124.386 78.502 124.606 78.736 124.904 C 78.969 125.203 79.106 125.566 79.127 125.944 C 79.127 126.287 78.87 126.501 78.335 126.565 C 77.053 126.725 75.791 127.013 74.566 127.422 C 75.53 127.979 76.022 128.257 76.044 128.279 C 74.566 128.258 73.838 127.958 73.838 127.379 C 73.838 126.951 74.63 126.651 76.194 126.458 C 77.758 126.308 78.55 126.115 78.55 125.901 C 78.55 124.98 76.237 123.952 71.59 122.796 Z"
            fill="#eb4ce0"/>
        <path
            id="path_5"
            clip-path="url(#clip_path_5)"
            d="M 80.371 142.841 C 80.327 142.901 80.291 142.965 80.264 143.034 C 79.793 144.041 79.322 145.176 78.829 146.396 C 79.064 146.075 79.321 145.775 79.6 145.454 C 80.349 144.619 81.056 143.741 81.72 142.841 Z"
            fill="#eb4ce0"/>
        <path
            id="path_6"
            clip-path="url(#clip_path_6)"
            d="M 76.495 155.07 C 76.987 155.52 77.951 156.441 79.407 157.833 C 80.917 159.306 82.52 160.679 84.207 161.945 C 84.225 161.736 84.308 161.538 84.443 161.378 C 84.579 161.219 84.761 161.105 84.964 161.053 C 85.167 161.001 85.381 161.013 85.577 161.088 C 86.348 161.238 86.755 160.938 86.819 160.231 C 87.046 159.555 87.402 158.929 87.868 158.389 C 89.153 156.612 90.031 155.348 90.524 154.599 C 90.973 153.913 91.83 152.65 93.115 150.83 C 94.25 149.224 95.064 147.96 95.599 147.04 C 96.477 145.648 97.355 144.234 98.212 142.84 L 88.918 142.84 C 86.218 147.359 83.518 151.878 80.844 156.44 C 80.223 157.489 79.538 157.532 78.788 156.526 C 77.649 155.138 76.988 153.419 76.903 151.626 C 76.554 152.599 76.338 153.615 76.261 154.646 C 76.256 154.694 76.263 154.743 76.282 154.788 C 76.301 154.833 76.33 154.872 76.368 154.903 C 76.423 154.936 76.48 154.965 76.539 154.989 C 76.526 154.999 76.515 155.012 76.508 155.027 C 76.5 155.042 76.496 155.058 76.496 155.075 Z"
            fill="#eb4ce0"/>
        <path
            id="path_7"
            clip-path="url(#clip_path_7)"
            d="M 75.787 155.048 C 75.723 154.945 75.686 154.827 75.68 154.705 Q 75.68 151.333 79.749 142.84 L 67.323 142.84 C 70.228 146.521 72.138 150.887 72.87 155.519 C 73.363 158.324 72.463 158.796 70.129 156.932 C 69.081 156.106 68.226 155.061 67.623 153.87 C 65.782 150.492 64.866 146.687 64.967 142.841 L 59.699 142.841 C 59.785 143.12 59.87 143.419 59.978 143.698 Q 62.484 150.668 65.011 157.618 C 66.372 161.297 67.222 165.144 67.538 169.054 C 67.988 174.429 65.632 176.1 60.471 174.108 C 60.257 174.129 60.043 174.172 59.828 174.215 C 59.714 174.239 59.606 174.283 59.507 174.344 C 59.357 174.408 59.228 174.451 59.1 174.515 C 59.051 182.866 60.007 191.193 61.948 199.315 L 65.225 199.315 Q 64.744 197.13 64.261 194.946 C 63.29 190.747 63.4 186.37 64.582 182.225 C 64.635 182.039 64.747 181.875 64.902 181.759 C 65.057 181.643 65.246 181.581 65.439 181.582 C 68.756 184.957 71.115 189.157 72.271 193.746 C 72.785 195.609 73.278 197.451 73.771 199.314 L 85.743 199.314 C 85.679 197.365 85.593 195.138 85.486 192.614 Q 84.876 177.066 84.865 172.825 C 84.918 172.413 84.947 171.998 84.951 171.583 L 84.758 171.54 C 84.565 173.04 84.33 174.581 84.03 176.187 C 83.532 179.355 82.542 182.425 81.096 185.287 C 81.115 185.319 81.123 185.357 81.117 185.394 C 81.028 185.598 80.888 185.775 80.71 185.908 C 80.644 186.005 80.572 186.098 80.496 186.187 L 80.153 186.144 C 80.132 186.144 80.132 186.037 80.132 185.801 C 80.131 185.789 80.132 185.778 80.135 185.767 C 80.139 185.756 80.145 185.745 80.153 185.737 C 79.918 185.095 79.768 184.666 79.682 184.431 C 79.573 184.048 79.522 183.651 79.532 183.253 C 79.544 182.028 79.63 180.805 79.789 179.591 C 79.296 181.091 78.761 182.846 78.183 184.838 C 77.434 186.915 76.427 187.943 75.183 187.943 C 75.022 187.966 74.868 188.024 74.733 188.114 C 74.598 188.2 74.444 188.251 74.284 188.264 C 73.99 188.278 73.701 188.175 73.481 187.979 C 73.261 187.783 73.127 187.509 73.106 187.215 L 73.106 186.187 C 73.121 185.189 73.215 184.194 73.385 183.21 C 73.449 182.931 73.492 182.674 73.535 182.418 L 73.257 182.503 C 73.195 182.716 73.116 182.924 73.021 183.124 C 72.614 183.959 72.121 184.388 71.521 184.388 C 71.093 184.388 70.836 184.259 70.772 183.981 L 70.772 183.489 C 70.772 183.403 71.051 181.497 71.629 177.771 C 72.062 175.349 72.348 172.903 72.486 170.447 C 72.536 168.247 72.772 166.054 73.193 163.894 C 73.657 161.676 74.665 159.608 76.127 157.876 L 75.42 157.148 C 75.591 156.27 75.72 155.585 75.784 155.048 Z"
            fill="#eb4ce0"/>
        <path
            id="path_8"
            clip-path="url(#clip_path_8)"
            d="M 39.124 111.231 C 36.957 116.412 35.244 121.772 34.005 127.25 C 33.298 130.334 32.742 133.396 32.335 136.459 L 32.378 136.502 L 32.378 136.673 Q 32.378 139.596 32.249 142.841 L 34.198 142.841 Q 36.061 127.582 38.841 112.559 C 38.927 112.109 39.012 111.681 39.12 111.231 Z"
            fill="#eb4ce0"/>
        <path
            id="path_9"
            clip-path="url(#clip_path_9)"
            d="M 31.478 154.941 L 31.349 154.941 C 31.135 156.975 30.899 159.053 30.621 161.216 Q 29.56 169.408 27.173 185.716 Q 26.337 191.659 25.631 199.316 L 26.445 199.316 C 26.466 199.145 26.509 198.973 26.531 198.802 Q 30.675 175.095 33.231 151.13 Q 33.681 146.986 34.195 142.842 L 32.249 142.842 C 32.099 146.033 31.863 149.442 31.542 153.079 C 31.542 153.721 31.563 154.364 31.628 155.006 L 31.478 155.006 L 31.478 154.942 Z"
            fill="#eb4ce0"/>
        <path
            id="path_10"
            clip-path="url(#clip_path_10)"
            d="M 61.952 199.315 C 61.978 199.467 62.013 199.617 62.059 199.764 Q 65.559 214.188 69.659 228.376 C 71.141 233.374 71.238 238.682 69.938 243.731 C 69.77 244.493 69.356 245.179 68.76 245.682 C 68.163 246.185 67.417 246.478 66.638 246.515 C 60.277 247.307 55.309 244.866 51.732 239.148 Q 48.359 233.748 45.286 228.161 Q 47.566 237.638 40.617 242.724 C 40.301 242.949 39.939 243.1 39.558 243.167 C 39.176 243.233 38.784 243.214 38.411 243.11 C 34.273 242.183 30.203 240.981 26.226 239.51 C 25.86 239.373 25.545 239.126 25.323 238.805 C 25.101 238.483 24.983 238.101 24.984 237.71 C 23.782 224.902 24.271 211.991 26.44 199.31 L 25.626 199.31 C 25.305 202.672 24.984 206.31 24.705 210.189 C 24.341 215.35 23.784 223.017 23.056 233.147 C 23.23 233.413 23.313 233.729 23.291 234.047 C 23.272 234.792 23.215 235.535 23.12 236.274 C 22.996 236.996 22.924 237.726 22.906 238.458 C 22.906 240.043 23.848 241.413 25.711 242.57 C 28.574 244.089 31.598 245.281 34.727 246.125 Q 35.016 246.225 35.755 247.474 C 36.31 248.44 37.01 249.314 37.832 250.065 C 40.552 252.485 44.963 253.684 51.11 253.684 C 52.2 253.724 53.292 253.644 54.365 253.448 C 54.899 253.282 55.455 253.196 56.014 253.191 C 56.678 253.191 57.021 253.405 56.999 253.812 C 56.967 254.051 56.879 254.278 56.742 254.476 Q 56.742 255.761 61.432 255.761 C 65.11 255.566 68.727 254.733 72.119 253.298 C 74.303 252.506 76.319 251.692 78.18 250.857 C 78.261 250.849 78.343 250.865 78.415 250.903 C 78.488 250.941 78.547 251 78.587 251.071 C 78.278 250.135 78.049 249.175 77.901 248.201 C 77.809 247.576 77.666 246.96 77.473 246.359 Q 70.598 223.165 65.223 199.308 Z"
            fill="#eb4ce0"/>
        <path
            id="path_11"
            clip-path="url(#clip_path_11)"
            d="M 86.067 208.845 C 86.067 208.481 85.96 205.311 85.746 199.315 L 73.774 199.315 Q 79.781 222.348 83.604 245.852 C 83.844 247.216 83.894 248.607 83.754 249.985 L 83.368 250.178 C 84.116 249.853 84.804 249.404 85.402 248.85 C 85.466 248.786 85.509 248.722 85.573 248.658 C 85.674 248.525 85.76 248.382 85.83 248.23 L 85.937 248.273 C 86.097 248.051 86.276 247.843 86.472 247.652 C 87.35 246.752 87.8 246.281 87.8 246.26 C 87.67 245.798 87.584 245.324 87.543 244.846 C 87.543 244.097 87.372 241.12 87.029 235.937 C 86.665 230.562 86.472 227.499 86.451 226.792 C 86.28 222.852 86.173 219.875 86.109 217.84 C 86.002 214.328 85.98 211.33 86.066 208.845 Z"
            fill="#eb4ce0"/>
        <path
            id="path_12"
            clip-path="url(#clip_path_12)"
            d="M 89.172 115.022 L 89.065 114.915 C 85.1 117.421 80.879 119.496 76.473 121.104 C 73.173 122.046 71.526 122.539 71.526 122.56 C 71.518 122.641 71.533 122.723 71.569 122.796 L 71.59 122.796 C 76.237 123.953 78.55 124.98 78.55 125.901 C 78.55 126.115 77.758 126.308 76.194 126.458 C 74.63 126.651 73.838 126.95 73.838 127.379 C 73.838 127.957 74.566 128.257 76.044 128.279 C 76.023 128.258 75.53 127.979 74.567 127.422 C 75.792 127.012 77.054 126.725 78.336 126.565 C 78.871 126.501 79.128 126.286 79.128 125.944 C 79.107 125.566 78.97 125.203 78.737 124.904 C 78.503 124.606 78.184 124.386 77.822 124.274 C 77.501 124.145 75.895 123.61 73.022 122.689 C 72.988 122.675 72.952 122.668 72.915 122.668 L 72.979 122.625 L 73.022 122.582 C 76.091 121.995 79.061 120.979 81.846 119.562 C 85.422 117.87 87.864 116.371 89.17 115.022 Z"
            fill="#000000"/>
        <path
            id="path_13"
            clip-path="url(#clip_path_13)"
            d="M 96.111 105.149 L 96.218 105.149 Q 96.668 103.575 99.43 92.899 C 99.109 93.049 98.466 94.719 97.524 97.932 C 96.776 100.08 96.28 102.308 96.046 104.571 C 96.041 104.766 96.063 104.96 96.11 105.149 Z"
            fill="#000000"/>
        <path
            id="path_14"
            clip-path="url(#clip_path_14)"
            d="M 66.086 141.406 C 65.401 141.427 65.037 141.727 64.994 142.348 C 64.787 146.358 65.699 150.348 67.628 153.87 C 68.231 155.061 69.086 156.106 70.134 156.932 C 72.468 158.796 73.368 158.324 72.875 155.519 C 72.053 150.249 69.69 145.338 66.086 141.406 Z"
            fill="#f759f3"/>
        <path
            id="path_15"
            clip-path="url(#clip_path_15)"
            d="M 108.019 90.779 C 107.527 90.715 107.055 90.672 106.584 90.65 C 106.518 90.653 106.454 90.67 106.395 90.7 C 106.336 90.729 106.283 90.77 106.241 90.821 C 102.163 96.601 99.287 103.141 97.782 110.053 C 97.282 112.4 96.131 114.56 94.462 116.285 C 93.312 117.458 92.246 118.711 91.271 120.033 C 89.154 122.875 87.738 126.177 87.138 129.67 C 86.183 135.542 83.567 141.02 79.6 145.453 C 79.321 145.774 79.064 146.074 78.829 146.395 C 78.636 146.866 78.465 147.359 78.272 147.851 C 78.252 147.884 78.238 147.92 78.229 147.958 C 78.165 148.108 78.122 148.236 78.058 148.386 C 78.037 148.45 77.994 148.536 77.972 148.6 C 77.951 148.643 77.951 148.686 77.929 148.729 Q 77.287 150.367 76.901 151.62 C 76.986 153.413 77.647 155.132 78.786 156.52 C 79.535 157.527 80.221 157.484 80.842 156.434 Q 88.134 144.066 95.512 131.827 Q 101.712 121.547 107.89 111.289 C 110.027 107.74 111.704 103.933 112.88 99.96 Q 114.711 93.66 109.71 92.336 C 109.602 91.969 109.411 91.632 109.153 91.351 C 108.854 91.032 108.452 90.827 108.018 90.773 Z"
            fill="#f759f3"/>
        <path
            id="path_16"
            clip-path="url(#clip_path_16)"
            d="M 110.16 78.293 C 109.903 77.907 109.668 77.544 109.432 77.201 Q 110.878 86.101 100.544 84.889 C 97.002 84.475 93.42 84.554 89.9 85.124 C 79.327 86.785 68.916 89.35 58.782 92.791 C 55.377 93.948 53.856 93.027 54.242 90.007 C 54.405 88.582 54.92 87.22 55.742 86.045 C 55.121 86.58 54.5 87.116 53.857 87.672 L 53.857 87.715 C 53.857 87.736 52.293 89.171 49.188 91.998 Q 44.498 96.463 44.498 97.459 C 44.498 97.695 44.562 97.802 44.669 97.802 C 44.733 97.802 47.025 97.116 51.544 95.725 C 56.534 94.204 60.089 93.198 62.209 92.662 C 64.672 92.041 69.34 91.035 76.258 89.642 Q 79.92 88.903 94.59 86.751 C 97.481 86.259 100.399 85.945 103.328 85.809 C 106.818 85.788 109.281 86.451 110.695 87.758 C 111.551 88.392 112.367 89.079 113.137 89.814 Q 115.321 91.714 115.321 92.063 L 115.385 92.042 Q 115.449 90.886 115.449 90.372 C 115.344 88.948 115.004 87.551 114.442 86.238 C 113.912 84.894 113.311 83.579 112.642 82.298 C 112.106 81.291 111.271 79.942 110.158 78.298 Z"
            fill="#f6b5fe"/>
        <path
            id="path_17"
            clip-path="url(#clip_path_17)"
            d="M 173.016 40.344 Q 175.907 46.644 171.367 51.695 C 169.675 53.641 167.371 54.956 164.835 55.424 Q 159.278 56.484 155.819 52.854 C 155.331 52.432 155 51.858 154.879 51.224 C 154.759 50.591 154.856 49.934 155.155 49.363 C 154.483 50.016 153.86 50.718 153.292 51.463 C 151.888 53.3 150.709 55.299 149.78 57.416 C 148.902 59.365 148.217 60.993 147.767 62.299 C 148.734 61.904 149.729 61.581 150.744 61.335 C 153.49 60.606 156.319 60.239 159.16 60.243 C 162.838 60.311 166.465 61.118 169.825 62.616 L 173.08 63.987 C 173.209 63.88 173.359 63.73 173.551 63.538 C 173.915 63.174 174.087 62.895 174.087 62.681 C 174.042 62.406 173.955 62.138 173.83 61.889 C 173.679 61.689 173.583 61.453 173.551 61.204 L 173.551 61.054 L 173.594 61.054 C 173.574 60.958 173.579 60.857 173.609 60.764 C 173.639 60.67 173.693 60.585 173.765 60.518 C 174.322 58.998 174.879 57.413 175.414 55.785 C 176.625 52.22 177.084 48.442 176.763 44.691 C 176.672 43.194 176.324 41.723 175.735 40.344 C 174.959 38.729 173.933 37.248 172.694 35.954 C 171.585 34.356 170.191 32.977 168.582 31.885 C 164.862 29.344 160.428 28.053 155.925 28.201 C 151.749 28.158 147.622 29.113 143.889 30.985 C 142.104 31.83 140.463 32.95 139.027 34.305 C 138.427 34.84 137.892 35.333 137.4 35.783 L 137.336 35.847 C 137.315 35.868 137.293 35.911 137.272 35.933 L 137.229 35.954 C 136.437 36.661 135.794 37.26 135.259 37.754 C 135.58 37.347 135.923 36.918 136.266 36.49 C 136.18 36.533 136.095 36.597 135.987 36.661 C 135.405 36.996 134.84 37.36 134.295 37.753 C 134.093 37.796 133.898 37.868 133.717 37.967 C 133.503 38.074 133.31 38.181 133.16 38.267 C 132.368 38.567 131.704 38.824 131.19 39.059 C 130.183 39.466 129.626 39.809 129.541 40.13 C 128.984 41.736 128.363 42.53 127.699 42.53 C 127.613 42.53 127.485 42.509 127.292 42.487 C 127.296 42.441 127.311 42.397 127.335 42.358 C 127.128 42.462 126.956 42.626 126.843 42.829 C 126.607 43.172 126.072 43.364 125.194 43.429 C 124.693 43.405 124.191 43.426 123.694 43.493 C 122.706 43.791 121.773 44.246 120.931 44.842 C 120.257 45.329 119.513 45.711 118.725 45.977 Q 118.211 46.202 115.963 46.877 C 114.958 47.2 113.971 47.579 113.008 48.012 C 112.068 48.365 111.152 48.779 110.267 49.254 C 109.425 49.682 108.491 49.895 107.547 49.875 C 106.673 49.857 105.803 49.995 104.977 50.282 C 104.592 50.484 104.227 50.721 103.885 50.989 L 103.949 51.075 C 104.073 51.002 104.202 50.938 104.335 50.882 L 104.399 50.903 C 93.914 56.253 83.973 62.608 74.716 69.878 C 73.967 70.456 72.767 71.463 71.097 72.878 C 76.143 69.101 81.384 65.592 86.797 62.363 C 98.524 55.368 111.04 49.789 124.082 45.744 C 126.729 44.934 129.181 43.585 131.282 41.782 C 137.842 36.164 145.529 32.015 153.825 29.614 Q 167.478 28.297 173.014 40.343 Z"
            fill="#f6b5fe"/>
        <path
            id="path_18"
            clip-path="url(#clip_path_18)"
            d="M 171.368 51.694 Q 175.897 46.65 173.017 40.343 Q 167.491 28.297 153.828 29.612 C 145.529 32.011 137.84 36.159 131.277 41.776 C 129.176 43.579 126.724 44.928 124.077 45.738 C 111.035 49.783 98.519 55.362 86.792 62.357 C 81.379 65.586 76.138 69.095 71.092 72.872 C 71.071 72.872 71.049 72.872 71.049 72.893 C 70.985 72.957 70.899 73 70.835 73.064 L 62.335 80.345 L 62.014 80.602 C 61.629 80.923 61.243 81.266 60.858 81.609 C 60.665 81.759 60.473 81.93 60.28 82.101 C 59.959 82.38 59.637 82.658 59.316 82.958 C 59.08 83.151 58.845 83.344 58.609 83.558 L 57.196 84.779 C 56.703 85.186 56.232 85.614 55.74 86.043 C 54.918 87.218 54.403 88.58 54.24 90.005 C 53.855 93.025 55.375 93.945 58.78 92.789 C 68.914 89.348 79.325 86.783 89.898 85.122 C 93.418 84.552 97 84.473 100.542 84.887 Q 110.886 86.108 109.43 77.199 C 109.43 77.178 109.43 77.178 109.409 77.178 L 107.524 74.244 C 107.503 74.223 107.503 74.201 107.481 74.18 C 108.109 74.714 108.683 75.31 109.194 75.957 C 109.151 75.786 109.108 75.614 109.065 75.464 C 111.888 77.555 114.262 80.192 116.047 83.217 C 117.696 86.023 119.047 86.023 120.047 83.196 C 120.485 82.035 120.745 80.815 120.818 79.577 C 120.777 79.501 120.742 79.422 120.711 79.341 L 119.854 77.692 C 119.661 77.35 119.447 77.007 119.233 76.664 L 120.689 78.292 L 120.818 78.549 C 120.766 77.103 120.469 75.677 119.94 74.33 C 119.372 72.879 118.662 71.487 117.82 70.175 C 118.421 70.298 118.989 70.55 119.484 70.912 C 119.979 71.275 120.39 71.739 120.69 72.275 C 121.996 74.459 123.093 76.76 123.967 79.15 C 124.931 81.784 126.109 81.85 127.479 79.343 C 127.822 78.722 128.121 78.101 128.4 77.48 L 128.4 77.159 C 128.366 76.348 128.243 75.544 128.036 74.759 C 127.736 73.667 127.522 72.896 127.415 72.446 L 127.501 72.446 C 127.948 73.484 128.307 74.559 128.572 75.658 C 128.572 75.679 128.572 75.679 128.593 75.701 C 128.614 75.787 128.614 75.872 128.636 75.98 Q 128.668 76.237 128.7 76.558 C 128.696 76.602 128.704 76.646 128.721 76.687 C 129.408 74.772 129.805 72.766 129.899 70.734 C 129.966 69.428 129.792 68.121 129.385 66.879 C 129.685 67.179 129.985 67.479 130.285 67.757 C 130.906 68.335 131.42 68.378 131.87 67.886 C 134.443 64.876 136.139 61.215 136.77 57.306 C 137.392 53.865 138.889 50.642 141.117 47.947 C 142.235 46.601 143.467 45.354 144.801 44.221 C 144.565 44.992 144.373 45.784 144.201 46.576 C 144.509 45.929 144.93 45.341 145.443 44.841 C 145.473 44.894 145.495 44.952 145.507 45.012 C 145.507 45.098 144.993 46.104 143.965 48.012 L 143.922 48.141 C 143.896 48.174 143.874 48.21 143.858 48.248 L 143.858 48.269 C 143.617 49.636 143.453 51.016 143.365 52.402 C 143.301 53.623 143.793 54.244 144.843 54.308 C 148.205 54.458 151.032 52.98 153.281 49.832 C 154.12 48.518 155.382 47.528 156.858 47.027 C 156.759 47.129 156.666 47.236 156.579 47.348 C 156.683 47.249 156.798 47.163 156.922 47.091 L 159.406 45.699 C 159.545 45.633 159.688 45.576 159.834 45.528 L 159.877 45.528 C 159.898 45.528 159.92 45.571 159.92 45.635 C 159.13 46.109 158.365 46.624 157.628 47.177 L 157.542 47.263 L 155.422 49.083 C 155.324 49.163 155.231 49.249 155.143 49.34 L 155.143 49.361 C 154.844 49.932 154.747 50.589 154.867 51.222 C 154.988 51.856 155.319 52.43 155.807 52.852 Q 159.276 56.482 164.823 55.422 C 167.359 54.955 169.662 53.641 171.355 51.696 Z M 114.384 71.375 C 114.427 71.396 114.47 71.439 114.513 71.461 C 114.589 71.504 114.661 71.554 114.727 71.611 L 116.012 73.046 C 115.416 72.553 114.851 72.023 114.32 71.461 L 114.32 71.375 Z M 125.006 69.748 L 125.177 69.727 C 125.198 69.813 125.198 69.898 125.22 70.006 C 125.138 69.929 125.066 69.843 125.006 69.749 Z"
            fill="#f7c7ff"/>
        <path
            id="path_19"
            clip-path="url(#clip_path_19)"
            d="M 114.508 71.462 C 114.465 71.441 114.422 71.398 114.38 71.376 L 114.38 71.419 C 114.359 71.419 114.337 71.398 114.316 71.376 L 114.316 71.462 C 114.847 72.024 115.412 72.554 116.008 73.047 L 114.723 71.612 C 114.657 71.555 114.585 71.505 114.509 71.462 Z"
            fill="#000000"/>
        <path
            id="path_20"
            clip-path="url(#clip_path_20)"
            d="M 125.172 69.727 L 125.001 69.748 C 125.061 69.842 125.133 69.928 125.215 70.005 C 125.194 69.898 125.194 69.812 125.172 69.726 Z"
            fill="#f6b5fe"/>
        <path
            id="path_21"
            clip-path="url(#clip_path_21)"
            d="M 145.517 45.012 C 145.505 44.952 145.483 44.894 145.453 44.841 C 144.94 45.341 144.519 45.929 144.211 46.576 C 143.076 48.942 142.207 51.428 141.62 53.986 C 140.601 57.494 139.996 61.109 139.82 64.758 C 139.824 65.647 139.895 66.535 140.034 67.414 C 140.138 68.239 140.332 69.051 140.612 69.834 C 140.692 69.619 140.75 69.397 140.783 69.17 C 140.783 68.978 140.697 68.292 140.547 67.114 C 140.397 65.914 140.311 65.122 140.311 64.714 C 140.35 63.059 140.536 61.41 140.868 59.788 C 141.296 57.604 141.596 55.976 141.789 54.888 C 142.158 52.593 142.858 50.364 143.866 48.27 L 143.866 48.249 C 143.882 48.211 143.904 48.175 143.93 48.142 L 143.973 48.013 C 145.001 46.107 145.515 45.101 145.515 45.013 Z"
            fill="#000000"/>
        <path
            id="path_22"
            clip-path="url(#clip_path_22)"
            d="M 104.4 50.901 L 104.336 50.88 C 104.203 50.936 104.074 51 103.95 51.073 C 98.369 53.767 92.942 56.77 87.695 60.068 C 82.984 62.998 78.463 66.224 74.16 69.727 Q 67.125 75.477 62.66 79.321 C 61.439 80.37 59.533 81.976 56.96 84.097 C 55.428 85.365 54.029 86.786 52.784 88.337 C 51.692 89.173 50.235 90.437 48.394 92.128 C 45.46 94.848 43.982 96.628 43.982 97.461 L 44.111 97.868 C 44.167 97.985 44.255 98.083 44.365 98.152 C 44.475 98.22 44.602 98.255 44.732 98.253 L 44.946 98.253 C 45.015 98.228 45.087 98.214 45.16 98.21 C 45.096 98.274 45.031 98.36 44.967 98.424 C 42.456 101.96 40.394 105.794 38.827 109.838 Q 37.959 112.055 34.565 122.495 C 34.308 123.287 34.072 124.101 33.837 124.936 L 34.565 124.936 C 35.749 120.262 37.274 115.682 39.127 111.231 C 40.562 107.74 42.232 104.25 44.095 100.716 C 44.545 99.881 44.995 99.024 45.466 98.189 C 46.023 98.039 46.879 97.804 48.014 97.461 C 48.871 97.204 49.878 96.883 51.055 96.497 C 51.248 96.433 51.441 96.39 51.633 96.326 C 52.254 96.112 52.854 95.919 53.41 95.726 L 53.753 95.619 C 56.43 94.741 58.165 94.184 58.936 93.991 C 60.521 93.606 62.427 93.134 64.636 92.556 C 66.371 92.107 68.276 91.699 70.354 91.314 Q 95.893 86.367 105.648 86.367 C 107.554 86.367 109.674 87.374 112.009 89.367 C 113.11 90.303 114.148 91.312 115.114 92.387 L 115.135 92.387 L 115.242 92.28 C 115.297 92.222 115.327 92.146 115.327 92.066 Q 115.327 91.712 113.143 89.817 C 112.373 89.081 111.557 88.395 110.701 87.761 C 109.287 86.455 106.824 85.791 103.334 85.812 C 100.405 85.948 97.487 86.262 94.596 86.754 Q 79.915 88.907 76.264 89.645 C 69.346 91.037 64.678 92.045 62.215 92.665 C 60.095 93.201 56.54 94.207 51.55 95.728 C 47.031 97.12 44.74 97.805 44.675 97.805 C 44.568 97.805 44.504 97.698 44.504 97.462 Q 44.504 96.462 49.194 92.001 C 52.299 89.174 53.863 87.739 53.863 87.718 L 53.863 87.675 C 54.505 87.118 55.127 86.583 55.748 86.047 C 56.241 85.619 56.712 85.19 57.204 84.784 L 58.617 83.563 C 58.853 83.349 59.088 83.156 59.324 82.963 C 59.645 82.663 59.966 82.385 60.288 82.106 C 60.481 81.935 60.674 81.764 60.866 81.614 C 61.252 81.271 61.637 80.928 62.023 80.607 L 62.344 80.35 L 70.844 73.069 C 70.908 73.005 70.994 72.962 71.058 72.898 C 71.058 72.877 71.079 72.877 71.101 72.877 C 72.771 71.463 73.971 70.457 74.72 69.877 C 83.977 62.607 93.918 56.252 104.403 50.902 Z"
            fill="#000000"/>
        <path
            id="path_23"
            clip-path="url(#clip_path_23)"
            d="M 34.561 124.937 L 33.833 124.937 C 32.933 128.278 32.31 131.688 31.969 135.131 C 31.691 137.979 31.52 141.363 31.477 145.282 C 31.451 145.38 31.436 145.481 31.434 145.582 C 31.403 146.601 31.302 147.617 31.134 148.623 C 31.027 149.972 30.855 152.007 30.641 154.723 C 30.449 157.123 30.234 159.135 30.02 160.763 Q 28.607 172.163 26.55 185.049 Q 25.779 189.739 24.923 198.991 L 25.651 198.991 Q 26.358 191.538 27.172 185.713 Q 29.581 169.427 30.62 161.213 C 30.899 159.05 31.134 156.973 31.348 154.938 Q 31.412 154.2 31.477 153.524 L 31.477 155.001 L 31.627 155.001 C 31.563 154.359 31.541 153.716 31.541 153.074 Q 32.376 143.951 32.376 136.674 L 32.376 136.501 L 32.333 136.565 L 32.333 136.458 C 32.74 133.396 33.297 130.333 34.003 127.249 C 34.174 126.478 34.367 125.707 34.56 124.936 Z"
            fill="#000000"/>
        <path
            id="path_24"
            clip-path="url(#clip_path_24)"
            d="M 86.581 198.994 L 85.724 198.994 C 85.96 205.205 86.067 208.481 86.067 208.845 C 85.981 211.329 86.003 214.328 86.11 217.839 C 86.174 219.874 86.281 222.851 86.452 226.791 C 86.473 227.498 86.666 230.56 87.03 235.936 L 87.03 236.021 L 87.651 236.021 Q 87.17 230.271 87.137 227.733 C 87.116 226.533 86.987 223.407 86.794 218.374 C 86.601 214.474 86.558 211.35 86.623 209.015 C 86.687 206.059 86.687 202.715 86.58 198.992 Z"
            fill="#000000"/>
        <path
            id="path_25"
            clip-path="url(#clip_path_25)"
            d="M 25.652 198.994 L 24.924 198.994 Q 24.378 204.744 23.789 212.251 Q 22.408 229.791 22.397 233.667 L 22.44 234.674 L 22.719 234.695 C 22.655 235.187 22.612 235.616 22.569 236.022 L 23.169 236.022 C 23.254 235.187 23.297 234.522 23.297 234.052 C 23.319 233.734 23.236 233.418 23.062 233.152 C 23.79 223.022 24.347 215.352 24.711 210.194 C 25.011 206.189 25.332 202.463 25.653 198.994 Z"
            fill="#000000"/>
        <path
            id="path_26"
            clip-path="url(#clip_path_26)"
            d="M 87.652 236.022 L 87.031 236.022 C 87.374 241.141 87.545 244.096 87.545 244.845 C 87.586 245.323 87.672 245.797 87.802 246.259 C 87.802 246.28 87.353 246.751 86.474 247.651 C 86.278 247.842 86.099 248.05 85.939 248.272 L 85.832 248.229 C 85.762 248.381 85.676 248.524 85.575 248.657 C 85.511 248.721 85.468 248.786 85.404 248.849 C 84.806 249.403 84.118 249.852 83.37 250.177 L 82.921 250.37 C 81.743 250.977 80.452 251.335 79.13 251.419 C 79.029 251.428 78.929 251.406 78.841 251.356 C 78.753 251.306 78.682 251.231 78.638 251.14 C 78.617 251.119 78.617 251.097 78.595 251.076 C 78.555 251.005 78.496 250.946 78.423 250.908 C 78.351 250.87 78.269 250.854 78.188 250.862 C 76.325 251.697 74.312 252.511 72.127 253.303 C 70.863 253.774 69.685 254.181 68.55 254.524 L 70.35 254.524 Q 70.961 254.299 71.635 254.074 C 73.027 253.581 74.398 253.088 75.704 252.574 C 75.743 252.974 75.883 253.357 76.111 253.688 Q 76.304 254.041 76.625 254.523 L 77.503 254.523 L 77.267 254.181 C 77.207 254.087 77.135 254.001 77.053 253.924 L 77.053 253.903 C 76.625 253.325 76.261 252.875 75.961 252.511 L 77.632 251.869 C 77.782 251.805 77.91 251.74 78.06 251.676 L 78.467 251.955 C 78.73 252.121 79.034 252.21 79.345 252.212 C 80.819 252.043 82.241 251.569 83.521 250.82 C 84.121 250.52 84.635 250.242 85.042 249.984 C 85.063 249.984 85.106 249.963 85.171 249.899 C 85.202 249.865 85.238 249.836 85.278 249.813 C 85.428 249.684 85.706 249.427 86.071 249.063 Q 86.81 249.609 90.119 251.505 C 92.881 253.069 94.681 254.054 95.537 254.439 C 95.601 254.46 95.666 254.503 95.73 254.525 L 97.443 254.525 C 97.336 254.504 97.229 254.461 97.122 254.439 C 94.814 253.597 92.602 252.513 90.522 251.205 C 88.273 249.856 86.881 249.042 86.345 248.742 C 86.902 248.142 87.63 247.35 88.508 246.342 Q 88.219 242.648 87.866 238.696 C 87.78 237.754 87.716 236.854 87.652 236.019 Z"
            fill="#000000"/>
        <path
            id="path_27"
            clip-path="url(#clip_path_27)"
            d="M 23.123 236.279 C 23.144 236.193 23.144 236.108 23.166 236.022 L 22.566 236.022 C 22.373 237.628 22.287 238.442 22.287 238.464 C 22.298 239.338 22.537 240.195 22.98 240.949 C 23.423 241.703 24.055 242.329 24.814 242.764 C 26.335 243.813 29.269 245.056 33.614 246.512 C 34.56 246.809 35.354 247.466 35.823 248.34 C 36.274 249.204 36.82 250.016 37.45 250.76 C 38.605 251.696 39.929 252.401 41.35 252.837 C 44.491 253.913 47.796 254.434 51.116 254.379 C 52.169 254.429 53.225 254.364 54.264 254.187 C 54.902 253.991 55.567 253.897 56.235 253.908 L 56.278 253.908 L 56.235 253.972 C 56.214 254.157 56.214 254.344 56.235 254.529 L 56.749 254.529 L 56.749 254.486 C 56.886 254.288 56.974 254.061 57.006 253.822 C 57.027 253.415 56.685 253.201 56.021 253.201 C 55.462 253.206 54.906 253.292 54.372 253.458 C 53.299 253.654 52.207 253.734 51.117 253.694 C 44.971 253.694 40.559 252.494 37.839 250.075 C 37.017 249.324 36.317 248.45 35.762 247.484 Q 35.023 246.231 34.734 246.135 C 31.605 245.291 28.581 244.099 25.718 242.58 C 23.855 241.424 22.913 240.053 22.913 238.468 C 22.931 237.736 23.003 237.006 23.127 236.284 Z"
            fill="#000000"/>
        <path
            id="path_28"
            clip-path="url(#clip_path_28)"
            d="M 61.139 256.452 L 63.409 256.452 Q 64.79 256.452 70.348 254.525 L 68.548 254.525 C 66.25 255.278 63.855 255.696 61.438 255.767 C 58.376 255.767 56.812 255.36 56.748 254.525 L 56.234 254.525 C 56.277 254.954 56.463 255.357 56.762 255.668 C 57.061 255.978 57.456 256.18 57.883 256.239 C 58.947 256.39 60.021 256.461 61.095 256.453 C 60.819 257.529 60.626 258.624 60.517 259.73 C 60.307 261.021 60.178 262.323 60.131 263.63 C 60.089 264.025 60.128 264.424 60.246 264.804 C 60.364 265.183 60.558 265.534 60.816 265.836 C 61.397 266.249 62.077 266.5 62.787 266.564 C 65.148 266.819 67.438 267.524 69.533 268.641 C 69.64 268.705 70.004 269.005 70.625 269.498 C 71.471 270.125 72.401 270.63 73.388 270.998 Q 78.463 273.022 87.522 273.032 C 90.141 273.017 92.732 272.486 95.146 271.468 C 97.266 270.633 98.401 269.948 98.573 269.412 C 98.679 269.397 98.781 269.36 98.873 269.305 L 98.916 268.234 C 98.919 267.746 98.745 267.272 98.426 266.902 C 98.107 266.532 97.665 266.29 97.181 266.221 C 95.145 265.869 93.139 265.361 91.181 264.701 C 89.924 264.242 88.717 263.653 87.581 262.945 C 85.546 261.745 84.433 261.082 84.198 260.975 C 84.16 260.959 84.124 260.937 84.091 260.911 C 83.957 260.849 83.828 260.777 83.705 260.697 L 84.198 260.697 C 86.188 260.669 88.174 260.892 90.109 261.361 C 91.903 261.801 93.745 262.01 95.592 261.982 C 96.682 261.965 97.763 261.792 98.804 261.468 C 99.961 261.125 100.56 260.954 100.624 260.954 C 104.115 261.018 106.385 260.868 107.477 260.505 C 107.707 260.455 107.913 260.328 108.061 260.145 C 108.209 259.961 108.29 259.733 108.291 259.498 C 108.325 258.852 108.282 258.205 108.162 257.57 C 108.04 257.352 107.871 257.164 107.667 257.019 C 107.464 256.875 107.23 256.778 106.984 256.735 C 103.763 256.173 100.574 255.436 97.432 254.529 L 95.719 254.529 C 98.715 255.831 101.879 256.704 105.119 257.121 C 105.807 257.15 106.481 257.332 107.089 257.656 C 107.303 257.896 107.464 258.178 107.56 258.485 C 107.656 258.791 107.685 259.115 107.646 259.434 C 107.646 259.734 106.96 259.883 105.569 259.883 C 103.732 259.87 101.898 260.014 100.086 260.312 C 99.572 260.526 99.101 260.719 98.694 260.869 C 98.417 260.976 98.13 261.055 97.837 261.105 C 97.095 261.242 96.342 261.307 95.588 261.298 C 93.744 261.282 91.906 261.074 90.105 260.677 C 88.156 260.227 87.15 260.013 87.064 260.013 L 86.949 260.013 C 85.774 259.987 84.6 260.058 83.437 260.227 C 83.308 260.248 83.18 260.27 83.073 260.291 C 82.405 259.85 81.768 259.364 81.167 258.835 C 81.069 258.755 80.977 258.669 80.889 258.578 L 78.983 256.565 C 78.96 256.525 78.931 256.489 78.897 256.458 L 77.505 254.531 L 76.627 254.531 C 77.23 255.394 77.881 256.224 78.576 257.015 C 80.028 258.869 81.824 260.425 83.866 261.598 C 84.508 261.919 85.515 262.54 86.907 263.44 C 87.936 264.137 89.061 264.678 90.248 265.046 C 91.961 265.55 93.707 265.936 95.473 266.202 C 97.293 266.63 98.193 267.294 98.193 268.194 Q 98.193 268.258 98.129 268.772 C 98.108 268.856 98.094 268.942 98.087 269.029 C 96.095 270.121 95.003 270.721 94.767 270.829 C 92.06 271.858 89.181 272.36 86.286 272.307 C 82.566 272.391 78.856 271.877 75.299 270.786 C 73.686 270.23 72.153 269.467 70.737 268.516 C 70.053 268.014 69.294 267.624 68.488 267.36 Q 67.428 267.071 63.348 266.332 C 61.656 266.032 60.799 265.132 60.799 263.612 C 60.799 263.419 60.906 262.67 61.099 261.363 C 61.228 260.571 61.313 259.949 61.378 259.5 C 61.399 259.221 61.421 259.029 61.421 258.879 L 61.421 258.815 C 61.485 257.509 61.4 256.738 61.142 256.459 Z"
            fill="#000000"/>
        <path
            id="path_29"
            clip-path="url(#clip_path_29)"
            d="M 85.039 171.581 L 84.953 171.581 C 84.949 171.996 84.92 172.411 84.867 172.823 Q 84.867 177.063 85.488 192.611 C 85.574 194.988 85.659 197.13 85.724 198.993 L 86.581 198.993 C 86.495 196.293 86.367 193.403 86.196 190.298 C 85.618 181.967 85.232 175.714 85.04 171.581 Z"
            fill="#000000"/>
        <path
            id="path_30"
            clip-path="url(#clip_path_30)"
            d="M 76.109 253.691 C 75.881 253.36 75.741 252.977 75.702 252.577 C 74.396 253.091 73.025 253.584 71.633 254.077 Q 64.919 256.454 63.409 256.454 L 62.209 256.454 C 62.08 256.711 61.973 256.968 61.866 257.247 C 61.646 257.767 61.495 258.314 61.417 258.874 C 61.417 259.024 61.396 259.217 61.374 259.495 C 61.353 260.226 61.531 260.949 61.889 261.587 C 62.247 262.224 62.772 262.752 63.408 263.114 C 64.187 263.614 65.077 263.916 66 263.992 C 71.075 264.442 72.489 262.065 70.283 256.861 C 71.12 256.052 72.12 255.431 73.217 255.041 C 74.219 254.679 75.187 254.228 76.108 253.692 Z"
            fill="#fae3ff"/>
        <path
            id="path_31"
            clip-path="url(#clip_path_31)"
            d="M 61.418 258.873 C 61.496 258.313 61.647 257.766 61.867 257.246 C 61.974 256.967 62.081 256.71 62.21 256.453 L 61.139 256.453 C 61.396 256.732 61.482 257.502 61.418 258.809 L 61.418 258.873 Z"
            fill="#f7c7ff"/>
        <path
            id="path_32"
            clip-path="url(#clip_path_32)"
            d="M 61.096 261.357 C 60.903 262.664 60.796 263.413 60.796 263.606 C 60.796 265.126 61.653 266.026 63.345 266.326 Q 67.424 267.065 68.485 267.354 C 69.291 267.618 70.05 268.008 70.734 268.51 C 72.15 269.461 73.683 270.224 75.296 270.78 C 78.853 271.871 82.563 272.385 86.283 272.301 C 89.178 272.354 92.057 271.852 94.764 270.823 C 94.999 270.716 96.091 270.116 98.084 269.023 C 98.091 268.936 98.105 268.85 98.126 268.766 Q 98.19 268.252 98.19 268.188 C 98.19 267.288 97.29 266.625 95.47 266.196 C 93.704 265.93 91.958 265.544 90.245 265.04 C 89.058 264.672 87.933 264.131 86.904 263.434 C 85.512 262.534 84.504 261.913 83.863 261.592 C 81.821 260.419 80.025 258.863 78.573 257.009 C 77.658 255.976 76.834 254.865 76.11 253.689 C 75.189 254.225 74.221 254.676 73.219 255.038 C 72.122 255.428 71.122 256.049 70.285 256.858 C 72.491 262.058 71.078 264.439 66.002 263.989 C 65.08 263.913 64.19 263.611 63.411 263.111 C 62.775 262.749 62.25 262.221 61.892 261.584 C 61.534 260.946 61.356 260.223 61.377 259.492 C 61.313 259.941 61.227 260.563 61.098 261.355 Z"
            fill="#f7c7ff"/>
        <path
            id="path_33"
            clip-path="url(#clip_path_33)"
            d="M 98.446 259.28 C 98.367 259.92 98.163 260.538 97.846 261.1 C 98.139 261.05 98.426 260.971 98.703 260.864 C 99.11 260.714 99.581 260.522 100.095 260.307 C 101.907 260.009 103.741 259.865 105.578 259.878 C 106.97 259.878 107.655 259.728 107.655 259.429 C 107.694 259.11 107.665 258.786 107.569 258.48 C 107.473 258.173 107.312 257.891 107.098 257.651 C 106.49 257.327 105.816 257.145 105.128 257.116 C 101.819 256.684 98.589 255.782 95.534 254.439 C 94.677 254.054 92.878 253.069 90.116 251.505 Q 86.807 249.605 86.068 249.063 C 85.704 249.427 85.425 249.684 85.276 249.813 C 85.236 249.836 85.2 249.865 85.169 249.899 C 86.646 251.505 88.124 253.282 89.645 255.21 C 91.508 257.61 94.185 258.636 97.655 258.294 C 98.297 258.23 98.555 258.572 98.447 259.279 Z"
            fill="#f7c7ff"/>
        <path
            id="path_34"
            clip-path="url(#clip_path_34)"
            d="M 83.069 260.286 C 83.176 260.265 83.304 260.243 83.433 260.222 C 84.596 260.053 85.77 259.982 86.945 260.008 C 86.7 259.774 86.472 259.523 86.26 259.259 C 84.563 259.722 82.756 259.57 81.16 258.83 C 81.761 259.359 82.398 259.845 83.066 260.286 Z"
            fill="#f7c7ff"/>
        <path
            id="path_35"
            clip-path="url(#clip_path_35)"
            d="M 97.846 261.1 C 98.163 260.538 98.367 259.92 98.446 259.28 C 98.553 258.573 98.296 258.231 97.654 258.295 C 94.185 258.637 91.508 257.609 89.644 255.211 C 88.124 253.283 86.644 251.506 85.168 249.9 C 85.104 249.964 85.061 249.985 85.039 249.985 C 84.632 250.242 84.118 250.521 83.518 250.821 C 82.238 251.57 80.816 252.044 79.342 252.213 C 79.031 252.211 78.727 252.122 78.464 251.956 L 78.057 251.677 C 77.907 251.741 77.778 251.806 77.629 251.87 C 77.239 252.476 77.038 253.184 77.051 253.904 L 77.051 253.93 C 77.133 254.007 77.205 254.093 77.265 254.187 L 78.892 256.457 C 78.926 256.488 78.955 256.524 78.978 256.564 L 80.887 258.573 C 80.975 258.664 81.067 258.75 81.165 258.83 C 82.761 259.57 84.568 259.721 86.265 259.258 C 86.476 259.523 86.705 259.773 86.95 260.007 L 87.079 260.007 C 87.165 260.007 88.171 260.221 90.12 260.671 C 91.921 261.068 93.759 261.276 95.603 261.292 C 96.357 261.301 97.11 261.236 97.852 261.099 Z"
            fill="#fae3ff"/>
        <path
            id="path_36"
            clip-path="url(#clip_path_36)"
            d="M 75.959 252.512 C 76.259 252.876 76.623 253.326 77.051 253.904 C 77.038 253.184 77.239 252.476 77.629 251.87 L 75.958 252.512 Z"
            fill="#f7c7ff"/>
        <path
            id="path_37"
            clip-path="url(#clip_path_37)"
            d="M 127.507 72.446 L 127.421 72.446 C 127.528 72.896 127.742 73.667 128.042 74.759 C 128.249 75.544 128.372 76.348 128.406 77.159 L 128.406 77.48 C 128.31 79.834 127.98 82.172 127.421 84.461 Q 126.939 86.71 126.457 88.444 C 126.457 88.551 126.478 88.573 126.5 88.508 L 126.564 88.508 C 127.056 87.887 127.549 86.345 128.042 83.84 C 128.459 82.062 128.703 80.247 128.77 78.422 C 128.77 77.736 128.749 77.158 128.727 76.687 C 128.71 76.646 128.702 76.602 128.706 76.558 Q 128.674 76.237 128.642 75.98 C 128.621 75.873 128.621 75.787 128.599 75.701 C 128.578 75.68 128.578 75.68 128.578 75.658 C 128.313 74.559 127.954 73.484 127.507 72.446 Z"
            fill="#000000"/>
        <path
            id="path_38"
            clip-path="url(#clip_path_38)"
            d="M 120.826 78.55 L 120.697 78.293 L 119.241 76.665 C 119.455 77.008 119.669 77.351 119.862 77.693 L 120.719 79.342 C 120.75 79.423 120.785 79.502 120.826 79.578 C 120.997 79.985 121.169 80.413 121.319 80.82 C 122.331 83.841 122.802 87.017 122.711 90.201 C 122.711 91.701 122.732 92.685 122.775 93.178 Q 122.775 93.114 122.904 93.114 C 123.116 92.122 123.202 91.107 123.161 90.094 C 123.252 86.871 122.766 83.658 121.726 80.607 C 121.47 79.903 121.17 79.216 120.826 78.551 Z"
            fill="#000000"/>
        <path
            id="path_39"
            clip-path="url(#clip_path_39)"
            d="M 123.781 115.364 Q 124.809 108.297 121.04 104.142 C 120.633 104.163 120.398 104.334 120.355 104.656 C 118.346 116.804 117.821 129.152 118.791 141.427 C 119.094 145.261 119.13 149.111 118.898 152.949 C 118.725 154.499 119.064 156.064 119.862 157.404 C 119.864 157.282 119.879 157.16 119.905 157.04 L 120.205 154.085 Q 120.944 147.21 122.218 138.751 C 122.234 138.703 122.241 138.652 122.239 138.601 C 122.303 138.259 122.346 137.937 122.389 137.616 L 123.31 131.577 C 123.306 131.512 123.313 131.447 123.331 131.384 L 123.331 131.363 C 123.288 129.757 123.245 128.172 123.181 126.563 C 123.036 122.819 123.237 119.07 123.781 115.363 Z"
            fill="#f7c7ff"/>
        <path
            id="path_40"
            clip-path="url(#clip_path_40)"
            d="M 129.713 88.401 C 129.594 88.419 129.482 88.468 129.388 88.544 C 129.294 88.619 129.222 88.717 129.178 88.829 C 127.548 92.949 127.074 97.437 127.807 101.807 C 128.107 103.841 129.007 104.099 130.484 102.599 C 130.729 102.357 130.958 102.1 131.17 101.828 C 131.191 101.764 131.191 101.721 131.213 101.657 L 132.626 97.074 L 132.755 96.625 L 132.755 96.604 C 132.862 93.092 131.855 90.351 129.714 88.404 Z"
            fill="#f7c7ff"/>
        <path
            id="path_41"
            clip-path="url(#clip_path_41)"
            d="M 168.583 31.884 C 170.192 32.976 171.586 34.355 172.695 35.953 C 173.934 37.247 174.96 38.728 175.736 40.343 C 176.325 41.722 176.673 43.193 176.764 44.69 C 176.853 45.701 176.889 46.716 176.871 47.731 L 177.171 47.731 C 177.15 46.425 177.085 45.011 176.978 43.448 C 176.678 39.748 174.344 36.148 169.996 32.611 Q 163.443 27.311 153.227 27.664 C 150.077 27.983 146.998 28.799 144.104 30.084 C 142.008 30.968 140.08 32.207 138.404 33.746 C 138.104 34.153 137.804 34.539 137.483 34.924 C 136.883 35.331 136.327 35.738 135.791 36.102 C 134.793 36.889 133.672 37.504 132.472 37.923 C 131.26 38.073 130.15 38.678 129.367 39.615 C 128.988 40.379 128.513 41.091 127.954 41.735 C 127.772 41.73 127.59 41.76 127.418 41.821 L 127.354 41.821 L 127.354 41.868 C 127.16 41.933 126.984 42.043 126.84 42.189 Q 126.358 42.542 126.326 42.767 C 125.233 42.732 124.139 42.832 123.071 43.067 C 122.755 43.287 122.426 43.487 122.086 43.667 C 121.449 43.983 120.833 44.34 120.244 44.738 C 119.642 45.123 118.995 45.433 118.317 45.659 C 116.625 46.13 115.083 46.601 113.648 47.073 C 113.158 47.268 112.679 47.489 112.213 47.737 L 113.691 47.737 C 114.432 47.412 115.19 47.126 115.961 46.88 Q 118.209 46.206 118.723 45.98 C 119.511 45.714 120.255 45.332 120.929 44.845 C 121.771 44.249 122.704 43.794 123.692 43.496 C 124.189 43.429 124.691 43.408 125.192 43.432 C 126.07 43.368 126.606 43.175 126.841 42.832 C 126.954 42.629 127.126 42.465 127.333 42.361 C 127.309 42.4 127.294 42.444 127.29 42.49 C 127.483 42.511 127.611 42.533 127.697 42.533 C 128.361 42.533 128.982 41.741 129.539 40.133 C 129.625 39.812 130.182 39.469 131.188 39.062 C 131.702 38.827 132.366 38.57 133.158 38.27 C 133.308 38.184 133.5 38.077 133.715 37.97 C 133.896 37.871 134.091 37.799 134.293 37.756 C 134.837 37.362 135.401 36.996 135.983 36.66 C 136.09 36.596 136.176 36.531 136.262 36.489 C 135.919 36.917 135.577 37.346 135.255 37.753 C 135.79 37.26 136.433 36.661 137.225 35.953 L 137.268 35.932 C 137.289 35.911 137.311 35.868 137.332 35.846 L 137.396 35.782 C 137.888 35.332 138.424 34.839 139.023 34.304 C 140.459 32.949 142.1 31.829 143.885 30.984 C 147.618 29.112 151.745 28.157 155.921 28.2 C 160.425 28.051 164.862 29.342 168.583 31.884 Z"
            fill="#000000"/>
        <path
            id="path_42"
            clip-path="url(#clip_path_42)"
            d="M 159.417 45.697 L 156.933 47.089 C 156.654 47.282 156.397 47.496 156.119 47.731 L 156.997 47.731 L 157.554 47.26 L 157.64 47.174 C 158.377 46.621 159.142 46.106 159.932 45.632 C 159.932 45.568 159.911 45.525 159.889 45.525 L 159.846 45.525 C 159.7 45.573 159.557 45.63 159.418 45.696 Z"
            fill="#000000"/>
        <path
            id="path_43"
            clip-path="url(#clip_path_43)"
            d="M 113.694 47.732 L 112.216 47.732 C 111.852 47.903 111.445 48.096 110.995 48.332 C 110.321 48.71 109.628 49.053 108.918 49.36 C 106.541 49.36 104.935 49.617 104.1 50.109 C 103.72 50.582 103.312 51.032 102.879 51.458 C 103.251 51.396 103.6 51.233 103.886 50.987 C 104.228 50.719 104.593 50.482 104.978 50.28 C 105.804 49.993 106.674 49.855 107.548 49.873 C 108.492 49.893 109.426 49.68 110.268 49.252 C 111.153 48.777 112.069 48.363 113.01 48.01 C 113.245 47.903 113.481 47.817 113.695 47.731 Z"
            fill="#000000"/>
        <path
            id="path_44"
            clip-path="url(#clip_path_44)"
            d="M 177.171 47.732 L 176.871 47.732 C 176.799 50.475 176.308 53.19 175.415 55.785 C 174.88 57.412 174.323 58.997 173.766 60.518 C 173.694 60.585 173.64 60.67 173.61 60.764 C 173.58 60.857 173.575 60.958 173.595 61.054 L 173.552 61.054 L 173.552 61.204 C 173.584 61.453 173.68 61.689 173.831 61.889 C 173.956 62.138 174.043 62.406 174.088 62.681 C 174.088 62.895 173.917 63.174 173.552 63.538 C 173.359 63.73 173.209 63.88 173.081 63.987 L 169.826 62.616 C 166.466 61.116 162.839 60.308 159.16 60.239 C 156.319 60.235 153.49 60.602 150.744 61.331 C 149.729 61.577 148.734 61.9 147.767 62.295 C 148.217 60.989 148.902 59.361 149.78 57.412 C 150.709 55.295 151.888 53.296 153.292 51.459 C 153.86 50.714 154.483 50.012 155.155 49.359 L 155.155 49.338 C 155.243 49.247 155.336 49.161 155.434 49.081 L 156.998 47.732 L 156.12 47.732 C 153.516 50.135 151.406 53.023 149.909 56.234 C 149.02 57.931 148.24 59.684 147.575 61.481 C 146.767 63.505 146.241 65.631 146.012 67.799 L 146.376 67.799 C 146.559 66.269 146.896 64.761 147.383 63.299 C 147.447 63.106 147.533 62.913 147.597 62.721 C 147.961 62.614 148.989 62.25 150.638 61.65 C 153.427 60.969 156.291 60.645 159.162 60.686 C 162.86 60.764 166.504 61.595 169.87 63.128 C 170.02 63.192 170.191 63.278 170.341 63.342 C 170.705 63.492 171.09 63.663 171.455 63.813 C 171.176 64.006 170.813 64.306 170.341 64.713 C 170.294 64.774 170.236 64.825 170.17 64.863 C 169.63 65.394 169.042 65.875 168.414 66.298 C 168.019 66.536 167.604 66.737 167.172 66.898 C 166.551 67.155 166.187 67.305 166.058 67.348 C 165.48 67.498 165.009 67.648 164.602 67.798 L 165.373 67.798 C 165.565 67.734 165.737 67.648 165.93 67.584 Q 166.83 67.23 168.564 66.62 C 169.271 66.063 169.87 65.592 170.341 65.206 C 170.837 64.828 171.283 64.389 171.669 63.9 C 172.033 64.05 172.397 64.221 172.761 64.371 L 172.74 64.414 C 172.851 64.459 172.965 64.495 173.082 64.521 C 173.318 64.607 173.532 64.713 173.768 64.821 L 173.661 64.521 C 173.94 64.35 174.157 64.095 174.282 63.793 C 174.489 63.452 174.586 63.056 174.561 62.658 C 174.471 62.198 174.32 61.751 174.112 61.331 L 174.154 61.31 C 175.448 58.475 176.384 55.489 176.938 52.422 C 177.125 50.866 177.204 49.299 177.174 47.732 Z"
            fill="#000000"/>
        <path
            id="path_45"
            clip-path="url(#clip_path_45)"
            d="M 146.375 67.799 L 146.011 67.799 C 145.995 67.847 145.988 67.898 145.99 67.949 C 145.969 68.335 145.947 68.699 145.947 69.063 C 145.947 69.234 145.968 69.749 146.033 70.627 C 145.982 70.91 145.961 71.197 145.969 71.484 C 145.969 71.548 146.183 72.426 146.59 74.118 C 146.763 74.642 147.008 75.139 147.318 75.595 C 146.949 75.764 146.546 75.845 146.14 75.831 C 145.729 75.827 145.322 75.747 144.94 75.595 C 144.587 75.446 144.209 75.366 143.826 75.36 L 143.633 75.36 C 143.312 75.402 143.14 75.51 143.14 75.702 C 143.14 75.809 143.161 75.852 143.183 75.831 C 143.263 75.839 143.342 75.853 143.419 75.874 L 143.355 75.938 C 143.294 76.078 143.191 76.196 143.061 76.277 C 142.931 76.357 142.78 76.396 142.627 76.388 L 142.177 76.388 C 141.775 77.552 141.165 78.633 140.377 79.579 C 139.22 80.949 138.407 81.956 137.957 82.599 C 137.293 83.563 136.115 85.599 134.445 88.745 C 134.68 83.884 133.353 78.808 130.504 73.561 L 130.44 73.561 C 131.488 75.992 132.396 78.48 133.16 81.014 C 133.754 83.337 134.042 85.727 134.017 88.124 L 133.888 89.924 L 133.931 90.138 L 134.124 90.181 C 134.197 90.177 134.269 90.163 134.338 90.138 C 134.317 90.159 134.295 90.181 134.295 90.202 C 133.974 91.979 133.459 94.121 132.753 96.602 L 132.753 96.623 L 132.624 97.072 L 131.211 101.655 C 131.19 101.719 131.19 101.762 131.168 101.826 C 130.59 103.561 129.968 105.403 129.262 107.394 C 129.198 107.586 129.134 107.758 129.07 107.951 L 129.819 107.951 C 130.654 105.467 131.446 102.961 132.239 100.413 C 133.866 95.059 134.68 91.718 134.68 90.369 C 134.683 90.089 134.662 89.809 134.616 89.533 C 135.061 88.43 135.591 87.363 136.201 86.342 C 137.186 84.736 137.893 83.558 138.301 82.809 C 138.701 82.167 139.152 81.558 139.65 80.988 C 140.442 80.046 140.935 79.425 141.127 79.146 L 142.284 77.346 C 142.551 76.989 142.86 76.665 143.205 76.382 C 143.39 76.24 143.562 76.083 143.719 75.911 C 144.017 75.932 144.312 75.99 144.597 76.082 C 145.117 76.204 145.648 76.269 146.182 76.275 C 146.598 76.266 147.004 76.148 147.359 75.932 C 147.415 75.907 147.472 75.886 147.53 75.868 C 147.698 76.104 147.919 76.298 148.176 76.432 C 148.433 76.566 148.718 76.637 149.008 76.639 C 149.605 76.589 150.173 76.357 150.635 75.975 C 150.959 75.736 151.295 75.514 151.642 75.311 C 151.932 75.295 152.222 75.331 152.499 75.418 C 152.636 75.493 152.791 75.53 152.948 75.525 C 153.398 75.525 153.634 75.118 153.634 74.283 C 153.784 74.304 154.019 74.368 154.362 74.454 C 154.602 74.441 154.835 74.372 155.043 74.254 C 155.251 74.135 155.429 73.969 155.562 73.769 C 155.969 73.276 156.226 73.041 156.354 73.041 C 156.661 73.232 156.941 73.463 157.189 73.726 C 157.365 73.815 157.53 73.922 157.682 74.047 C 157.99 74.239 158.347 74.336 158.71 74.326 C 159.31 74.326 160.166 73.49 161.259 71.799 C 161.858 70.773 162.53 69.793 163.272 68.865 C 163.939 68.448 164.642 68.089 165.372 67.794 L 164.603 67.794 C 164.194 67.928 163.805 68.115 163.446 68.351 C 162.414 69.283 161.539 70.375 160.855 71.585 C 159.87 73.106 159.078 73.877 158.478 73.877 C 158.038 73.785 157.639 73.552 157.343 73.213 C 157.07 72.933 156.752 72.701 156.401 72.527 C 156.165 72.527 155.823 72.784 155.33 73.277 C 154.88 73.769 154.559 74.005 154.366 74.005 C 154.17 73.989 153.98 73.931 153.809 73.834 C 153.675 73.732 153.522 73.659 153.359 73.62 C 153.166 73.62 153.08 74.091 153.08 75.034 L 152.887 75.077 L 151.56 74.863 C 151.143 74.983 150.766 75.212 150.468 75.527 C 150.058 75.913 149.529 76.147 148.968 76.191 C 148.749 76.167 148.54 76.087 148.36 75.96 C 148.18 75.832 148.036 75.662 147.94 75.463 L 147.94 75.378 C 147.94 75.335 147.897 75.292 147.833 75.249 C 147.572 74.842 147.363 74.403 147.212 73.943 C 146.848 72.722 146.569 71.78 146.398 71.137 C 146.414 70.981 146.421 70.823 146.419 70.666 L 146.291 69.21 C 146.289 68.738 146.317 68.266 146.376 67.797 Z"
            fill="#000000"/>
        <path
            id="path_46"
            clip-path="url(#clip_path_46)"
            d="M 110.16 78.297 C 111.274 79.946 112.109 81.297 112.644 82.297 C 113.313 83.578 113.914 84.893 114.444 86.237 C 115.006 87.55 115.346 88.947 115.451 90.371 Q 115.451 90.885 115.387 92.041 L 115.387 92.341 C 115.344 92.876 115.301 93.498 115.237 94.204 C 115.045 94.311 114.937 94.804 114.937 95.725 Q 114.937 99.612 115.451 107.29 C 115.472 107.526 115.472 107.739 115.494 107.954 L 115.901 107.954 Q 115.387 100.277 115.387 98.381 L 115.237 96.239 C 115.535 95.097 115.714 93.927 115.773 92.748 Q 115.902 90.853 115.902 89.986 C 115.902 88.123 114.853 85.296 112.754 81.462 C 111.719 79.536 110.53 77.697 109.199 75.962 C 108.688 75.315 108.114 74.719 107.486 74.185 C 107.507 74.206 107.507 74.228 107.529 74.249 L 109.413 77.183 C 109.434 77.183 109.434 77.183 109.434 77.204 C 109.67 77.547 109.905 77.911 110.162 78.296 Z M 115.236 94.252 C 115.215 94.531 115.193 94.83 115.172 95.173 L 115.129 94.595 C 115.129 94.445 115.15 94.359 115.215 94.316 L 115.236 94.252 Z"
            fill="#000000"/>
        <path
            id="path_47"
            clip-path="url(#clip_path_47)"
            d="M 98.424 102.429 C 99.276 100.035 100.278 97.697 101.424 95.429 Q 103.544 90.996 103.673 90.546 C 101.362 93.998 99.538 97.753 98.255 101.704 C 97.398 104.104 96.606 106.18 95.878 107.957 L 96.692 107.957 Q 97.88 104.23 98.427 102.432 Z"
            fill="#000000"/>
        <path
            id="path_48"
            clip-path="url(#clip_path_48)"
            d="M 115.9 107.952 L 115.493 107.952 C 115.643 110.052 115.75 111.892 115.836 113.499 C 115.322 114.27 114.487 115.662 113.309 117.675 C 112.088 119.731 111.06 121.337 110.204 122.515 C 109.519 123.479 108.127 125.363 106.028 128.147 C 105.016 129.374 104.133 130.701 103.394 132.109 C 103.394 133.287 102.13 136.092 99.603 140.483 C 98.318 142.689 96.99 144.873 95.603 147.036 C 95.41 147.357 95.196 147.7 94.96 148.107 L 95.731 148.107 C 95.758 148.032 95.794 147.96 95.838 147.893 C 97.723 144.745 99.307 142.046 100.571 139.84 C 103.013 135.664 104.233 133.287 104.233 132.73 C 104.233 132.194 105.197 130.567 107.124 127.83 C 109.18 125.003 110.336 123.397 110.593 123.03 C 111.278 122.023 112.328 120.31 113.763 117.93 C 114.77 116.238 115.476 115.017 115.863 114.225 C 115.927 115.66 115.97 116.859 115.97 117.866 C 114.676 119.428 113.563 121.13 112.65 122.941 C 111.619 125.007 110.408 126.978 109.031 128.831 C 107.651 130.626 106.48 132.571 105.541 134.631 C 104.063 137.651 103.078 139.557 102.585 140.392 Q 101.268 142.416 98.473 146.367 C 98.023 146.988 97.616 147.567 97.231 148.102 L 97.917 148.102 Q 98.334 147.491 98.817 146.817 Q 102.383 141.966 103.057 140.906 C 104.206 139.031 105.236 137.085 106.141 135.081 C 107.064 133.023 108.206 131.07 109.546 129.256 C 110.946 127.402 112.183 125.432 113.246 123.367 C 114.338 121.204 115.195 119.49 115.859 118.227 C 115.886 118.159 115.922 118.094 115.966 118.035 L 115.966 118.292 C 115.966 118.613 115.816 120.455 115.495 123.792 C 115.174 127.112 115.003 130.003 115.003 132.487 C 115.003 132.508 115.345 137.587 116.031 147.671 C 116.052 147.821 116.052 147.95 116.074 148.1 L 116.759 148.1 C 116.738 147.95 116.716 147.779 116.695 147.607 C 116.073 142.59 115.73 137.542 115.667 132.487 C 115.546 130.638 115.581 128.783 115.774 126.94 C 115.817 126.491 115.967 125.484 116.245 123.92 C 116.434 123.003 116.542 122.072 116.566 121.136 C 116.566 118.587 116.373 114.476 115.966 108.843 L 115.902 107.943 Z"
            fill="#000000"/>
        <path
            id="path_49"
            clip-path="url(#clip_path_49)"
            d="M 96.539 108.425 C 96.599 108.271 96.649 108.114 96.689 107.954 L 95.875 107.954 C 95.121 109.863 94.218 111.711 93.175 113.479 C 92.297 114.871 90.926 116.906 89.042 119.579 C 87.741 121.354 86.662 123.282 85.83 125.319 C 85.097 127.629 84.538 129.992 84.16 132.386 C 83.576 133.459 83.061 134.568 82.618 135.706 C 81.997 137.27 81.033 139.646 79.748 142.816 C 78.806 144.786 78.034 146.542 77.414 148.106 L 78.163 148.106 C 78.18 148.054 78.202 148.004 78.227 147.956 C 78.236 147.918 78.25 147.882 78.27 147.849 C 78.463 147.356 78.634 146.864 78.827 146.393 C 79.319 145.172 79.791 144.037 80.262 143.031 C 80.669 142.153 81.44 140.183 82.618 137.099 C 83.046 135.942 83.475 134.915 83.882 134.015 C 83.711 134.979 83.539 136.028 83.346 137.163 C 83.355 137.546 83.458 137.921 83.646 138.255 L 83.71 138.148 C 83.774 137.869 84.245 135.878 85.166 132.148 C 85.359 131.164 85.495 130.17 85.573 129.171 C 85.661 128.156 85.899 127.161 86.28 126.216 C 88.285 121.987 90.732 117.981 93.58 114.266 C 94.853 112.477 95.849 110.506 96.535 108.42 Z"
            fill="#000000"/>
        <path
            id="path_50"
            clip-path="url(#clip_path_50)"
            d="M 97.911 148.109 L 97.225 148.109 C 96.176 149.586 95.362 150.871 94.741 151.942 C 93.588 153.949 92.277 155.861 90.822 157.66 C 90.001 158.787 89.318 160.01 88.788 161.3 C 88.167 162.649 87.482 163.334 86.732 163.334 C 86.57 163.184 86.391 163.055 86.197 162.949 C 86.176 162.949 86.154 162.97 86.133 162.992 C 86.001 162.814 85.814 162.684 85.602 162.622 C 85.389 162.56 85.162 162.57 84.955 162.649 C 84.955 162.885 85.126 163.12 85.447 163.356 C 85.64 163.506 85.854 163.677 86.133 163.892 C 86.056 164.006 85.991 164.128 85.94 164.256 C 85.91 164.326 85.858 164.384 85.793 164.422 C 85.727 164.461 85.651 164.477 85.576 164.47 C 85.269 164.443 84.985 164.297 84.784 164.063 C 84.76 164.024 84.731 163.988 84.698 163.956 C 84.763 163.831 84.82 163.702 84.869 163.57 C 84.923 163.288 84.944 163 84.933 162.713 L 84.933 162.67 C 84.89 162.52 84.847 162.413 84.826 162.327 C 84.783 162.092 84.869 161.963 85.062 161.942 C 86.368 161.706 87.118 161.406 87.311 161.085 C 87.445 160.755 87.538 160.41 87.589 160.057 C 87.618 159.711 87.753 159.382 87.975 159.115 C 88.511 158.517 88.991 157.872 89.41 157.188 C 90.074 156.181 90.502 155.561 90.652 155.346 C 91.958 153.611 92.879 152.369 93.458 151.598 C 94.275 150.475 95.033 149.31 95.728 148.107 L 94.957 148.107 C 94.465 148.856 93.865 149.777 93.115 150.827 C 91.83 152.647 90.973 153.911 90.524 154.596 C 90.031 155.345 89.153 156.609 87.868 158.386 C 87.402 158.926 87.046 159.552 86.819 160.228 C 86.755 160.935 86.348 161.235 85.577 161.085 C 85.381 161.01 85.167 160.997 84.964 161.049 C 84.761 161.101 84.579 161.215 84.443 161.375 C 84.308 161.535 84.225 161.733 84.207 161.942 C 82.52 160.676 80.917 159.303 79.407 157.83 C 77.951 156.438 76.987 155.517 76.495 155.067 C 76.495 155.05 76.499 155.034 76.507 155.019 C 76.514 155.004 76.525 154.991 76.538 154.981 C 76.479 154.957 76.422 154.928 76.367 154.895 C 76.329 154.864 76.3 154.825 76.281 154.78 C 76.262 154.735 76.255 154.686 76.26 154.638 C 76.337 153.607 76.553 152.591 76.902 151.618 Q 77.288 150.365 77.93 148.727 C 77.951 148.684 77.951 148.641 77.973 148.598 C 77.994 148.534 78.037 148.448 78.059 148.384 C 78.082 148.287 78.118 148.193 78.166 148.106 L 77.417 148.106 C 76.468 150.191 75.881 152.423 75.682 154.706 C 75.688 154.828 75.725 154.946 75.789 155.049 C 75.725 155.585 75.597 156.27 75.425 157.149 L 76.132 157.877 C 74.67 159.608 73.662 161.676 73.198 163.894 C 72.899 165.311 72.706 166.748 72.62 168.194 L 73.134 168.194 C 73.134 167.915 73.134 167.658 73.155 167.466 C 73.196 166.394 73.361 165.33 73.647 164.296 C 74.098 162.95 74.664 161.645 75.339 160.396 Q 76.139 158.886 76.431 158.212 C 76.966 158.79 77.737 159.604 78.744 160.696 C 80.001 162.081 81.505 163.221 83.177 164.058 C 82.77 164.486 82.32 165.858 81.807 168.191 L 82.449 168.191 L 82.513 167.741 C 83.305 163.008 83.541 162.708 83.262 166.841 Q 83.519 164.817 83.519 164.464 C 83.494 164.359 83.48 164.251 83.476 164.143 C 83.642 164.199 83.815 164.228 83.99 164.229 L 84.161 164.229 C 84.24 164.323 84.312 164.423 84.375 164.529 C 84.582 164.725 84.831 164.872 85.103 164.958 L 85.06 164.979 C 84.757 166.029 84.549 167.104 84.439 168.191 L 85.039 168.191 C 85.103 167.142 85.125 166.135 85.125 165.129 L 85.125 164.958 L 85.168 164.979 C 85.444 165.025 85.723 165.046 86.003 165.043 C 86.089 165.043 86.303 164.657 86.645 163.908 L 87.095 163.908 C 87.716 163.908 88.444 163.073 89.279 161.424 C 90.264 159.432 90.779 158.424 90.821 158.383 C 92.535 156.649 94.005 154.689 95.19 152.558 C 96.008 151.021 96.916 149.534 97.91 148.104 Z M 76.324 157.639 C 76.194 157.511 76.092 157.358 76.024 157.189 C 76.068 156.585 76.146 155.984 76.26 155.389 C 77.596 157.09 79.127 158.628 80.822 159.972 C 83.071 161.921 84.205 162.949 84.205 163.013 C 84.215 163.191 84.178 163.368 84.098 163.527 C 84.061 163.529 84.025 163.521 83.991 163.506 C 82.424 162.598 80.947 161.544 79.579 160.358 C 78.534 159.57 77.533 158.727 76.579 157.831 L 76.579 157.531 L 76.429 157.488 C 76.386 157.552 76.343 157.595 76.322 157.638 Z"
            fill="#000000"/>
        <path
            id="path_51"
            clip-path="url(#clip_path_51)"
            d="M 81.805 168.202 C 81.784 168.223 81.784 168.223 81.784 168.245 C 81.227 170.579 80.692 172.892 80.199 175.205 C 79.685 177.518 79.107 179.767 78.443 181.951 C 78.379 182.144 78.164 183.129 77.779 184.951 C 77.556 185.715 77.087 186.384 76.444 186.853 C 75.8 187.322 75.02 187.565 74.224 187.543 Q 73.774 187.543 73.71 186.965 L 73.71 186.065 C 73.71 185.594 73.903 183.795 74.267 180.647 C 74.631 177.585 74.802 176.021 74.802 176 C 74.828 175.655 74.745 175.31 74.566 175.014 C 74.288 175.957 73.924 177.434 73.431 179.469 C 73.039 180.96 72.394 182.372 71.525 183.645 C 71.503 183.698 71.466 183.743 71.418 183.774 C 71.363 183.692 71.34 183.593 71.354 183.496 Q 71.354 183.207 72.125 177.971 C 72.66 174.287 72.982 171.871 73.046 170.689 C 73.067 169.682 73.11 168.847 73.132 168.205 L 72.618 168.205 Q 72.554 169.233 72.489 170.454 C 72.351 172.91 72.065 175.356 71.632 177.778 C 71.054 181.504 70.775 183.411 70.775 183.496 L 70.775 183.988 C 70.839 184.267 71.096 184.395 71.524 184.395 C 72.124 184.395 72.616 183.967 73.024 183.131 C 73.119 182.931 73.198 182.723 73.26 182.51 C 73.517 181.31 73.667 180.561 73.731 180.283 C 73.731 180.262 73.752 180.262 73.774 180.262 L 73.774 180.219 L 73.817 180.326 C 73.753 180.669 73.667 181.375 73.538 182.426 C 73.495 182.683 73.453 182.94 73.388 183.218 C 73.218 184.202 73.124 185.197 73.109 186.195 L 73.109 187.223 C 73.13 187.517 73.264 187.791 73.484 187.987 C 73.704 188.183 73.993 188.286 74.287 188.272 C 74.447 188.259 74.601 188.208 74.736 188.122 C 74.871 188.032 75.025 187.974 75.186 187.951 C 76.428 187.951 77.435 186.923 78.186 184.846 C 78.764 182.854 79.3 181.098 79.792 179.599 C 79.633 180.813 79.547 182.036 79.535 183.261 C 79.525 183.659 79.576 184.056 79.685 184.439 C 79.771 184.674 79.92 185.103 80.156 185.745 C 80.148 185.753 80.142 185.764 80.138 185.775 C 80.135 185.786 80.134 185.797 80.135 185.809 C 80.135 186.045 80.135 186.152 80.156 186.152 L 80.499 186.195 C 80.575 186.106 80.647 186.013 80.713 185.916 C 80.891 185.783 81.032 185.606 81.12 185.402 C 81.126 185.365 81.118 185.327 81.099 185.295 C 82.545 182.433 83.535 179.363 84.033 176.195 C 84.333 174.589 84.568 173.047 84.761 171.548 L 84.761 171.527 C 84.89 170.392 84.975 169.3 85.04 168.207 L 84.44 168.207 C 84.376 168.742 84.311 169.342 84.269 169.963 C 84.161 172.196 83.918 174.42 83.541 176.623 C 83.088 178.791 82.457 180.919 81.656 182.984 C 80.714 185.447 80.328 186.068 80.478 184.847 C 80.276 184.629 80.119 184.372 80.016 184.093 C 79.913 183.814 79.866 183.517 79.878 183.22 C 79.942 182.042 79.963 181.42 79.963 181.399 C 79.963 181.249 80.027 180.799 80.134 180.05 C 80.228 179.622 80.198 179.176 80.048 178.765 L 80.027 178.765 C 80.13 178.392 80.259 178.027 80.413 177.673 C 81.303 174.567 81.982 171.404 82.447 168.207 Z"
            fill="#000000"/>
        <path
            id="path_52"
            clip-path="url(#clip_path_52)"
            d="M 122.386 137.615 C 122.343 137.936 122.3 138.258 122.236 138.6 C 122.238 138.651 122.231 138.702 122.215 138.75 C 121.722 142.05 121.273 145.175 120.909 148.109 L 121.573 148.109 C 122.687 139.178 123.629 131.961 124.421 126.414 C 124.898 123.358 125.636 120.349 126.627 117.419 Q 128.651 111.348 129.647 108.425 C 129.711 108.275 129.754 108.104 129.818 107.954 L 129.069 107.954 Q 124.86 119.872 124.207 125.044 C 123.971 126.864 123.672 128.963 123.329 131.362 L 123.329 131.383 C 123.311 131.446 123.304 131.511 123.308 131.576 L 122.386 137.615 Z"
            fill="#000000"/>
        <path
            id="path_53"
            clip-path="url(#clip_path_53)"
            d="M 116.756 148.109 L 116.071 148.109 Q 117.484 162.821 119.348 162.822 C 119.498 162.822 119.562 162.801 119.583 162.736 C 119.583 162.672 119.604 162.65 119.626 162.65 C 119.651 162.581 119.665 162.509 119.669 162.436 L 119.776 162.436 C 119.819 162.072 119.862 161.708 119.905 161.365 C 119.945 161.14 120.002 160.918 120.076 160.701 L 120.012 160.701 C 120.548 156.182 121.083 151.985 121.576 148.108 L 120.912 148.108 Q 120.494 151.224 120.205 154.083 L 119.905 157.038 C 119.626 159.629 119.456 160.957 119.413 161.022 C 119.392 161.065 119.349 161.172 119.242 161.364 C 119.201 161.414 119.171 161.472 119.156 161.535 L 119.156 161.406 C 117.981 157.049 117.178 152.599 116.756 148.106 Z"
            fill="#000000"/>
        <path
            id="path_54"
            clip-path="url(#clip_path_54)"
            d="M 170.337 63.345 C 170.187 63.281 170.016 63.195 169.866 63.131 C 166.5 61.6 162.857 60.77 159.16 60.693 C 156.289 60.652 153.425 60.976 150.636 61.657 C 148.987 62.257 147.959 62.621 147.595 62.728 C 147.531 62.921 147.445 63.114 147.381 63.306 C 146.715 65.208 146.346 67.202 146.289 69.217 L 146.417 70.673 C 146.419 70.83 146.412 70.988 146.396 71.144 C 146.567 71.787 146.846 72.729 147.21 73.95 C 147.361 74.41 147.57 74.849 147.831 75.256 C 147.895 75.299 147.938 75.342 147.938 75.385 L 147.938 75.47 C 148.034 75.669 148.178 75.839 148.358 75.967 C 148.538 76.094 148.747 76.174 148.966 76.198 C 149.527 76.154 150.056 75.92 150.466 75.534 C 150.764 75.219 151.141 74.99 151.558 74.87 L 152.885 75.084 L 153.078 75.041 C 153.078 74.099 153.164 73.627 153.357 73.627 C 153.52 73.666 153.673 73.739 153.807 73.841 C 153.978 73.938 154.168 73.996 154.364 74.012 C 154.557 74.012 154.878 73.776 155.328 73.284 C 155.821 72.791 156.163 72.534 156.399 72.534 C 156.75 72.708 157.068 72.94 157.341 73.22 C 157.637 73.559 158.036 73.792 158.476 73.884 C 159.076 73.884 159.868 73.113 160.853 71.592 C 161.537 70.382 162.412 69.29 163.444 68.358 C 164.257 67.888 165.139 67.548 166.057 67.351 C 166.186 67.308 166.55 67.158 167.171 66.901 C 167.603 66.74 168.018 66.539 168.413 66.301 C 169.041 65.878 169.629 65.397 170.169 64.866 C 170.235 64.828 170.293 64.777 170.34 64.716 C 170.811 64.309 171.175 64.009 171.454 63.816 C 171.09 63.666 170.705 63.495 170.34 63.345 Z"
            fill="#fde7b5"/>
        <path
            id="path_55"
            clip-path="url(#clip_path_55)"
            d="M 90.65 155.348 C 90.5 155.562 90.072 156.183 89.408 157.19 C 88.989 157.874 88.509 158.519 87.973 159.117 C 87.751 159.384 87.616 159.713 87.587 160.059 C 87.536 160.412 87.443 160.757 87.309 161.087 C 87.116 161.408 86.366 161.708 85.06 161.944 C 84.867 161.965 84.781 162.094 84.824 162.329 C 84.845 162.415 84.888 162.522 84.931 162.672 L 84.952 162.651 C 85.159 162.572 85.386 162.562 85.599 162.624 C 85.811 162.686 85.998 162.816 86.13 162.994 C 86.151 162.973 86.173 162.951 86.194 162.951 C 86.388 163.057 86.567 163.186 86.729 163.336 C 87.478 163.336 88.164 162.651 88.785 161.302 C 89.315 160.012 89.998 158.789 90.819 157.662 C 92.274 155.863 93.585 153.951 94.738 151.944 C 95.88 150.023 97.123 148.164 98.464 146.376 Q 101.259 142.425 102.576 140.401 C 103.069 139.566 104.054 137.66 105.532 134.64 C 106.471 132.58 107.642 130.635 109.022 128.84 C 110.399 126.987 111.61 125.016 112.641 122.95 C 113.553 121.139 114.667 119.437 115.961 117.875 C 115.961 116.868 115.918 115.669 115.854 114.234 C 115.468 115.026 114.762 116.247 113.754 117.939 C 112.319 120.316 111.27 122.029 110.584 123.039 C 110.327 123.403 109.17 125.009 107.115 127.839 C 105.188 130.58 104.224 132.208 104.224 132.739 C 104.224 133.296 103.003 135.673 100.562 139.849 C 99.298 142.055 97.714 144.749 95.829 147.902 C 95.109 149.181 94.316 150.416 93.452 151.602 C 92.874 152.373 91.952 153.615 90.646 155.35 Z"
            fill="#eb4ce0"/>
        <path
            id="path_56"
            clip-path="url(#clip_path_56)"
            d="M 84.932 162.672 L 84.932 162.715 C 84.943 163.002 84.922 163.29 84.868 163.572 C 84.819 163.704 84.762 163.833 84.697 163.958 C 84.73 163.99 84.759 164.026 84.783 164.065 C 84.984 164.299 85.268 164.445 85.575 164.472 C 85.65 164.479 85.726 164.463 85.792 164.424 C 85.857 164.386 85.909 164.328 85.939 164.258 C 85.99 164.13 86.055 164.008 86.132 163.894 C 85.853 163.68 85.639 163.508 85.446 163.358 C 85.125 163.123 84.954 162.887 84.954 162.651 L 84.933 162.672 Z"
            fill="#f7c7ff"/>
        <path
            id="path_57"
            clip-path="url(#clip_path_57)"
            d="M 76.023 157.19 C 76.091 157.359 76.193 157.512 76.323 157.64 C 76.344 157.597 76.387 157.554 76.43 157.49 L 76.58 157.533 L 76.58 157.833 C 77.534 158.729 78.535 159.572 79.58 160.36 C 80.948 161.546 82.425 162.6 83.992 163.508 L 84.206 163.016 C 84.206 162.952 83.071 161.924 80.822 159.975 C 79.126 158.631 77.593 157.092 76.256 155.391 C 76.142 155.986 76.064 156.587 76.02 157.191 Z"
            fill="#f7c7ff"/>
        <path
            id="path_58"
            clip-path="url(#clip_path_58)"
            d="M 73.046 170.682 C 72.982 171.859 72.66 174.282 72.125 177.963 Q 71.354 183.199 71.354 183.488 L 71.525 183.638 C 72.394 182.365 73.039 180.953 73.431 179.462 C 73.923 177.428 74.288 175.95 74.566 175.007 C 74.745 175.303 74.828 175.648 74.802 175.993 C 74.802 176.014 74.631 177.578 74.267 180.64 C 73.903 183.788 73.71 185.587 73.71 186.058 L 73.71 186.958 Q 73.774 187.536 74.224 187.536 C 75.02 187.558 75.8 187.315 76.444 186.846 C 77.087 186.377 77.556 185.708 77.779 184.944 C 78.165 183.124 78.379 182.139 78.443 181.944 C 79.107 179.76 79.685 177.511 80.199 175.198 C 80.692 172.885 81.227 170.572 81.784 168.238 C 82.319 165.882 82.769 164.49 83.176 164.062 C 81.504 163.225 80 162.085 78.743 160.7 C 77.736 159.608 76.965 158.794 76.43 158.216 Q 76.141 158.891 75.338 160.4 C 74.663 161.649 74.097 162.954 73.646 164.3 C 73.36 165.334 73.195 166.398 73.154 167.47 C 73.133 168.177 73.09 169.247 73.047 170.682 Z M 77.436 177.449 C 77.478 177.595 77.5 177.747 77.5 177.899 C 77.454 179.435 77.261 180.962 76.922 182.461 C 76.716 183.856 76.282 185.207 75.637 186.461 C 75.581 186.364 75.558 186.251 75.573 186.14 C 75.573 185.99 75.83 184.748 76.322 182.414 C 76.879 179.844 77.222 178.195 77.329 177.445 Z"
            fill="#fde7b5"/>
        <path
            id="path_59"
            clip-path="url(#clip_path_59)"
            d="M 77.5 177.899 C 77.5 177.747 77.478 177.595 77.436 177.449 L 77.329 177.449 C 77.222 178.198 76.879 179.849 76.322 182.418 C 75.829 184.752 75.573 185.994 75.573 186.144 C 75.558 186.255 75.581 186.368 75.637 186.465 C 76.282 185.211 76.716 183.86 76.922 182.465 C 77.261 180.966 77.454 179.439 77.5 177.903 Z"
            fill="#000000"/>
        <path
            id="path_60"
            clip-path="url(#clip_path_60)"
            d="M 84.161 164.235 L 83.99 164.235 C 83.815 164.235 83.642 164.206 83.476 164.15 C 83.48 164.258 83.494 164.366 83.519 164.471 Q 83.519 164.825 83.262 166.848 C 83.541 162.715 83.305 163.015 82.513 167.748 C 82.032 171.096 81.331 174.409 80.413 177.664 C 80.259 178.018 80.13 178.383 80.027 178.756 L 80.048 178.756 C 80.198 179.167 80.228 179.613 80.134 180.041 C 80.027 180.79 79.963 181.241 79.963 181.39 C 79.963 181.411 79.942 182.033 79.878 183.211 C 79.866 183.508 79.913 183.805 80.016 184.084 C 80.119 184.363 80.276 184.62 80.478 184.838 C 80.328 186.059 80.714 185.438 81.656 182.975 C 82.457 180.91 83.088 178.782 83.541 176.614 C 83.918 174.411 84.161 172.187 84.269 169.954 C 84.35 168.274 84.616 166.608 85.062 164.986 L 85.105 164.965 C 84.833 164.879 84.584 164.733 84.377 164.537 C 84.314 164.431 84.242 164.331 84.163 164.237 Z"
            fill="#fde7b5"/>
        <path
            id="path_61"
            clip-path="url(#clip_path_61)"
            d="M 156.59 47.347 C 156.677 47.235 156.77 47.128 156.869 47.026 C 155.393 47.527 154.131 48.517 153.292 49.831 C 151.043 52.979 148.217 54.457 144.854 54.307 C 143.805 54.243 143.312 53.622 143.376 52.401 C 143.464 51.015 143.628 49.635 143.869 48.268 C 142.861 50.362 142.161 52.591 141.792 54.886 C 141.599 55.978 141.299 57.606 140.871 59.786 C 140.539 61.408 140.353 63.057 140.314 64.712 C 140.314 65.119 140.4 65.912 140.55 67.112 C 140.7 68.29 140.786 68.975 140.786 69.168 C 140.753 69.395 140.695 69.617 140.615 69.832 C 140.335 69.049 140.141 68.237 140.037 67.412 C 139.898 66.533 139.827 65.645 139.823 64.756 C 139.999 61.107 140.604 57.492 141.623 53.984 C 142.21 51.426 143.079 48.94 144.214 46.574 C 144.385 45.782 144.578 44.989 144.814 44.219 C 143.48 45.352 142.248 46.599 141.13 47.945 C 138.902 50.64 137.405 53.863 136.783 57.304 C 136.152 61.213 134.456 64.874 131.883 67.884 C 131.433 68.376 130.919 68.333 130.298 67.755 C 129.998 67.476 129.698 67.177 129.398 66.877 C 129.805 68.119 129.979 69.426 129.912 70.732 C 129.818 72.764 129.421 74.77 128.734 76.685 C 128.755 77.156 128.777 77.734 128.777 78.42 C 128.71 80.245 128.466 82.06 128.049 83.838 C 127.556 86.343 127.063 87.886 126.571 88.506 L 126.507 88.506 C 126.486 88.57 126.464 88.549 126.464 88.442 Q 126.946 86.707 127.428 84.459 C 127.987 82.17 128.317 79.832 128.413 77.478 C 128.134 78.099 127.835 78.72 127.492 79.341 C 126.121 81.846 124.943 81.783 123.98 79.148 C 123.106 76.758 122.009 74.457 120.703 72.273 C 120.404 71.737 119.992 71.273 119.497 70.91 C 119.002 70.548 118.434 70.296 117.833 70.173 C 118.675 71.485 119.385 72.877 119.953 74.328 C 120.482 75.675 120.779 77.101 120.831 78.547 C 121.175 79.212 121.475 79.899 121.731 80.603 C 122.771 83.654 123.257 86.867 123.166 90.09 C 123.207 91.103 123.121 92.118 122.909 93.11 Q 122.78 93.11 122.78 93.174 C 122.738 92.681 122.716 91.696 122.716 90.197 C 122.807 87.013 122.336 83.837 121.324 80.816 C 121.174 80.409 121.003 79.981 120.831 79.574 C 120.758 80.812 120.498 82.032 120.06 83.193 C 119.053 86.02 117.704 86.02 116.06 83.214 C 114.275 80.189 111.901 77.552 109.078 75.461 C 109.121 75.611 109.164 75.782 109.207 75.954 C 110.538 77.689 111.727 79.528 112.762 81.454 C 114.862 85.287 115.91 88.114 115.91 89.978 Q 115.91 90.845 115.781 92.74 C 115.722 93.919 115.543 95.089 115.245 96.231 L 115.395 98.373 Q 115.395 99.529 115.588 102.806 L 128.074 102.806 C 127.953 102.48 127.867 102.143 127.817 101.799 C 127.083 97.432 127.555 92.947 129.182 88.829 C 129.226 88.717 129.299 88.619 129.393 88.543 C 129.487 88.468 129.599 88.419 129.718 88.401 C 131.86 90.35 132.866 93.091 132.759 96.601 C 133.466 94.117 133.98 91.975 134.301 90.201 L 134.13 90.18 L 133.937 90.137 L 133.894 89.923 L 134.023 88.123 C 134.048 85.726 133.76 83.336 133.166 81.013 C 132.402 78.479 131.494 75.991 130.446 73.56 L 130.51 73.56 C 133.359 78.807 134.686 83.883 134.451 88.744 C 136.121 85.596 137.299 83.561 137.963 82.598 C 138.413 81.955 139.227 80.949 140.383 79.578 C 141.171 78.632 141.781 77.551 142.183 76.387 L 142.633 76.387 C 142.786 76.395 142.937 76.356 143.067 76.276 C 143.197 76.195 143.3 76.077 143.361 75.937 L 143.425 75.873 C 143.348 75.852 143.269 75.838 143.189 75.83 C 143.168 75.851 143.146 75.809 143.146 75.701 C 143.146 75.508 143.317 75.401 143.639 75.359 L 143.832 75.359 C 144.215 75.365 144.593 75.445 144.946 75.594 C 145.328 75.746 145.735 75.826 146.146 75.83 C 146.552 75.844 146.955 75.763 147.324 75.594 C 147.014 75.138 146.769 74.641 146.596 74.117 C 146.189 72.425 145.975 71.547 145.975 71.483 C 145.967 71.196 145.988 70.909 146.039 70.626 C 145.975 69.748 145.953 69.234 145.953 69.062 C 145.953 68.698 145.974 68.334 145.996 67.948 C 145.849 68.175 145.684 68.39 145.503 68.591 C 143.897 70.476 142.848 70.218 142.312 67.842 Q 140.802 60.935 145.139 57.242 C 145.819 57.739 146.388 58.374 146.808 59.104 C 147.229 59.835 147.492 60.645 147.58 61.483 C 148.245 59.686 149.025 57.933 149.914 56.236 C 152.077 51.953 154.433 48.912 156.939 47.092 C 156.815 47.164 156.7 47.25 156.596 47.349 Z M 138.301 67.991 C 138.165 67.297 138.072 66.596 138.022 65.891 L 138.022 65.613 L 138.108 65.613 C 138.73 67.806 139.019 70.08 138.965 72.359 L 138.965 72.488 C 139.562 73.681 140.043 74.929 140.4 76.215 C 141.064 78.464 140.379 79.963 138.344 80.67 C 137.957 80.845 137.529 80.91 137.107 80.858 C 136.685 80.807 136.286 80.64 135.952 80.376 C 135.619 80.113 135.365 79.762 135.217 79.364 C 132.904 74.845 133.204 71.204 136.138 68.485 C 137.082 69.453 137.895 70.54 138.558 71.719 C 138.568 70.472 138.482 69.226 138.301 67.992 Z"
            fill="#f6b5fe"/>
        <path
            id="path_62"
            clip-path="url(#clip_path_62)"
            d="M 131.17 101.829 C 130.958 102.101 130.729 102.358 130.484 102.6 L 130.27 102.814 L 130.848 102.814 C 130.955 102.471 131.062 102.15 131.169 101.829 Z"
            fill="#f6b5fe"/>
        <path
            id="path_63"
            clip-path="url(#clip_path_63)"
            d="M 130.848 102.814 L 130.27 102.814 C 129.2 103.799 128.47 103.799 128.065 102.814 L 115.578 102.814 Q 115.707 105.255 115.964 108.853 C 116.371 114.486 116.564 118.597 116.564 121.146 C 116.54 122.082 116.432 123.013 116.243 123.93 C 115.965 125.494 115.815 126.5 115.772 126.95 C 115.579 128.793 115.544 130.648 115.665 132.497 C 115.728 137.552 116.071 142.6 116.693 147.617 C 117.123 152.276 117.947 156.89 119.156 161.409 L 119.242 161.366 C 119.349 161.173 119.392 161.066 119.413 161.024 C 119.456 160.96 119.627 159.632 119.905 157.04 C 119.879 157.16 119.864 157.282 119.862 157.404 C 119.064 156.064 118.725 154.499 118.898 152.949 C 119.13 149.111 119.094 145.261 118.791 141.427 C 117.821 129.152 118.346 116.804 120.355 104.656 C 120.398 104.335 120.633 104.164 121.04 104.142 Q 124.799 108.286 123.782 115.364 C 123.238 119.071 123.037 122.82 123.182 126.564 C 123.246 128.17 123.289 129.755 123.332 131.364 C 123.675 128.964 123.974 126.864 124.21 125.046 C 124.66 121.512 126.33 115.646 129.264 107.399 C 129.842 105.793 130.356 104.251 130.849 102.816 Z"
            fill="#f6b5fe"/>
        <path
            id="path_64"
            clip-path="url(#clip_path_64)"
            d="M 138.022 65.615 L 138.022 65.893 C 138.072 66.598 138.165 67.299 138.301 67.993 C 138.482 69.227 138.568 70.473 138.558 71.72 L 138.558 71.827 C 138.558 73.091 138.537 73.861 138.515 74.14 C 138.515 74.268 138.408 75.232 138.194 77.052 L 138.194 77.501 L 138.237 77.501 C 138.803 75.894 139.051 74.192 138.965 72.49 L 138.965 72.361 C 139.019 70.082 138.73 67.808 138.108 65.615 Z"
            fill="#000000"/>
        <path
            id="path_65"
            clip-path="url(#clip_path_65)"
            d="M 138.558 71.826 L 138.558 71.719 C 137.895 70.54 137.082 69.453 136.138 68.485 C 133.204 71.205 132.904 74.846 135.217 79.364 C 135.365 79.762 135.619 80.113 135.952 80.376 C 136.286 80.64 136.685 80.807 137.107 80.858 C 137.529 80.91 137.957 80.845 138.344 80.67 C 140.378 79.963 141.064 78.464 140.4 76.215 C 140.043 74.929 139.562 73.681 138.965 72.488 C 139.051 74.19 138.803 75.892 138.237 77.499 L 138.194 77.499 L 138.194 77.05 C 138.408 75.23 138.515 74.266 138.515 74.138 C 138.536 73.859 138.558 73.089 138.558 71.825 Z"
            fill="#f7c7ff"/>
        <path
            id="path_66"
            clip-path="url(#clip_path_66)"
            d="M 145.496 68.592 C 145.677 68.391 145.842 68.176 145.989 67.949 C 146.217 65.73 146.75 63.554 147.574 61.481 C 147.486 60.643 147.223 59.833 146.802 59.103 C 146.382 58.372 145.813 57.738 145.133 57.241 Q 140.796 60.935 142.306 67.841 C 142.842 70.218 143.891 70.475 145.497 68.59 Z"
            fill="#f7c7ff"/>
    </g>
</svg>
